<?xml version="1.0" encoding="utf-8"?>
<!-- Generator: Adobe Illustrator 19.0.0, SVG Export Plug-In . SVG Version: 6.00 Build 0)  -->
<svg version="1.1" id="Layer_1" xmlns="http://www.w3.org/2000/svg" xmlns:xlink="http://www.w3.org/1999/xlink" x="0px" y="0px"
	 viewBox="-255 347 100 100" style="enable-background:new -255 347 100 100;" xml:space="preserve">
<style type="text/css">
	.st0{fill:#FFFFFF;}
</style>
<g id="Circle">
	<circle class="st0" cx="-205" cy="397" r="50"/>
	<path d="M-205,350c26,0,47,21,47,47s-21,47-47,47s-47-21-47-47S-231,350-205,350 M-205,347c-27.6,0-50,22.4-50,50s22.4,50,50,50
		s50-22.4,50-50S-177.4,347-205,347z"/>
</g>
<g id="Icons">
	<path class="st0" d="M-194.9,390c2.1-5.3-0.5-11.4-5.8-13.5s-11.4,0.5-13.5,5.8c-0.5,1.2-0.7,2.5-0.7,3.8c0,1.3,0.2,2.5,0.7,3.7
		c-5.6,1.4-8.9,7-7.6,12.6c1.2,4.6,5.3,7.9,10.1,7.9h13.8c5.7,0,10.4-4.6,10.4-10.4C-187.5,395.3-190.6,391.3-194.9,390L-194.9,390z
		"/>
	<path d="M-197.9,411h-13.8c-6.1,0-11.1-5-11.2-11.1c0-4.8,3.1-9.1,7.6-10.6c-1.8-5.9,1.6-12.1,7.5-13.9c5.9-1.8,12.1,1.6,13.9,7.5
		c0.6,2.1,0.6,4.4,0,6.5c5.7,2.2,8.6,8.6,6.4,14.4C-189.2,408.2-193.4,411-197.9,411L-197.9,411z M-204.6,376.5
		c-5.3,0-9.6,4.3-9.6,9.6c0,1.2,0.2,2.3,0.6,3.4c0.1,0.2,0.1,0.4,0,0.6c-0.1,0.2-0.3,0.3-0.5,0.4c-5.2,1.2-8.4,6.4-7.2,11.6
		c1,4.4,5,7.5,9.5,7.4h13.8c5.3,0,9.6-4.3,9.6-9.6c0-4.3-2.8-8-6.9-9.2c-0.4-0.1-0.6-0.5-0.5-0.9c0,0,0-0.1,0-0.1
		c1.9-5-0.5-10.5-5.5-12.5C-202.2,376.8-203.4,376.5-204.6,376.5L-204.6,376.5z"/>
	<path d="M-204.8,421.4c-0.4,0-0.8-0.3-0.8-0.8v-31.5c0-0.4,0.3-0.8,0.8-0.8s0.8,0.3,0.8,0.8v31.5
		C-204.1,421-204.4,421.3-204.8,421.4z"/>
	<path d="M-204.7,405.5c-0.2,0-0.4-0.1-0.5-0.2c-0.3-0.3-0.3-0.8,0-1.1l5.1-5.1c0.3-0.3,0.8-0.3,1,0c0,0,0,0,0,0
		c0.3,0.3,0.3,0.8,0,1.1l-5.2,5.1C-204.3,405.5-204.5,405.6-204.7,405.5z"/>
	<path d="M-205,401.3c-0.2,0-0.4-0.1-0.5-0.2l-5.1-5.1c-0.3-0.3-0.3-0.8,0-1.1c0.3-0.3,0.7-0.3,1,0l5.2,5.1c0.3,0.3,0.3,0.8,0,1.1
		C-204.6,401.3-204.8,401.4-205,401.3z"/>
	<path d="M-210.7,407.4h-0.5c-0.2,0-0.3-0.1-0.3-0.3c0,0,0,0,0,0c0-0.1,0.2-0.3,0.3-0.3h0.5c0.2,0,0.3,0.2,0.2,0.3
		C-210.5,407.3-210.6,407.4-210.7,407.4z M-212.2,407.3L-212.2,407.3l-0.5-0.1c-0.1,0-0.2-0.2-0.2-0.3c0-0.1,0.2-0.2,0.3-0.2
		l0.5,0.1c0.1,0,0.2,0.2,0.2,0.3c0,0,0,0,0,0C-211.9,407.2-212,407.3-212.2,407.3z M-213.6,406.9h-0.1l-0.5-0.2
		c-0.1-0.1-0.2-0.2-0.1-0.4c0,0,0,0,0,0c0.1-0.1,0.2-0.2,0.4-0.1l0.5,0.2c0.1,0,0.2,0.2,0.2,0.3c0,0,0,0,0,0
		C-213.4,406.8-213.5,406.9-213.6,406.9z M-215,406.2c-0.1,0-0.1,0-0.1,0l-0.4-0.3c-0.1-0.1-0.2-0.3-0.1-0.4s0.3-0.2,0.4-0.1
		l0.4,0.3c0.1,0.1,0.2,0.2,0.1,0.4C-214.8,406.2-214.9,406.2-215,406.2z M-216.2,405.3c-0.1,0-0.1,0-0.2-0.1
		c-0.1-0.1-0.3-0.2-0.4-0.4c-0.1-0.1-0.1-0.3,0.1-0.4c0.1-0.1,0.2-0.1,0.3,0c0.1,0.1,0.2,0.2,0.3,0.3c0.1,0.1,0.1,0.3,0,0.4
		C-216.1,405.3-216.1,405.3-216.2,405.3L-216.2,405.3z M-217.2,404.2c-0.1,0-0.2,0-0.2-0.1l-0.3-0.4c-0.1-0.1-0.1-0.3,0.1-0.4
		c0,0,0,0,0,0c0.1-0.1,0.3-0.1,0.4,0.1c0,0,0,0,0,0c0.1,0.1,0.2,0.3,0.3,0.4c0.1,0.1,0.1,0.3,0,0.4
		C-217,404.2-217.1,404.2-217.2,404.2L-217.2,404.2z M-218,403c-0.1,0-0.2-0.1-0.2-0.1c-0.1-0.2-0.1-0.3-0.2-0.5
		c-0.1-0.1,0-0.3,0.1-0.4c0.1-0.1,0.3,0,0.4,0.1c0.1,0.1,0.1,0.3,0.2,0.4c0.1,0.1,0,0.3-0.1,0.4C-217.9,403-218,403-218,403z
		 M-218.6,401.6c-0.1,0-0.2-0.1-0.3-0.2c-0.1-0.2-0.1-0.3-0.1-0.5c0-0.1,0.1-0.3,0.2-0.3c0.1,0,0.3,0.1,0.3,0.2l0.1,0.5
		C-218.2,401.4-218.3,401.6-218.6,401.6L-218.6,401.6z M-218.8,400.1c-0.1,0-0.3-0.1-0.3-0.3c0-0.2,0-0.3,0-0.5
		c0-0.2,0.1-0.3,0.3-0.3c0.1,0,0.3,0.1,0.3,0.2c0,0,0,0,0,0.1c0,0.2,0,0.3,0,0.5C-218.5,400-218.7,400.1-218.8,400.1L-218.8,400.1z"
		/>
</g>
</svg>
