<?xml version="1.0" encoding="utf-8"?>
<!-- Generator: Adobe Illustrator 19.0.0, SVG Export Plug-In . SVG Version: 6.00 Build 0)  -->
<svg version="1.1" id="Layer_1" xmlns="http://www.w3.org/2000/svg" xmlns:xlink="http://www.w3.org/1999/xlink" x="0px" y="0px"
	 viewBox="-255 347 100 100" style="enable-background:new -255 347 100 100;" xml:space="preserve">
<style type="text/css">
	.st0{fill:#FFFFFF;}
</style>
<g id="Circle">
	<circle class="st0" cx="-205" cy="396.8" r="50"/>
	<path d="M-205,349.8c26,0,47,21,47,47c0,26-21,47-47,47s-47-21-47-47C-252,370.9-230.9,349.9-205,349.8 M-205,346.8
		c-27.6,0-50,22.4-50,50s22.4,50,50,50s50-22.4,50-50S-177.4,346.8-205,346.8z"/>
</g>
<g id="Icons">
	<path d="M-205.1,417.6h-4.7c-8.7,0-13.5-4.8-13.5-13.5v-9.7c0-1.2,1-2.2,2.2-2.2h29.5v11.9C-191.6,412.6-196.6,417.6-205.1,417.6z
		 M-221.1,393.7c-0.4,0-0.7,0.3-0.7,0.7v9.7c0,9.9,6.5,12,12,12h4.7c4.5,0,12-1.6,12-12v-10.4H-221.1z"/>
	<path d="M-190.6,406h-2.6v-13.8h3.6c6.4,0,6.9,3.4,6.9,6.9C-182.7,403.2-186.8,406-190.6,406z M-191.6,404.5h1.1
		c3.1,0,6.4-2.2,6.4-5.4c0-3.2-0.4-5.4-5.4-5.4h-2.1V404.5z"/>
	<path d="M-203,388.4c-0.1,0-0.2-0.1-0.3-0.2c-0.1-0.2-0.1-0.4-0.1-0.5c0-0.2,0.1-0.3,0.2-0.3c0.1,0,0.3,0.1,0.3,0.2c0,0,0,0,0,0
		c0,0.2,0.1,0.3,0.1,0.5C-202.7,388.2-202.8,388.3-203,388.4L-203,388.4z M-203.2,386.9L-203.2,386.9c-0.2,0-0.3-0.1-0.3-0.3
		c0-0.2,0-0.4,0-0.5c0-0.2,0.2-0.3,0.3-0.2c0.1,0,0.3,0.1,0.2,0.3c0,0,0,0,0,0c0,0.2,0,0.3,0,0.5
		C-202.9,386.8-203,386.9-203.2,386.9L-203.2,386.9z M-203,385.4L-203,385.4c-0.2,0-0.3-0.2-0.2-0.3c0.1-0.2,0.1-0.3,0.2-0.5
		c0-0.1,0.2-0.2,0.3-0.2c0,0,0,0,0,0c0.1,0.1,0.2,0.2,0.2,0.4c-0.1,0.1-0.1,0.3-0.1,0.5C-202.7,385.4-202.8,385.4-203,385.4
		L-203,385.4z M-202.4,384c-0.2,0-0.3-0.1-0.3-0.3c0,0,0-0.1,0-0.1l0.2-0.5c0-0.1,0.2-0.2,0.4-0.2c0.1,0,0.2,0.2,0.2,0.4
		c0,0,0,0,0,0.1l-0.2,0.4C-202.2,383.9-202.3,384-202.4,384z M-201.7,382.6c0,0-0.1,0-0.1,0c-0.1-0.1-0.2-0.2-0.1-0.4l0.2-0.4
		c0.1-0.1,0.2-0.2,0.4-0.1c0.1,0.1,0.2,0.2,0.1,0.4l-0.2,0.4C-201.5,382.6-201.6,382.7-201.7,382.6L-201.7,382.6z M-201.1,381.3
		c0,0-0.1,0-0.1,0c-0.1-0.1-0.2-0.2-0.1-0.4c0,0,0,0,0,0l0.2-0.5c0.1-0.1,0.2-0.2,0.3-0.2c0,0,0,0,0,0c0.1,0.1,0.2,0.2,0.2,0.4
		c-0.1,0.1-0.1,0.3-0.2,0.5C-200.9,381.3-201,381.3-201.1,381.3L-201.1,381.3z M-200.6,379.9L-200.6,379.9c-0.2,0-0.3-0.2-0.3-0.3
		c0,0,0,0,0,0c0-0.1,0.1-0.3,0.1-0.5c0-0.1,0.2-0.2,0.3-0.2c0.1,0,0.2,0.2,0.2,0.3c0,0.2-0.1,0.3-0.1,0.5
		C-200.3,379.8-200.4,379.9-200.6,379.9L-200.6,379.9z M-200.3,378.4L-200.3,378.4c-0.2,0-0.3-0.1-0.3-0.3v-0.4
		c0-0.2,0.1-0.3,0.3-0.3c0.2,0,0.3,0.1,0.3,0.3v0.5C-200,378.4-200.2,378.5-200.3,378.4L-200.3,378.4z M-200.4,377
		c-0.1,0-0.2-0.1-0.3-0.2c0-0.2-0.1-0.3-0.1-0.5c0-0.1,0.1-0.3,0.2-0.3c0.1,0,0.3,0,0.3,0.2c0,0,0,0,0,0c0,0.2,0.1,0.3,0.1,0.5
		C-200.2,376.8-200.2,377-200.4,377C-200.4,377-200.4,377-200.4,377L-200.4,377z M-200.9,375.6c-0.1,0-0.2-0.1-0.3-0.2
		c-0.1-0.1-0.1-0.3-0.2-0.4c-0.1-0.1,0-0.3,0.1-0.4c0.1-0.1,0.3,0,0.4,0.1c0,0,0,0,0,0c0.1,0.2,0.1,0.3,0.2,0.5
		c0.1,0.1,0,0.3-0.1,0.4L-200.9,375.6z"/>
	<path d="M-208.5,388.4c-0.1,0-0.2-0.1-0.3-0.2c-0.1-0.2-0.1-0.3-0.1-0.5c-0.1-0.1,0-0.3,0.2-0.4c0.1-0.1,0.3,0,0.4,0.2
		c0,0,0,0.1,0,0.1c0,0.2,0.1,0.3,0.1,0.5C-208.2,388.2-208.3,388.3-208.5,388.4C-208.4,388.4-208.4,388.4-208.5,388.4L-208.5,388.4z
		 M-208.7,386.9L-208.7,386.9c-0.2,0-0.3-0.1-0.3-0.3c0-0.2,0-0.4,0-0.5c0-0.1,0.1-0.3,0.3-0.2c0,0,0,0,0,0c0.1,0,0.3,0.1,0.2,0.3
		c0,0,0,0,0,0c0,0.2,0,0.3,0,0.5C-208.5,386.8-208.6,386.9-208.7,386.9z M-208.5,385.4L-208.5,385.4c-0.2,0-0.3-0.2-0.3-0.3
		c0-0.2,0.1-0.3,0.2-0.5c0.1-0.1,0.2-0.2,0.4-0.1c0.1,0.1,0.2,0.2,0.1,0.3l-0.1,0.5C-208.3,385.4-208.4,385.4-208.5,385.4z
		 M-208,384c0,0-0.1,0-0.1,0c-0.1-0.1-0.2-0.2-0.1-0.4c0,0,0,0,0,0c0.1-0.2,0.1-0.3,0.2-0.5c0.1-0.1,0.2-0.2,0.4-0.1c0,0,0,0,0,0
		c0.1,0.1,0.2,0.2,0.1,0.4c0,0,0,0,0,0l-0.2,0.5C-207.8,384-207.9,384-208,384z M-207.3,382.6c0,0-0.1,0-0.1,0
		c-0.1-0.1-0.2-0.2-0.1-0.4l0.2-0.4c0.1-0.1,0.2-0.2,0.4-0.1c0,0,0,0,0,0c0.1,0.1,0.2,0.2,0.1,0.4l-0.2,0.4
		C-207.1,382.6-207.2,382.7-207.3,382.6L-207.3,382.6z M-206.7,381.3c0,0-0.1,0-0.1,0c-0.1-0.1-0.1-0.2-0.1-0.3
		c0.1-0.1,0.1-0.3,0.2-0.5c0-0.2,0.2-0.2,0.3-0.2s0.2,0.2,0.2,0.3c0,0,0,0.1,0,0.1l-0.2,0.5C-206.5,381.3-206.6,381.4-206.7,381.3
		L-206.7,381.3z M-206.2,379.9L-206.2,379.9c-0.2,0-0.3-0.2-0.2-0.3c0,0,0,0,0,0c0-0.1,0.1-0.3,0.1-0.5c0.1-0.1,0.2-0.2,0.4-0.2
		c0.1,0,0.2,0.1,0.2,0.3c0,0.2-0.1,0.3-0.1,0.5C-205.9,379.8-206,379.9-206.2,379.9L-206.2,379.9z M-205.9,378.4L-205.9,378.4
		c-0.2,0-0.3-0.1-0.3-0.3c0-0.1,0-0.2,0-0.2c0-0.1,0-0.2,0-0.2c0-0.2,0.1-0.3,0.3-0.3c0.1,0,0.3,0.1,0.3,0.2c0,0,0,0,0,0
		c0,0.1,0,0.2,0,0.3s0,0.2,0,0.3C-205.6,378.3-205.7,378.4-205.9,378.4L-205.9,378.4z M-206,377c-0.1,0-0.2-0.1-0.3-0.2
		c0-0.2-0.1-0.3-0.1-0.5c0-0.1,0.1-0.3,0.2-0.3c0.1,0,0.3,0.1,0.3,0.2c0,0.2,0.1,0.3,0.1,0.5C-205.7,376.8-205.8,377-206,377
		C-206,377-206,377-206,377z M-206.4,375.6c-0.1,0-0.2-0.1-0.3-0.2c-0.1-0.1-0.1-0.3-0.2-0.4c-0.1-0.1,0-0.3,0.1-0.4c0,0,0,0,0,0
		c0.1-0.1,0.3,0,0.4,0.1l0.2,0.5c0.1,0.1,0,0.3-0.2,0.4C-206.4,375.6-206.4,375.6-206.4,375.6L-206.4,375.6z"/>
	<path d="M-214.1,388.4c-0.1,0-0.2-0.1-0.3-0.2c-0.1-0.2-0.1-0.3-0.1-0.5c0-0.1,0.1-0.3,0.2-0.3c0.1,0,0.3,0.1,0.3,0.2
		c0,0.1,0.1,0.3,0.1,0.5c0,0.1,0,0.3-0.2,0.3C-214,388.4-214,388.4-214.1,388.4L-214.1,388.4z M-214.3,386.9L-214.3,386.9
		c-0.2,0-0.3-0.1-0.3-0.3c0-0.2,0-0.3,0-0.5c0-0.1,0.2-0.3,0.3-0.2c0.1,0,0.3,0.1,0.2,0.3c0,0,0,0,0,0c0,0.2,0,0.3,0,0.5
		C-214,386.8-214.1,386.9-214.3,386.9z M-214,385.4L-214,385.4c-0.2,0-0.3-0.2-0.3-0.3c0-0.2,0.1-0.3,0.2-0.5c0-0.1,0.2-0.2,0.3-0.2
		c0,0,0,0,0,0c0.1,0.1,0.2,0.2,0.2,0.3c0,0,0,0,0,0c0,0.1-0.1,0.3-0.1,0.5C-213.8,385.4-213.9,385.4-214,385.4z M-213.5,384
		c0,0-0.1,0-0.1,0c-0.1-0.1-0.2-0.2-0.1-0.4c0,0,0,0,0,0c0.1-0.1,0.1-0.3,0.2-0.5c0.1-0.1,0.2-0.2,0.4-0.1c0,0,0,0,0,0
		c0.1,0.1,0.2,0.2,0.1,0.4c0,0,0,0,0,0l-0.2,0.5C-213.3,384-213.4,384-213.5,384L-213.5,384z M-212.8,382.7c0,0-0.1,0-0.1,0
		c-0.1-0.1-0.2-0.2-0.1-0.4c0,0,0,0,0,0l0.2-0.5c0-0.1,0.2-0.2,0.3-0.2c0.1,0,0.2,0.2,0.2,0.3c0,0,0,0.1,0,0.1l-0.2,0.5
		C-212.6,382.7-212.7,382.7-212.8,382.7L-212.8,382.7z M-212.1,381.3h-0.1c-0.1-0.1-0.2-0.2-0.1-0.4c0.1-0.2,0.1-0.3,0.2-0.5
		c0.1-0.1,0.2-0.2,0.4-0.1c0.1,0.1,0.2,0.2,0.2,0.4c-0.1,0.2-0.1,0.3-0.2,0.5C-212,381.3-212.1,381.4-212.1,381.3L-212.1,381.3z
		 M-211.6,379.9L-211.6,379.9c-0.2,0-0.3-0.2-0.3-0.3c0-0.2,0.1-0.3,0.1-0.5c0-0.2,0.2-0.3,0.3-0.2c0,0,0,0,0,0
		c0.1,0,0.2,0.2,0.2,0.3c0,0.2-0.1,0.3-0.1,0.5C-211.4,379.9-211.5,380-211.6,379.9L-211.6,379.9z M-211.4,378.5L-211.4,378.5
		c-0.2,0-0.3-0.1-0.3-0.3c0-0.1,0-0.2,0-0.2c0-0.1,0-0.2,0-0.2c0-0.2,0.1-0.3,0.3-0.3c0.1,0,0.3,0.1,0.3,0.2c0,0,0,0,0,0
		c0,0.1,0,0.2,0,0.3c0,0.1,0,0.2,0,0.3C-211.1,378.4-211.2,378.5-211.4,378.5C-211.4,378.5-211.4,378.5-211.4,378.5L-211.4,378.5z
		 M-211.6,377c-0.1,0-0.2-0.1-0.3-0.2c0-0.2-0.1-0.3-0.1-0.5c0-0.1,0-0.3,0.2-0.3c0.1,0,0.3,0,0.3,0.2c0,0.2,0.1,0.3,0.1,0.5
		C-211.3,376.8-211.3,377-211.6,377C-211.5,377-211.5,377-211.6,377L-211.6,377z M-212,375.5c-0.1,0-0.2-0.1-0.3-0.2
		c-0.1-0.1-0.1-0.3-0.2-0.4c-0.1-0.1,0-0.3,0.1-0.4c0,0,0,0,0,0c0.1-0.1,0.3,0,0.4,0.1l0.2,0.5c0.1,0.1,0,0.3-0.1,0.4c0,0,0,0,0,0
		C-211.9,375.5-212,375.5-212,375.5z"/>
	<path d="M-210.4,413.2h-0.5c-0.2,0-0.3-0.1-0.3-0.2s0.1-0.3,0.2-0.3c0,0,0.1,0,0.1,0h0.5c0.2,0,0.3,0.1,0.3,0.3
		C-210.1,413.1-210.3,413.2-210.4,413.2z M-211.9,413.1L-211.9,413.1c-0.2,0-0.3-0.1-0.5-0.1c-0.1,0-0.2-0.2-0.2-0.3
		c0-0.1,0.2-0.2,0.3-0.2l0,0l0.5,0.1c0.1,0,0.2,0.2,0.2,0.3c0,0,0,0,0,0C-211.6,413-211.7,413.1-211.9,413.1
		C-211.9,413.1-211.9,413.1-211.9,413.1z M-213.3,412.6C-213.4,412.6-213.4,412.6-213.3,412.6c-0.3-0.1-0.4-0.1-0.6-0.2
		c-0.1-0.1-0.2-0.2-0.1-0.4c0,0,0,0,0-0.1c0.1-0.1,0.2-0.2,0.4-0.1l0.4,0.2c0.1,0.1,0.2,0.2,0.1,0.4
		C-213.1,412.6-213.2,412.6-213.3,412.6z M-214.7,411.9c0,0-0.1,0-0.1,0l-0.4-0.3c-0.1-0.1-0.2-0.2-0.1-0.4c0.1-0.1,0.2-0.2,0.4-0.1
		c0,0,0.1,0,0.1,0.1l0.4,0.3c0.1,0.1,0.2,0.2,0.1,0.4C-214.5,411.9-214.6,412-214.7,411.9L-214.7,411.9z M-215.8,411
		c-0.1,0-0.1,0-0.2-0.1l-0.4-0.4c-0.1-0.1,0-0.3,0.1-0.4c0.1-0.1,0.2-0.1,0.3,0l0.3,0.4c0.1,0.1,0.1,0.3,0,0.4c0,0,0,0,0,0
		C-215.7,411-215.7,411-215.8,411z M-216.8,409.9c-0.1,0-0.2,0-0.2-0.1c-0.1-0.1-0.2-0.3-0.3-0.4c-0.1-0.1,0-0.3,0.1-0.4
		c0.1-0.1,0.3,0,0.4,0.1l0.3,0.4c0.1,0.1,0.1,0.3,0,0.4c0,0,0,0,0,0C-216.7,409.8-216.7,409.9-216.8,409.9L-216.8,409.9z
		 M-217.6,408.6c-0.1,0-0.2-0.1-0.3-0.2c-0.1-0.2-0.1-0.3-0.2-0.5c-0.1-0.1,0-0.3,0.2-0.3c0,0,0,0,0,0c0.1-0.1,0.3,0,0.3,0.2
		c0,0,0,0,0,0l0.2,0.5c0.1,0.1,0,0.3-0.1,0.4c0,0,0,0,0,0C-217.5,408.5-217.5,408.6-217.6,408.6L-217.6,408.6z M-218,407.1
		c-0.1,0-0.2-0.1-0.3-0.2c0-0.2-0.1-0.3-0.1-0.5c0-0.1,0.1-0.3,0.2-0.3c0.1,0,0.3,0.1,0.3,0.2l0,0l0.1,0.5
		C-217.7,406.9-217.8,407.1-218,407.1L-218,407.1z M-218.2,405.6c-0.2,0-0.3-0.1-0.3-0.3v-0.2c0-0.2,0.1-0.3,0.2-0.3
		c0.2,0,0.3,0.1,0.3,0.2c0,0,0,0.1,0,0.1v0.2C-217.9,405.5-218,405.6-218.2,405.6C-218.2,405.6-218.2,405.6-218.2,405.6z"/>
</g>
</svg>
