<?xml version="1.0" encoding="utf-8"?>
<!-- Generator: Adobe Illustrator 19.0.0, SVG Export Plug-In . SVG Version: 6.00 Build 0)  -->
<svg version="1.1" id="Layer_1" xmlns="http://www.w3.org/2000/svg" xmlns:xlink="http://www.w3.org/1999/xlink" x="0px" y="0px"
	 viewBox="-255 347 100 100" style="enable-background:new -255 347 100 100;" xml:space="preserve">
<style type="text/css">
	.st0{fill:#FFFFFF;}
</style>
<g id="Circle">
	<circle class="st0" cx="-205" cy="397" r="50"/>
	<path d="M-205,350c26,0,47,21,47,47s-21,47-47,47s-47-21-47-47S-231,350-205,350 M-205,347c-27.6,0-50,22.4-50,50s22.4,50,50,50
		s50-22.4,50-50S-177.4,347-205,347z"/>
</g>
<g id="Icons">
	<path class="st0" d="M-190.6,384.8c-0.4-0.6-0.5-1.3-0.4-1.9c0-1.1,0.7-2,1.7-2.4l-1.9-4.7c-0.4-1.1-1.7-1.6-2.8-1.2c0,0,0,0,0,0
		l-31.2,12.8c-1.1,0.5-1.6,1.7-1.2,2.8l1.9,4.7l0,0c1.2-0.5,2.7-0.1,3.4,1c0.9,1.5,0.4,3.4-1.1,4.2c-0.1,0-0.1,0.1-0.2,0.1l1.6,4
		c0.4,1.1,1.7,1.6,2.8,1.2c0,0,0,0,0,0l31.1-12.8c1.1-0.4,1.6-1.7,1.2-2.8l-1.6-4C-188.4,386.3-189.9,385.9-190.6,384.8z"/>
	<path d="M-218.7,406.2c-1.2,0-2.2-0.7-2.7-1.8l-1.6-4c-0.2-0.4,0-0.8,0.3-1c0,0,0,0,0.1,0c0.5-0.2,1-0.5,1.2-1.8
		c0.1-0.5,0-1-0.3-1.4c-0.6-0.8-1.6-1.1-2.6-0.7c-0.4,0.2-0.8,0-1-0.4c0,0,0,0,0,0l-1.9-4.7c-0.6-1.5,0.1-3.2,1.6-3.8l31.2-12.7
		c1.5-0.6,3.2,0.1,3.8,1.6l1.9,4.7c0.2,0.4,0,0.8-0.4,1c0,0,0,0,0,0c-0.5,0.2-1,0.5-1.2,1.8c-0.1,0.5,0,1,0.3,1.4l0,0
		c0.6,0.8,1.6,1.1,2.6,0.7c0.4-0.2,0.8,0,1,0.4c0,0,0,0,0,0l1.6,4c0.3,0.7,0.3,1.5,0,2.2c-0.3,0.7-0.9,1.3-1.6,1.6l-31.2,12.7
		C-218,406.1-218.3,406.2-218.7,406.2z M-221.4,400.5l1.4,3.3c0.3,0.7,1.1,1.1,1.8,0.8c0,0,0,0,0,0l31.2-12.8
		c0.3-0.1,0.6-0.4,0.8-0.8c0.1-0.3,0.1-0.7,0-1.1l-1.4-3.3c-1.4,0.3-2.8-0.3-3.6-1.5l0,0c-0.5-0.7-0.7-1.6-0.5-2.5
		c0.1-1,0.6-2,1.5-2.6l-1.7-4c-0.3-0.7-1.1-1.1-1.8-0.8c0,0,0,0,0,0l-31.2,12.7c-0.7,0.3-1.1,1.1-0.8,1.8c0,0,0,0,0,0l1.6,4
		c1.4-0.3,2.8,0.3,3.6,1.5c0.5,0.7,0.7,1.6,0.5,2.5C-220,398.9-220.5,399.9-221.4,400.5z"/>
	<path d="M-191.9,394.4c-0.1,0-0.2-0.1-0.3-0.2l-0.2-0.5c-0.1-0.1,0-0.3,0.1-0.3c0,0,0,0,0,0c0.1-0.1,0.3,0,0.3,0.1c0,0,0,0,0,0
		l0.2,0.5c0.1,0.1,0,0.3-0.1,0.4c0,0,0,0,0,0L-191.9,394.4z M-192.5,393c-0.1,0-0.2-0.1-0.3-0.2l-0.2-0.5c0-0.2,0.1-0.3,0.2-0.3
		c0.1,0,0.2,0,0.3,0.1l0.2,0.5C-192.2,392.8-192.3,392.9-192.5,393L-192.5,393z M-193.1,391.6c-0.1,0-0.2-0.1-0.3-0.2l-0.2-0.4
		c0-0.2,0.1-0.3,0.2-0.3c0.1,0,0.2,0,0.3,0.1l0.2,0.5c0.1,0.1,0,0.3-0.1,0.4C-193,391.6-193,391.6-193.1,391.6L-193.1,391.6z
		 M-193.6,390.2c-0.1,0-0.2-0.1-0.3-0.2l-0.2-0.5c-0.1-0.1,0-0.3,0.1-0.4c0.1-0.1,0.3,0,0.4,0.2l0.2,0.5c0.1,0.1,0,0.3-0.2,0.4
		C-193.6,390.2-193.6,390.2-193.6,390.2L-193.6,390.2z M-194.2,388.8c-0.1,0-0.2-0.1-0.3-0.2l-0.2-0.5c-0.1-0.1,0-0.3,0.2-0.4
		c0.1-0.1,0.3,0,0.4,0.1l0.2,0.5c0.1,0.1,0,0.3-0.2,0.4L-194.2,388.8z M-194.8,387.5c-0.1,0-0.2-0.1-0.3-0.2l-0.2-0.5
		c-0.1-0.1,0-0.3,0.1-0.4c0,0,0,0,0,0c0.1-0.1,0.3,0,0.4,0.2l0.2,0.5c0.1,0.1,0,0.3-0.1,0.4L-194.8,387.5z M-195.4,386
		c-0.1,0-0.2-0.1-0.3-0.2l-0.2-0.5c0-0.2,0.1-0.3,0.2-0.3c0.1,0,0.2,0,0.3,0.1l0.2,0.5c0.1,0.1,0,0.3-0.1,0.4L-195.4,386z
		 M-195.9,384.6c-0.1,0-0.2-0.1-0.3-0.2l-0.2-0.4c0-0.2,0.1-0.3,0.2-0.3c0.1,0,0.2,0,0.3,0.1l0.2,0.5
		C-195.6,384.4-195.7,384.6-195.9,384.6C-195.8,384.6-195.9,384.6-195.9,384.6L-195.9,384.6z M-196.5,383.2c-0.1,0-0.2-0.1-0.3-0.2
		l-0.2-0.5c-0.1-0.1,0-0.3,0.2-0.4c0.1-0.1,0.3,0,0.4,0.1l0.2,0.5c0.1,0.1,0,0.3-0.1,0.3c0,0,0,0,0,0
		C-196.4,383.2-196.5,383.3-196.5,383.2L-196.5,383.2z M-197.1,381.8c-0.1,0-0.2-0.1-0.3-0.2l-0.2-0.5c-0.1-0.1,0-0.3,0.1-0.4
		c0.1-0.1,0.3,0,0.4,0.1l0.2,0.5C-196.8,381.6-196.8,381.8-197.1,381.8L-197.1,381.8z M-197.6,380.5c-0.1,0-0.2-0.1-0.3-0.2
		l-0.2-0.5c-0.1-0.1,0-0.3,0.2-0.4c0.1-0.1,0.3,0,0.4,0.1c0,0,0,0,0,0l0.2,0.5c0.1,0.1,0,0.3-0.1,0.4L-197.6,380.5z M-198.2,379.1
		c-0.1,0-0.2-0.1-0.3-0.2l-0.2-0.5c-0.1-0.1,0-0.3,0.1-0.4c0.1-0.1,0.3,0,0.4,0.1c0,0,0,0,0,0l0.2,0.5
		C-197.9,378.8-198,379-198.2,379.1C-198.1,379.1-198.2,379.1-198.2,379.1L-198.2,379.1z M-198.8,377.7c-0.1,0-0.2-0.1-0.3-0.2
		l-0.2-0.5c-0.1-0.1,0-0.3,0.1-0.4c0.1-0.1,0.3,0,0.4,0.1l0.2,0.5c0.1,0.1,0,0.3-0.1,0.4c0,0,0,0,0,0
		C-198.7,377.7-198.7,377.7-198.8,377.7L-198.8,377.7z"/>
	<path class="st0" d="M-190.5,408.9c-0.2-1.7,0.9-3.3,2.6-3.5c0.1,0,0.1,0,0.2,0v-5c0-1.2-0.9-2.1-2.1-2.1c0,0,0,0,0,0h-33.7
		c-1.2,0-2.1,1-2.1,2.1l0,0v5l0,0c1.3,0,2.5,0.9,2.8,2.2c0.2,1.7-0.9,3.3-2.6,3.5c-0.1,0-0.1,0-0.2,0v4c-0.1,1.2,0.8,2.3,2,2.5
		c0.1,0,0.1,0,0.2,0h33.7c1.2,0,2.1-1,2.1-2.1l0,0v-4.3C-189.1,411.1-190.2,410.2-190.5,408.9z"/>
	<path d="M-189.9,418.3h-33.7c-1.7-0.1-3-1.4-2.9-3.1c0,0,0-0.1,0-0.1v-4c0-0.4,0.3-0.7,0.7-0.8c0,0,0,0,0,0c0.5,0,1.1-0.1,1.8-1.2
		c0.3-0.4,0.4-0.9,0.3-1.4c-0.2-1-1.1-1.7-2.1-1.7c-0.4,0-0.7-0.3-0.8-0.8v-5c0-1.6,1.3-2.9,2.9-2.9l0,0h33.7c1.6,0,2.9,1.3,2.9,2.9
		v5c0,0.4-0.3,0.8-0.8,0.8l0,0c-0.5,0-1.1,0.1-1.8,1.2c-0.3,0.4-0.4,0.9-0.3,1.4l0,0c0.2,1,1.1,1.7,2.1,1.7c0.4,0,0.7,0.3,0.8,0.7
		c0,0,0,0,0,0v4.3C-187,417-188.3,418.3-189.9,418.3C-189.9,418.3-189.9,418.3-189.9,418.3z M-224.9,411.8v3.3c0,1,0.6,1.7,1.4,1.7
		h33.7c0.8,0,1.4-0.6,1.4-1.4l0,0v-3.6c-1.4-0.3-2.5-1.4-2.8-2.8l0,0c-0.2-0.9,0-1.8,0.5-2.5c0.5-0.9,1.3-1.6,2.3-1.9v-4.4
		c0-0.8-0.6-1.4-1.4-1.4h-33.7c-0.8,0-1.4,0.6-1.4,1.4l0,0v4.4c1.4,0.3,2.5,1.4,2.8,2.7c0.2,0.9,0,1.8-0.4,2.5
		C-223.1,410.9-223.9,411.6-224.9,411.8z"/>
	<path d="M-195.3,417.3c-0.2,0-0.3-0.1-0.3-0.3v-0.5c0-0.1,0.1-0.3,0.3-0.3c0.2,0,0.3,0.1,0.3,0.3v0.5
		C-195,417.2-195.1,417.3-195.3,417.3z M-195.3,415.8c-0.2,0-0.3-0.1-0.3-0.3V415c0-0.1,0.1-0.3,0.3-0.3c0.1,0,0.3,0.1,0.3,0.3v0.5
		C-195,415.6-195.1,415.8-195.3,415.8z M-195.3,414.3c-0.2,0-0.3-0.1-0.3-0.3v-0.5c0-0.1,0.1-0.3,0.3-0.3c0.2,0,0.3,0.1,0.3,0.3v0.5
		C-195,414.2-195.1,414.3-195.3,414.3z M-195.3,412.8c-0.2,0-0.3-0.1-0.3-0.3V412c0-0.1,0.1-0.3,0.3-0.3c0.1,0,0.3,0.1,0.3,0.3v0.5
		C-195,412.6-195.1,412.8-195.3,412.8z M-195.3,411.3c-0.2,0-0.3-0.1-0.3-0.3v-0.5c0-0.1,0.1-0.3,0.3-0.3l0,0c0.2,0,0.3,0.1,0.3,0.3
		v0.5C-195,411.2-195.1,411.3-195.3,411.3z M-195.3,409.8c-0.2,0-0.3-0.1-0.3-0.3V409c0-0.1,0.1-0.3,0.3-0.3l0,0
		c0.1,0,0.3,0.1,0.3,0.3v0.5C-195,409.6-195.1,409.8-195.3,409.8z M-195.3,408.3c-0.2,0-0.3-0.1-0.3-0.3v-0.5c0-0.1,0.1-0.3,0.3-0.3
		l0,0c0.2,0,0.3,0.1,0.3,0.3v0.5C-195,408.2-195.1,408.3-195.3,408.3z M-195.3,406.8c-0.2,0-0.3-0.1-0.3-0.3V406
		c0-0.1,0.1-0.3,0.3-0.3l0,0c0.1,0,0.3,0.1,0.3,0.3v0.5C-195,406.6-195.1,406.8-195.3,406.8z M-195.3,405.3c-0.2,0-0.3-0.1-0.3-0.3
		v-0.5c0-0.1,0.1-0.3,0.3-0.3l0,0c0.2,0,0.3,0.1,0.3,0.3v0.5C-195,405.2-195.1,405.3-195.3,405.3z M-195.3,403.8
		c-0.2,0-0.3-0.1-0.3-0.3V403c0-0.1,0.1-0.3,0.3-0.3l0,0c0.1,0,0.3,0.1,0.3,0.3v0.5C-195,403.6-195.1,403.8-195.3,403.8z
		 M-195.3,402.3c-0.2,0-0.3-0.1-0.3-0.3v-0.5c0-0.1,0.1-0.3,0.3-0.3l0,0c0.2,0,0.3,0.1,0.3,0.3v0.5
		C-195,402.2-195.1,402.3-195.3,402.3z M-195.3,400.8c-0.2,0-0.3-0.1-0.3-0.3V400c0-0.1,0.1-0.3,0.3-0.3l0,0c0.1,0,0.3,0.1,0.3,0.3
		v0.5C-195,400.6-195.1,400.8-195.3,400.8z M-195.3,399.3c-0.2,0-0.3-0.1-0.3-0.3v-0.5c0-0.1,0.1-0.3,0.3-0.3l0,0
		c0.2,0,0.3,0.1,0.3,0.3v0.5C-195,399.2-195.1,399.3-195.3,399.3z"/>
</g>
</svg>
