<?xml version="1.0" encoding="utf-8"?>
<!-- Generator: Adobe Illustrator 19.0.0, SVG Export Plug-In . SVG Version: 6.00 Build 0)  -->
<svg version="1.1" id="Layer_1" xmlns="http://www.w3.org/2000/svg" xmlns:xlink="http://www.w3.org/1999/xlink" x="0px" y="0px"
	 viewBox="-255 347 100 100" style="enable-background:new -255 347 100 100;" xml:space="preserve">
<style type="text/css">
	.st0{fill:#FFFFFF;}
</style>
<g id="Circle">
	<circle class="st0" cx="-205" cy="397" r="50"/>
	<path d="M-205,350c26,0,47,21,47,47s-21,47-47,47s-47-21-47-47S-231,350-205,350 M-205,347c-27.6,0-50,22.4-50,50s22.4,50,50,50
		s50-22.4,50-50S-177.4,347-205,347z"/>
</g>
<g id="Icons">
	<path d="M-202.3,419.3h-5.4c-1.6,0-2.9-1.3-2.9-2.9v-13.7c0,0,0-0.1-0.1-0.1c0,0,0,0,0,0h-13.7c-1.6,0-2.9-1.3-2.9-2.9v-5.4
		c0-1.6,1.3-2.9,2.9-2.9h13.7c0,0,0.1,0,0.1-0.1c0,0,0,0,0,0v-13.7c0-1.6,1.3-2.9,2.9-2.9h5.4c1.6,0,2.9,1.3,2.9,2.9v13.7
		c0,0,0,0.1,0.1,0.1c0,0,0,0,0,0h13.7c1.6,0,2.9,1.3,2.9,2.9v5.4c0,1.6-1.3,2.9-2.9,2.9h-13.7c0,0-0.1,0-0.1,0.1c0,0,0,0,0,0v13.7
		C-199.4,418-200.7,419.3-202.3,419.3z M-224.4,392.9c-0.8,0-1.4,0.6-1.4,1.4v5.4c0,0.8,0.6,1.4,1.4,1.4h13.7c0.9,0,1.6,0.7,1.6,1.6
		l0,0v13.7c0,0.8,0.6,1.4,1.4,1.4h5.4c0.8,0,1.4-0.6,1.4-1.4v-13.7c0-0.9,0.7-1.6,1.6-1.6l0,0h13.7c0.8,0,1.4-0.6,1.4-1.4v-5.4
		c0-0.8-0.6-1.4-1.4-1.4h-13.7c-0.9,0-1.6-0.7-1.6-1.6l0,0v-13.7c0-0.8-0.6-1.4-1.4-1.4h-5.4c-0.8,0-1.4,0.6-1.4,1.4v13.7
		c0,0.9-0.7,1.6-1.6,1.6l0,0H-224.4z"/>
</g>
</svg>
