<?xml version="1.0" encoding="utf-8"?>
<!-- Generator: Adobe Illustrator 19.0.0, SVG Export Plug-In . SVG Version: 6.00 Build 0)  -->
<svg version="1.1" id="Layer_1" xmlns="http://www.w3.org/2000/svg" xmlns:xlink="http://www.w3.org/1999/xlink" x="0px" y="0px"
	 viewBox="-510 694 100 100" style="enable-background:new -510 694 100 100;" xml:space="preserve">
<style type="text/css">
	.st0{fill:#FFFFFF;}
</style>
<g id="Circle">
	<circle class="st0" cx="-460" cy="744" r="50"/>
	<path d="M-460,697c26,0,47,21,47,47s-21,47-47,47s-47-21-47-47S-486,697-460,697 M-460,694c-27.6,0-50,22.4-50,50s22.4,50,50,50
		s50-22.4,50-50S-432.4,694-460,694z"/>
</g>
<g id="Icons">
	<path d="M-443.8,749.4h-29.8c-0.4,0-0.7-0.3-0.7-0.6l-2.7-16.4c0-0.2,0-0.4,0.2-0.6c0.1-0.2,0.4-0.3,0.6-0.3h35.9
		c0.4,0,0.7,0.3,0.7,0.7c0,0.1,0,0.1,0,0.2l-3.4,16.4C-443.2,749.2-443.5,749.4-443.8,749.4z M-473,747.9h28.6l3.1-14.9h-34.1
		L-473,747.9z"/>
	<path d="M-445.2,757.1h-27.2c-0.4,0-0.7-0.3-0.7-0.6l-5.3-30.2h-5.2c-0.4,0-0.8-0.3-0.8-0.8s0.3-0.8,0.8-0.8h5.8
		c0.4,0,0.7,0.3,0.7,0.6l5.3,30.2h26.5c0.4,0,0.8,0.3,0.8,0.8S-444.8,757.1-445.2,757.1z"/>
	<path d="M-467.3,765.2c-2.1,0-3.7-1.7-3.7-3.7s1.7-3.7,3.7-3.7c2.1,0,3.7,1.7,3.7,3.7l0,0C-463.6,763.6-465.3,765.2-467.3,765.2z
		 M-467.3,759.2c-1.2,0-2.2,1-2.2,2.2s1,2.2,2.2,2.2c1.2,0,2.2-1,2.2-2.2l0,0C-465.1,760.2-466.1,759.3-467.3,759.2L-467.3,759.2z"
		/>
	<path d="M-451,765.2c-2.1,0-3.7-1.7-3.7-3.7s1.7-3.7,3.7-3.7c2.1,0,3.7,1.7,3.7,3.7l0,0C-447.3,763.6-448.9,765.2-451,765.2z
		 M-451,759.2c-1.2,0-2.2,1-2.2,2.2s1,2.2,2.2,2.2s2.2-1,2.2-2.2l0,0C-448.8,760.2-449.8,759.3-451,759.2L-451,759.2z"/>
	<path d="M-463,746.3h-0.5c-0.2,0-0.3-0.1-0.3-0.3c0-0.2,0.1-0.3,0.3-0.3h0.5c0.1,0,0.3,0.1,0.3,0.3l0,0
		C-462.7,746.1-462.8,746.3-463,746.3z M-464.5,746.3h-0.5c-0.2,0-0.3-0.1-0.3-0.3c0-0.2,0.1-0.3,0.3-0.3h0.5c0.1,0,0.3,0.1,0.3,0.3
		l0,0C-464.2,746.1-464.4,746.3-464.5,746.3L-464.5,746.3L-464.5,746.3z M-466,746.3h-0.5c-0.2,0-0.3-0.1-0.3-0.3
		c0-0.2,0.1-0.3,0.3-0.3h0.5c0.1,0,0.3,0.1,0.3,0.3l0,0C-465.7,746.1-465.8,746.3-466,746.3z M-467.5,746.3h-0.5
		c-0.2,0-0.3-0.1-0.3-0.3c0-0.2,0.1-0.3,0.3-0.3h0.5c0.1,0,0.3,0.1,0.3,0.3l0,0C-467.2,746.1-467.4,746.3-467.5,746.3L-467.5,746.3
		L-467.5,746.3z M-469,746.3h-0.5c-0.2,0-0.3-0.1-0.3-0.3c0-0.2,0.1-0.3,0.3-0.3h0.5c0.1,0,0.3,0.1,0.3,0.3l0,0
		C-468.7,746.1-468.8,746.3-469,746.3z M-470.5,746h-0.1c-0.2-0.1-0.3-0.2-0.4-0.4c-0.1-0.1-0.1-0.3,0-0.4l0,0
		c0.1-0.1,0.3-0.1,0.4,0s0.2,0.2,0.3,0.3c0.1,0.1,0.2,0.2,0.1,0.4C-470.3,746-470.4,746-470.5,746z M-471.3,744.8
		c-0.1,0-0.3-0.1-0.3-0.2l-0.1-0.5c0-0.1,0.1-0.3,0.2-0.3c0.2,0,0.3,0.1,0.3,0.2l0.1,0.5C-471,744.6-471.1,744.7-471.3,744.8
		L-471.3,744.8z M-471.5,743.3c-0.1,0-0.2-0.1-0.3-0.2l-0.1-0.5c0-0.1,0.1-0.3,0.2-0.3c0.1,0,0.3,0.1,0.3,0.2l0.1,0.5
		C-471.2,743.1-471.3,743.3-471.5,743.3L-471.5,743.3z M-471.8,741.8c-0.1,0-0.2-0.1-0.3-0.2l-0.1-0.5c0-0.1,0.1-0.3,0.2-0.3
		c0.1,0,0.3,0.1,0.3,0.2l0.1,0.5C-471.5,741.7-471.6,741.8-471.8,741.8L-471.8,741.8z M-472,740.3c-0.1,0-0.2-0.1-0.3-0.2l-0.1-0.5
		c0-0.1,0.1-0.3,0.2-0.3l0,0c0.1,0,0.3,0.1,0.3,0.2l0,0l0.1,0.5C-471.7,740.2-471.8,740.3-472,740.3
		C-471.9,740.3-471.9,740.3-472,740.3L-472,740.3z M-472.2,738.9c-0.1,0-0.2-0.1-0.3-0.2l-0.1-0.5c0-0.1,0.1-0.3,0.2-0.3l0,0
		c0.1,0,0.3,0.1,0.3,0.2l0,0l0.1,0.5C-471.9,738.7-472,738.8-472.2,738.9C-472.2,738.8-472.2,738.8-472.2,738.9L-472.2,738.9z
		 M-472.5,737.4c-0.1,0-0.2-0.1-0.3-0.2l-0.1-0.5c0-0.1,0.1-0.3,0.2-0.3l0,0c0.1,0,0.3,0.1,0.3,0.2l0.1,0.5
		C-472.2,737.2-472.3,737.3-472.5,737.4C-472.4,737.4-472.4,737.4-472.5,737.4L-472.5,737.4z"/>
</g>
</svg>
