<?xml version="1.0" encoding="utf-8"?>
<!-- Generator: Adobe Illustrator 19.0.0, SVG Export Plug-In . SVG Version: 6.00 Build 0)  -->
<svg version="1.1" id="Layer_1" xmlns="http://www.w3.org/2000/svg" xmlns:xlink="http://www.w3.org/1999/xlink" x="0px" y="0px"
	 viewBox="-255 347 100 100" style="enable-background:new -255 347 100 100;" xml:space="preserve">
<style type="text/css">
	.st0{fill:#FFFFFF;}
</style>
<g id="Circle">
	<circle class="st0" cx="-205" cy="397" r="50"/>
	<path d="M-205,350c26,0,47,21,47,47s-21,47-47,47s-47-21-47-47S-231,350-205,350 M-205,347c-27.6,0-50,22.4-50,50s22.4,50,50,50
		s50-22.4,50-50S-177.4,347-205,347z"/>
</g>
<g id="Icons">
	<path d="M-186.3,414.7h-37.4c-1.4,0-2.5-1.1-2.5-2.5c0-0.1,0-0.2,0-0.4l3.2-24.9c0.2-1.3,1.2-2.2,2.5-2.2h31c1.3,0,2.3,0.9,2.5,2.2
		l3.2,24.9c0.2,1.4-0.8,2.6-2.1,2.8C-186,414.7-186.1,414.7-186.3,414.7L-186.3,414.7z M-220.5,386.3c-0.5,0-0.9,0.4-1,0.9
		l-3.2,24.9c0,0.3,0,0.6,0.2,0.8c0.2,0.2,0.5,0.3,0.8,0.3h37.4c0.3,0,0.6-0.1,0.8-0.3c0.2-0.2,0.3-0.5,0.2-0.8l-3.2-24.9
		c-0.1-0.5-0.5-0.9-1-0.9H-220.5z"/>
	<path d="M-185.3,408.1h-0.4c-0.2,0-0.3-0.2-0.2-0.3c0-0.1,0.1-0.2,0.2-0.2h0.4c0.2,0,0.3,0.2,0.2,0.3
		C-185.1,408-185.2,408.1-185.3,408.1z M-186.7,408.1h-0.5c-0.2,0-0.3-0.2-0.2-0.3c0-0.1,0.1-0.2,0.2-0.2h0.5c0.2,0,0.3,0.1,0.3,0.2
		s-0.1,0.3-0.2,0.3C-186.6,408.1-186.7,408.1-186.7,408.1z M-188.2,408.1h-0.5c-0.2,0-0.3-0.2-0.2-0.3c0-0.1,0.1-0.2,0.2-0.2h0.5
		c0.2,0,0.3,0.1,0.3,0.2s-0.1,0.3-0.2,0.3C-188.1,408.1-188.2,408.1-188.2,408.1z M-189.7,408.1h-0.5c-0.2,0-0.3-0.2-0.2-0.3
		c0-0.1,0.1-0.2,0.2-0.2h0.5c0.2,0,0.3,0.1,0.3,0.2s-0.1,0.3-0.2,0.3C-189.6,408.1-189.7,408.1-189.7,408.1z M-191.2,408.1h-0.5
		c-0.2,0-0.3-0.2-0.2-0.3c0-0.1,0.1-0.2,0.2-0.2h0.5c0.2,0,0.3,0.1,0.3,0.2s-0.1,0.3-0.2,0.3C-191.1,408.1-191.2,408.1-191.2,408.1z
		 M-192.7,408.1h-0.5c-0.2,0-0.3-0.2-0.2-0.3c0-0.1,0.1-0.2,0.2-0.2h0.5c0.2,0,0.3,0.1,0.3,0.2s-0.1,0.3-0.2,0.3
		C-192.6,408.1-192.7,408.1-192.7,408.1z M-194.2,408.1h-0.5c-0.2,0-0.3-0.2-0.2-0.3c0-0.1,0.1-0.2,0.2-0.2h0.5
		c0.2,0,0.3,0.1,0.3,0.2s-0.1,0.3-0.2,0.3C-194.1,408.1-194.2,408.1-194.2,408.1z M-195.7,408.1h-0.5c-0.2,0-0.3-0.2-0.2-0.3
		c0-0.1,0.1-0.2,0.2-0.2h0.5c0.2,0,0.3,0.1,0.3,0.2s-0.1,0.3-0.2,0.3C-195.6,408.1-195.7,408.1-195.7,408.1z M-197.2,408.1h-0.5
		c-0.2,0-0.3-0.2-0.2-0.3c0-0.1,0.1-0.2,0.2-0.2h0.5c0.2,0,0.3,0.1,0.3,0.2s-0.1,0.3-0.2,0.3C-197.1,408.1-197.2,408.1-197.2,408.1z
		 M-198.7,408.1h-0.5c-0.2,0-0.3-0.2-0.2-0.3c0-0.1,0.1-0.2,0.2-0.2h0.5c0.2,0,0.3,0.1,0.3,0.2s-0.1,0.3-0.2,0.3
		C-198.6,408.1-198.7,408.1-198.7,408.1z M-200.2,408.1h-0.5c-0.2,0-0.3-0.2-0.2-0.3c0-0.1,0.1-0.2,0.2-0.2h0.5
		c0.2,0,0.3,0.1,0.3,0.2s-0.1,0.3-0.2,0.3C-200.1,408.1-200.2,408.1-200.2,408.1z M-201.7,408.1h-0.5c-0.2,0-0.3-0.2-0.2-0.3
		c0-0.1,0.1-0.2,0.2-0.2h0.5c0.2,0,0.3,0.1,0.3,0.2s-0.1,0.3-0.2,0.3C-201.6,408.1-201.7,408.1-201.7,408.1z M-203.2,408.1h-0.5
		c-0.2,0-0.3-0.2-0.2-0.3c0-0.1,0.1-0.2,0.2-0.2h0.5c0.2,0,0.3,0.1,0.3,0.2s-0.1,0.3-0.2,0.3C-203.1,408.1-203.2,408.1-203.2,408.1z
		 M-204.7,408.1h-0.5c-0.2,0-0.3-0.2-0.2-0.3c0-0.1,0.1-0.2,0.2-0.2h0.5c0.2,0,0.3,0.1,0.3,0.2s-0.1,0.3-0.2,0.3
		C-204.6,408.1-204.7,408.1-204.7,408.1z M-206.2,408.1h-0.5c-0.2,0-0.3-0.2-0.2-0.3c0-0.1,0.1-0.2,0.2-0.2h0.5
		c0.2,0,0.3,0.1,0.3,0.2s-0.1,0.3-0.2,0.3C-206.1,408.1-206.2,408.1-206.2,408.1z M-207.7,408.1h-0.5c-0.2,0-0.3-0.2-0.2-0.3
		c0-0.1,0.1-0.2,0.2-0.2h0.5c0.2,0,0.3,0.1,0.3,0.2s-0.1,0.3-0.2,0.3C-207.6,408.1-207.7,408.1-207.7,408.1z M-209.2,408.1h-0.5
		c-0.2,0-0.3-0.2-0.2-0.3c0-0.1,0.1-0.2,0.2-0.2h0.5c0.2,0,0.3,0.1,0.3,0.2s-0.1,0.3-0.2,0.3C-209.1,408.1-209.2,408.1-209.2,408.1z
		 M-210.7,408.1h-0.5c-0.2,0-0.3-0.2-0.2-0.3c0-0.1,0.1-0.2,0.2-0.2h0.5c0.2,0,0.3,0.1,0.3,0.2s-0.1,0.3-0.2,0.3
		C-210.6,408.1-210.7,408.1-210.7,408.1z M-212.2,408.1h-0.5c-0.2,0-0.3-0.2-0.2-0.3c0-0.1,0.1-0.2,0.2-0.2h0.5
		c0.2,0,0.3,0.1,0.3,0.2s-0.1,0.3-0.2,0.3C-212.1,408.1-212.2,408.1-212.2,408.1z M-213.7,408.1h-0.5c-0.2,0-0.3-0.2-0.2-0.3
		c0-0.1,0.1-0.2,0.2-0.2h0.5c0.2,0,0.3,0.1,0.3,0.2s-0.1,0.3-0.2,0.3C-213.6,408.1-213.7,408.1-213.7,408.1z M-215.2,408.1h-0.5
		c-0.2,0-0.3-0.2-0.2-0.3c0-0.1,0.1-0.2,0.2-0.2h0.5c0.2,0,0.3,0.1,0.3,0.2s-0.1,0.3-0.2,0.3C-215.1,408.1-215.2,408.1-215.2,408.1z
		 M-216.7,408.1h-0.5c-0.2,0-0.3-0.2-0.2-0.3c0-0.1,0.1-0.2,0.2-0.2h0.5c0.2,0,0.3,0.1,0.3,0.2s-0.1,0.3-0.2,0.3
		C-216.6,408.1-216.7,408.1-216.7,408.1z M-218.2,408.1h-0.5c-0.2,0-0.3-0.2-0.2-0.3c0-0.1,0.1-0.2,0.2-0.2h0.5
		c0.2,0,0.3,0.1,0.3,0.2s-0.1,0.3-0.2,0.3C-218.1,408.1-218.2,408.1-218.2,408.1z M-219.7,408.1h-0.5c-0.2,0-0.3-0.2-0.2-0.3
		c0-0.1,0.1-0.2,0.2-0.2h0.5c0.2,0,0.3,0.1,0.3,0.2s-0.1,0.3-0.2,0.3C-219.6,408.1-219.7,408.1-219.7,408.1z M-221.2,408.1h-0.5
		c-0.2,0-0.3-0.2-0.2-0.3c0-0.1,0.1-0.2,0.2-0.2h0.5c0.2,0,0.3,0.1,0.3,0.2s-0.1,0.3-0.2,0.3C-221.1,408.1-221.2,408.1-221.2,408.1z
		 M-222.7,408.1h-0.5c-0.2,0-0.3-0.2-0.2-0.3c0-0.1,0.1-0.2,0.2-0.2h0.5c0.2,0,0.3,0.1,0.3,0.2s-0.1,0.3-0.2,0.3
		C-222.6,408.1-222.7,408.1-222.7,408.1z M-224.2,408.1h-0.5c-0.2,0-0.3-0.2-0.2-0.3c0-0.1,0.1-0.2,0.2-0.2h0.5
		c0.2,0,0.3,0.1,0.3,0.2s-0.1,0.3-0.2,0.3C-224.1,408.1-224.2,408.1-224.2,408.1z"/>
	<path d="M-195.4,393.5c-0.4,0-0.8-0.3-0.8-0.8v-9c0-4.9-4-8.9-8.9-8.9c-4.9,0-8.9,4-8.9,8.9v9c0,0.4-0.3,0.8-0.8,0.8
		s-0.8-0.3-0.8-0.8v-9c0-5.7,4.7-10.4,10.4-10.4s10.4,4.7,10.4,10.4v9C-194.6,393.1-194.9,393.5-195.4,393.5
		C-195.3,393.5-195.3,393.5-195.4,393.5z"/>
</g>
</svg>
