<?xml version="1.0" encoding="utf-8"?>
<!-- Generator: Adobe Illustrator 19.0.0, SVG Export Plug-In . SVG Version: 6.00 Build 0)  -->
<svg version="1.1" id="Layer_1" xmlns="http://www.w3.org/2000/svg" xmlns:xlink="http://www.w3.org/1999/xlink" x="0px" y="0px"
	 viewBox="-255 347 100 100" style="enable-background:new -255 347 100 100;" xml:space="preserve">
<style type="text/css">
	.st0{fill:#FFFFFF;}
</style>
<g id="Circle">
	<circle class="st0" cx="-205" cy="397" r="50"/>
	<path d="M-205,350c26,0,47,21,47,47s-21,47-47,47s-47-21-47-47S-231,350-205,350 M-205,347c-27.6,0-50,22.4-50,50s22.4,50,50,50
		s50-22.4,50-50S-177.4,347-205,347z"/>
</g>
<g id="Icons">
	<path d="M-202.7,421.3h-3.1c-1.9,0-3.5-1.6-3.5-3.5v-9.7c-9.6-2.8-15.1-12.8-12.3-22.4c2.8-9.6,12.8-15.1,22.4-12.3
		c9.6,2.8,15.1,12.8,12.3,22.4c-1.7,5.9-6.4,10.6-12.3,12.3v9.7C-199.2,419.7-200.8,421.3-202.7,421.3
		C-202.7,421.3-202.7,421.3-202.7,421.3z M-204.2,374.2c-0.6,0-1.3,0-1.9,0.1c-9.1,1.1-15.6,9.3-14.5,18.4
		c0.8,6.8,5.7,12.4,12.3,14.1c0.3,0.1,0.6,0.4,0.6,0.7v10.3c0,1.1,0.9,2,2,2h3.1c1.1,0,2-0.9,2-2v-10.2c0-0.3,0.2-0.7,0.6-0.7
		c8.9-2.3,14.2-11.3,12-20.1C-190.1,379.3-196.7,374.2-204.2,374.2L-204.2,374.2z"/>
	<circle class="st0" cx="-223.2" cy="393.6" r="5.9"/>
	<path d="M-223.2,400.2c-3.7,0-6.7-3-6.7-6.7s3-6.6,6.7-6.6c3.7,0,6.6,3,6.6,6.6C-216.6,397.3-219.5,400.2-223.2,400.2
		C-223.2,400.2-223.2,400.2-223.2,400.2z M-223.2,388.4c-2.8,0-5.1,2.4-5.1,5.2c0,2.8,2.4,5.1,5.2,5.1c2.8,0,5.1-2.3,5.1-5.1
		C-218,390.7-220.3,388.4-223.2,388.4C-223.2,388.4-223.2,388.4-223.2,388.4z"/>
	<circle class="st0" cx="-223.2" cy="393.6" r="5.9"/>
	<path d="M-223.2,400.2c-3.7,0-6.7-3-6.7-6.7s3-6.6,6.7-6.6c3.7,0,6.6,3,6.6,6.6C-216.6,397.3-219.5,400.2-223.2,400.2
		C-223.2,400.2-223.2,400.2-223.2,400.2z M-223.2,388.4c-2.8,0-5.1,2.4-5.1,5.2c0,2.8,2.4,5.1,5.2,5.1c2.8,0,5.1-2.3,5.1-5.1
		C-218,390.7-220.3,388.4-223.2,388.4C-223.2,388.4-223.2,388.4-223.2,388.4z"/>
	<path d="M-226.2,395.6c-0.1,0-0.2-0.1-0.2-0.1c-0.1-0.2-0.2-0.3-0.2-0.5c0-0.2,0.1-0.3,0.2-0.3c0.1,0,0.2,0,0.3,0.1
		c0.1,0.1,0.1,0.3,0.2,0.4c0.1,0.1,0,0.3-0.1,0.4c0,0,0,0,0,0C-226.2,395.6-226.2,395.6-226.2,395.6z M-226.7,394.2
		c-0.1,0-0.3-0.1-0.3-0.3c0-0.1,0-0.3,0-0.4v-0.2c0-0.1,0.1-0.3,0.3-0.3l0,0c0.1,0,0.3,0.1,0.3,0.3c0,0,0,0,0,0v0.1
		c0,0.1,0,0.2,0,0.3C-226.4,394.1-226.5,394.2-226.7,394.2L-226.7,394.2z M-226.5,392.7L-226.5,392.7c-0.2,0-0.3-0.2-0.3-0.3
		c0,0,0,0,0,0c0.1-0.2,0.1-0.3,0.2-0.5c0.1-0.1,0.2-0.2,0.4-0.1c0.1,0.1,0.2,0.2,0.1,0.3c0,0,0,0,0,0c-0.1,0.1-0.1,0.3-0.2,0.4
		C-226.3,392.7-226.4,392.7-226.5,392.7z M-225.8,391.4c-0.1,0-0.1,0-0.2-0.1c-0.1-0.1-0.1-0.3,0-0.4c0.1-0.1,0.2-0.3,0.4-0.4
		c0.1-0.1,0.3-0.1,0.4,0c0,0,0,0,0,0c0.1,0.1,0.1,0.3,0,0.4c-0.1,0.1-0.2,0.2-0.3,0.3C-225.6,391.4-225.7,391.4-225.8,391.4z
		 M-224.6,390.5c-0.1,0-0.2-0.1-0.3-0.2c-0.1-0.1,0-0.3,0.1-0.4c0,0,0,0,0,0c0.2-0.1,0.3-0.1,0.5-0.2c0.1,0,0.3,0,0.3,0.2
		c0,0,0,0,0,0c0,0.1,0,0.3-0.2,0.4c-0.1,0-0.3,0.1-0.4,0.2C-224.5,390.5-224.6,390.5-224.6,390.5z"/>
	<path d="M-191.9,403h-0.5c-0.2,0-0.3-0.1-0.3-0.2s0.1-0.3,0.2-0.3c0,0,0.1,0,0.1,0h0.5c0.2,0,0.3,0.1,0.3,0.2
		c0,0.2-0.1,0.3-0.2,0.3C-191.8,403-191.8,403-191.9,403z M-193.4,403h-0.5c-0.2,0-0.3-0.1-0.3-0.2s0.1-0.3,0.2-0.3c0,0,0.1,0,0.1,0
		h0.5c0.2,0,0.3,0.1,0.3,0.2c0,0.2-0.1,0.3-0.2,0.3C-193.3,403-193.3,403-193.4,403z M-194.9,403h-0.5c-0.2,0-0.3-0.1-0.3-0.2
		s0.1-0.3,0.2-0.3c0,0,0.1,0,0.1,0h0.5c0.2,0,0.3,0.1,0.3,0.2c0,0.2-0.1,0.3-0.2,0.3C-194.8,403-194.8,403-194.9,403z M-196.4,403
		h-0.5c-0.2,0-0.3-0.1-0.3-0.2s0.1-0.3,0.2-0.3c0,0,0.1,0,0.1,0h0.5c0.2,0,0.3,0.1,0.3,0.2c0,0.2-0.1,0.3-0.2,0.3
		C-196.3,403-196.3,403-196.4,403z M-197.9,403h-0.5c-0.2,0-0.3-0.1-0.3-0.2s0.1-0.3,0.2-0.3c0,0,0.1,0,0.1,0h0.5
		c0.2,0,0.3,0.1,0.3,0.2c0,0.2-0.1,0.3-0.2,0.3C-197.8,403-197.8,403-197.9,403z M-199.4,403h-0.5c-0.2,0-0.3-0.1-0.3-0.2
		s0.1-0.3,0.2-0.3c0,0,0.1,0,0.1,0h0.5c0.2,0,0.3,0.1,0.3,0.2c0,0.2-0.1,0.3-0.2,0.3C-199.3,403-199.3,403-199.4,403z M-200.9,403
		h-0.5c-0.2,0-0.3-0.1-0.3-0.2s0.1-0.3,0.2-0.3c0,0,0.1,0,0.1,0h0.5c0.2,0,0.3,0.1,0.3,0.2c0,0.2-0.1,0.3-0.2,0.3
		C-200.8,403-200.8,403-200.9,403z M-202.4,403h-0.5c-0.2,0-0.3-0.1-0.3-0.2s0.1-0.3,0.2-0.3c0,0,0.1,0,0.1,0h0.5
		c0.2,0,0.3,0.1,0.3,0.2c0,0.2-0.1,0.3-0.2,0.3C-202.3,403-202.3,403-202.4,403z M-203.9,403h-0.5c-0.2,0-0.3-0.1-0.3-0.2
		s0.1-0.3,0.2-0.3c0,0,0.1,0,0.1,0h0.5c0.2,0,0.3,0.1,0.3,0.2c0,0.2-0.1,0.3-0.2,0.3C-203.8,403-203.8,403-203.9,403z M-205.4,403
		h-0.5c-0.2,0-0.3-0.1-0.3-0.2s0.1-0.3,0.2-0.3c0,0,0.1,0,0.1,0h0.5c0.2,0,0.3,0.1,0.3,0.2c0,0.2-0.1,0.3-0.2,0.3
		C-205.3,403-205.3,403-205.4,403z M-206.9,403h-0.5c-0.2,0-0.3-0.1-0.3-0.2s0.1-0.3,0.2-0.3c0,0,0.1,0,0.1,0h0.5
		c0.2,0,0.3,0.1,0.3,0.2c0,0.2-0.1,0.3-0.2,0.3C-206.8,403-206.8,403-206.9,403z M-208.4,403h-0.5c-0.2,0-0.3-0.1-0.3-0.2
		s0.1-0.3,0.2-0.3c0,0,0.1,0,0.1,0h0.5c0.2,0,0.3,0.1,0.3,0.2c0,0.2-0.1,0.3-0.2,0.3C-208.3,403-208.3,403-208.4,403z M-209.9,403
		h-0.5c-0.2,0-0.3-0.1-0.3-0.2s0.1-0.3,0.2-0.3c0,0,0.1,0,0.1,0h0.5c0.2,0,0.3,0.1,0.3,0.2c0,0.2-0.1,0.3-0.2,0.3
		C-209.8,403-209.8,403-209.9,403z M-211.4,403h-0.5c-0.2,0-0.3-0.1-0.3-0.2s0.1-0.3,0.2-0.3c0,0,0.1,0,0.1,0h0.5
		c0.2,0,0.3,0.1,0.3,0.2c0,0.2-0.1,0.3-0.2,0.3C-211.3,403-211.3,403-211.4,403z M-212.9,403h-0.5c-0.2,0-0.3-0.1-0.3-0.2
		s0.1-0.3,0.2-0.3c0,0,0.1,0,0.1,0h0.5c0.2,0,0.3,0.1,0.3,0.2c0,0.2-0.1,0.3-0.2,0.3C-212.8,403-212.8,403-212.9,403z M-214.4,403
		h-0.5c-0.2,0-0.3-0.1-0.3-0.2s0.1-0.3,0.2-0.3c0,0,0.1,0,0.1,0h0.5c0.2,0,0.3,0.1,0.3,0.2c0,0.2-0.1,0.3-0.2,0.3
		C-214.3,403-214.3,403-214.4,403z M-215.9,403h-0.5c-0.2,0-0.3-0.1-0.3-0.2s0.1-0.3,0.2-0.3c0,0,0.1,0,0.1,0h0.5
		c0.2,0,0.3,0.1,0.3,0.2c0,0.2-0.1,0.3-0.2,0.3C-215.8,403-215.8,403-215.9,403z"/>
</g>
</svg>
