<?xml version="1.0" encoding="utf-8"?>
<!-- Generator: Adobe Illustrator 19.0.0, SVG Export Plug-In . SVG Version: 6.00 Build 0)  -->
<svg version="1.1" id="Layer_1" xmlns="http://www.w3.org/2000/svg" xmlns:xlink="http://www.w3.org/1999/xlink" x="0px" y="0px"
	 viewBox="-255 347 100 100" style="enable-background:new -255 347 100 100;" xml:space="preserve">
<style type="text/css">
	.st0{fill:#FFFFFF;}
</style>
<g id="Circle">
	<circle class="st0" cx="-205" cy="397" r="50"/>
	<path d="M-205,350c26,0,47,21,47,47s-21,47-47,47s-47-21-47-47S-231,350-205,350 M-205,347c-27.6,0-50,22.4-50,50s22.4,50,50,50
		s50-22.4,50-50S-177.4,347-205,347z"/>
</g>
<g id="Icons">
	<path d="M-205,413.2c-5,0-9.8-1.7-13.6-4.8c-0.6-0.4-0.9-1.1-0.9-1.9v-16.2h29v16.2c0,0.7-0.3,1.4-0.9,1.9l-0.4,0.3
		C-195.6,411.6-200.2,413.1-205,413.2z M-218,391.7v14.7c0,0.3,0.1,0.5,0.3,0.7c7.2,5.9,17.6,6,25,0.3l0.4-0.3
		c0.2-0.2,0.3-0.4,0.4-0.7v-14.7H-218z"/>
	<path class="st0" d="M-207.3,399.4l-21.9-8.2c-0.1,0-0.1-0.1-0.1-0.2c0,0,0,0,0.1-0.1l22.3-9c1.3-0.5,2.7-0.5,4,0l22.2,9
		c0.1,0,0.1,0.1,0.1,0.2c0,0,0,0-0.1,0.1l-21.9,8.2C-204.2,400-205.8,400-207.3,399.4z"/>
	<path d="M-205,400.6c-0.9,0-1.8-0.2-2.6-0.5l-21.9-8.2c-0.3-0.1-0.6-0.4-0.6-0.8c0-0.4,0.2-0.7,0.5-0.8l22.2-9
		c1.5-0.6,3.2-0.6,4.7,0l22.2,9c0.3,0.1,0.5,0.5,0.5,0.8c0,0.4-0.2,0.7-0.6,0.8l-21.9,8.2C-203.2,400.4-204.1,400.6-205,400.6z
		 M-227.5,391l20.5,7.7c1.3,0.5,2.8,0.5,4.1,0l20.4-7.7l-20.8-8.3c-1.1-0.5-2.4-0.5-3.5,0L-227.5,391z"/>
	<path d="M-184.9,400.3c-0.2,0-0.3-0.1-0.3-0.3v-0.5c0-0.2,0.1-0.3,0.3-0.3c0.2,0,0.3,0.1,0.3,0.3v0.5
		C-184.6,400.2-184.7,400.3-184.9,400.3z M-184.9,398.8c-0.2,0-0.3-0.1-0.3-0.3v-0.5c0-0.2,0.1-0.3,0.3-0.3c0.2,0,0.3,0.1,0.3,0.3
		v0.5C-184.6,398.7-184.7,398.8-184.9,398.8z M-185.5,397.8c0,0-0.1,0-0.1,0l-0.5-0.2c-0.2,0-0.2-0.2-0.2-0.3c0-0.2,0.2-0.2,0.3-0.2
		c0,0,0.1,0,0.1,0l0.5,0.2c0.1,0.1,0.2,0.2,0.1,0.4C-185.3,397.7-185.4,397.8-185.5,397.8z M-186.9,397.2c0,0-0.1,0-0.1,0l-0.5-0.2
		c-0.1-0.1-0.2-0.2-0.1-0.4c0,0,0,0,0,0c0.1-0.1,0.2-0.2,0.4-0.2l0.5,0.2c0.1,0.1,0.2,0.2,0.2,0.4
		C-186.7,397.1-186.8,397.2-186.9,397.2z M-188.3,396.6h-0.1l-0.5-0.2c-0.1,0-0.2-0.2-0.2-0.3c0,0,0-0.1,0-0.1
		c0.1-0.1,0.2-0.2,0.4-0.1l0.5,0.2c0.1,0.1,0.2,0.2,0.1,0.4C-188.1,396.5-188.2,396.6-188.3,396.6z M-189.7,396L-189.7,396l-0.6-0.2
		c-0.1-0.1-0.2-0.3-0.1-0.4c0.1-0.1,0.2-0.1,0.3-0.1l0.5,0.2c0.1,0.1,0.2,0.2,0.1,0.4C-189.5,395.9-189.6,396-189.7,396z
		 M-191,395.5c0,0-0.1,0-0.1,0l-0.5-0.2c-0.1-0.1-0.2-0.2-0.1-0.4c0.1-0.1,0.2-0.2,0.4-0.1l0.5,0.2c0.1,0.1,0.2,0.2,0.1,0.4
		C-190.8,395.4-190.9,395.5-191,395.5z M-192.4,394.9L-192.4,394.9l-0.6-0.2c-0.1-0.1-0.2-0.2-0.2-0.4c0.1-0.1,0.2-0.2,0.4-0.1
		c0,0,0,0,0,0l0.5,0.2c0.1,0.1,0.2,0.2,0.1,0.4C-192.2,394.9-192.3,394.9-192.4,394.9L-192.4,394.9z M-193.8,394.3h-0.1l-0.5-0.2
		c-0.1-0.1-0.2-0.2-0.2-0.4c0.1-0.1,0.2-0.2,0.4-0.2l0.5,0.2c0.1,0.1,0.2,0.2,0.1,0.4c0,0,0,0,0,0
		C-193.6,394.3-193.7,394.3-193.8,394.3L-193.8,394.3z M-195.1,393.7h-0.1l-0.5-0.2c-0.2,0-0.2-0.2-0.2-0.3c0-0.2,0.2-0.2,0.3-0.2
		c0,0,0.1,0,0.1,0l0.5,0.2c0.1,0.1,0.2,0.2,0.2,0.4C-195,393.7-195.1,393.8-195.1,393.7L-195.1,393.7z M-196.5,393.1
		C-196.6,393.2-196.6,393.2-196.5,393.1l-0.6-0.2c-0.1-0.1-0.2-0.2-0.1-0.4c0,0,0,0,0,0c0.1-0.1,0.2-0.2,0.4-0.2l0.5,0.2
		c0.1,0.1,0.2,0.2,0.1,0.4C-196.3,393.1-196.5,393.2-196.5,393.1L-196.5,393.1z M-198,392.6h-0.1l-0.5-0.2c-0.1-0.1-0.2-0.2-0.1-0.4
		c0.1-0.1,0.2-0.2,0.4-0.1c0,0,0,0,0,0l0.5,0.2c0.1,0.1,0.2,0.2,0.1,0.4C-197.8,392.5-197.9,392.6-198,392.6z M-199.4,392
		L-199.4,392l-0.6-0.2c-0.1-0.1-0.2-0.2-0.1-0.4c0,0,0,0,0,0c0.1-0.1,0.2-0.2,0.4-0.2l0.5,0.2c0.1,0.1,0.2,0.2,0.1,0.4
		C-199.2,391.9-199.3,392-199.4,392z M-200.7,391.4c0,0-0.1,0-0.1,0l-0.5-0.2c-0.1-0.1-0.2-0.3-0.1-0.4c0.1-0.1,0.2-0.1,0.3-0.1
		l0.5,0.2c0.1,0.1,0.2,0.2,0.1,0.4C-200.5,391.4-200.6,391.4-200.7,391.4z M-202.1,390.8C-202.2,390.8-202.2,390.8-202.1,390.8
		l-0.6-0.2c-0.1-0.1-0.2-0.2-0.1-0.4c0.1-0.1,0.2-0.2,0.4-0.2l0.5,0.2c0.1,0.1,0.2,0.2,0.2,0.3c0,0,0,0,0,0
		C-201.9,390.8-202,390.8-202.1,390.8z M-203.5,390.3h-0.1l-0.5-0.2c-0.1-0.1-0.2-0.2-0.1-0.4c0.1-0.1,0.2-0.2,0.4-0.1l0,0l0.5,0.2
		c0.1,0.1,0.2,0.2,0.1,0.4C-203.3,390.2-203.4,390.3-203.5,390.3z"/>
	<path d="M-182.4,409.9h-0.5c-0.2,0-0.3-0.2-0.2-0.3c0-0.1,0.1-0.2,0.2-0.2h0.5c0.2,0,0.3,0.1,0.3,0.2s-0.1,0.3-0.2,0.3
		C-182.4,409.9-182.4,409.9-182.4,409.9z M-183.9,409.9h-0.5c-0.2,0-0.3-0.2-0.2-0.3c0-0.1,0.1-0.2,0.2-0.2h0.5
		c0.2,0,0.3,0.1,0.3,0.2s-0.1,0.3-0.2,0.3C-183.9,409.9-183.9,409.9-183.9,409.9z M-185.4,409.9h-0.5c-0.2,0-0.3-0.2-0.2-0.3
		c0-0.1,0.1-0.2,0.2-0.2h0.5c0.2,0,0.3,0.1,0.3,0.2s-0.1,0.3-0.2,0.3C-185.4,409.9-185.4,409.9-185.4,409.9z M-186.9,409.9h-0.5
		c-0.1,0-0.3-0.1-0.3-0.3c0,0,0,0,0,0c0-0.1,0.2-0.3,0.3-0.3h0.5c0.2,0,0.3,0.1,0.3,0.2c0,0.2-0.1,0.3-0.2,0.3
		C-186.9,409.9-186.9,409.9-186.9,409.9L-186.9,409.9z M-181.6,409.4c0,0-0.1,0-0.1,0c-0.1,0-0.2-0.2-0.2-0.3c0,0,0-0.1,0-0.1
		c0-0.1,0-0.1,0-0.2c0,0,0-0.1,0-0.1c0-0.1,0.1-0.3,0.2-0.3c0.1,0,0.3,0.1,0.3,0.2c0,0.1,0,0.2,0,0.2c0,0.1,0,0.3-0.1,0.4
		C-181.5,409.3-181.6,409.4-181.6,409.4z M-188.2,409.3c-0.1,0-0.2-0.1-0.3-0.2c0-0.1,0-0.2,0-0.3c0-0.1,0-0.2,0-0.3h0.3l0.3,0.1
		l0,0c0,0,0,0.1,0,0.1c0,0,0,0.1,0,0.1C-187.9,409-187.9,409.2-188.2,409.3L-188.2,409.3z M-181.9,408c-0.1,0-0.2-0.1-0.3-0.2
		l-0.2-0.5c0-0.1,0-0.3,0.2-0.4c0.1,0,0.3,0,0.4,0.2l0.2,0.5c0.1,0.1,0,0.3-0.2,0.3C-181.8,408-181.8,408-181.9,408L-181.9,408z
		 M-187.8,407.9h-0.1c-0.1-0.1-0.2-0.2-0.2-0.3c0,0,0,0,0,0l0.2-0.5c0.1-0.1,0.2-0.2,0.3-0.2c0,0,0,0,0,0c0.1,0.1,0.2,0.2,0.2,0.4
		l-0.2,0.5C-187.6,407.8-187.7,407.9-187.8,407.9L-187.8,407.9z M-182.5,406.6c-0.1,0-0.2-0.1-0.3-0.2l-0.2-0.5
		c-0.1-0.1,0-0.3,0.2-0.3c0,0,0,0,0,0c0.1-0.1,0.3,0,0.3,0.2c0,0,0,0,0,0l0.2,0.5C-182.2,406.4-182.2,406.5-182.5,406.6
		C-182.4,406.6-182.4,406.6-182.5,406.6C-182.4,406.6-182.4,406.6-182.5,406.6L-182.5,406.6z M-187.2,406.5c0,0-0.1,0-0.1,0
		c-0.1,0-0.2-0.2-0.2-0.3c0,0,0,0,0,0l0.2-0.5c0.1-0.1,0.2-0.2,0.4-0.2c0.1,0.1,0.2,0.2,0.2,0.4l-0.2,0.5
		C-187,406.4-187.1,406.5-187.2,406.5L-187.2,406.5z M-183,405.2c-0.1,0-0.2-0.1-0.3-0.2l-0.2-0.5c0-0.1,0-0.3,0.2-0.4
		c0.1-0.1,0.3,0,0.4,0.2c0,0,0,0,0,0l0.2,0.5c0.1,0.1,0,0.3-0.2,0.4L-183,405.2z M-186.7,405.1h-0.1c-0.1-0.1-0.2-0.2-0.2-0.4
		l0.2-0.5c0.1-0.1,0.2-0.2,0.3-0.2c0,0,0,0,0,0c0.1,0,0.2,0.2,0.2,0.3c0,0,0,0,0,0l-0.2,0.5C-186.5,405-186.6,405.1-186.7,405.1z
		 M-183.5,403.8c-0.1,0-0.2-0.1-0.3-0.2l-0.2-0.5c-0.1-0.1,0-0.3,0.2-0.3c0,0,0,0,0,0c0.1-0.1,0.3,0,0.3,0.2c0,0,0,0,0,0l0.2,0.5
		c0.1,0.1,0,0.3-0.2,0.3C-183.4,403.7-183.4,403.7-183.5,403.8L-183.5,403.8z M-186.1,403.7h-0.1c-0.1-0.1-0.2-0.2-0.2-0.4l0.2-0.5
		c0.1-0.1,0.2-0.2,0.4-0.1c0.1,0.1,0.2,0.2,0.1,0.3l-0.2,0.5C-185.9,403.6-186,403.7-186.1,403.7z M-184,402.4
		c-0.1,0-0.2-0.1-0.3-0.2l-0.2-0.5c-0.1-0.1,0-0.3,0.2-0.4c0,0,0,0,0,0c0.1-0.1,0.3,0,0.3,0.2c0,0,0,0,0,0l0.2,0.5
		C-183.7,402.1-183.8,402.3-184,402.4L-184,402.4z M-185.6,402.3L-185.6,402.3c-0.2-0.1-0.3-0.2-0.3-0.4l0.2-0.4
		c0.1-0.1,0.2-0.2,0.4-0.1c0,0,0,0,0,0c0.1,0,0.2,0.2,0.1,0.3c0,0,0,0,0,0l0,0l-0.2,0.4C-185.3,402.2-185.5,402.3-185.6,402.3
		L-185.6,402.3z M-184.6,401c-0.1,0-0.1,0-0.2-0.1c-0.1,0.1-0.2,0.1-0.3,0c-0.1-0.1-0.2-0.2-0.1-0.4c0,0,0,0,0,0l0.2-0.4
		c0-0.1,0.2-0.2,0.3-0.1c0.1,0,0.2,0.1,0.2,0.2l0.2,0.4C-184.3,400.7-184.3,400.9-184.6,401C-184.5,400.9-184.5,400.9-184.6,401
		L-184.6,401z"/>
	<ellipse class="st0" cx="-184.9" cy="401.4" rx="2" ry="2.1"/>
	<path d="M-184.9,403.8h-0.3c-0.1,0-0.3-0.2-0.2-0.3c0,0,0,0,0,0c0-0.1,0.1-0.3,0.3-0.2c0,0,0,0,0,0c0.1,0,0.3,0,0.4,0
		c0.1,0,0.3,0.1,0.3,0.2c0,0,0,0,0,0c0,0.1-0.1,0.3-0.2,0.3c0,0,0,0,0,0L-184.9,403.8z M-183.8,403.4c-0.1,0-0.2,0-0.2-0.1
		c-0.1-0.1-0.1-0.3,0.1-0.4c0.1-0.1,0.2-0.2,0.3-0.3c0.1-0.1,0.3-0.1,0.4,0c0.1,0.1,0.1,0.3,0,0.4c0,0,0,0,0,0
		c-0.1,0.1-0.3,0.3-0.4,0.4C-183.7,403.4-183.7,403.4-183.8,403.4z M-186.1,403.4c-0.1,0-0.1,0-0.2-0.1c-0.2-0.1-0.3-0.2-0.4-0.4
		c-0.1-0.1-0.1-0.3,0-0.4c0.1-0.1,0.3-0.1,0.4,0c0,0,0,0,0,0c0.1,0.1,0.2,0.2,0.3,0.3c0.1,0.1,0.1,0.3,0.1,0.4
		C-185.9,403.4-186,403.4-186.1,403.4L-186.1,403.4z M-183,402.2L-183,402.2c-0.1,0-0.2-0.2-0.2-0.3c0-0.1,0-0.3,0-0.4
		c0-0.1,0-0.2,0.1-0.2c-0.1,0-0.1-0.1-0.1-0.2c0-0.1-0.1-0.3-0.1-0.4c-0.1-0.1,0-0.3,0.1-0.4c0,0,0,0,0,0c0.1-0.1,0.3,0,0.4,0.1
		c0.1,0.2,0.1,0.4,0.2,0.5c-0.1,0.1-0.1,0.3,0,0.5c0,0,0,0,0,0c0,0.2,0,0.4-0.1,0.5C-182.8,402.1-182.9,402.2-183,402.2z
		 M-186.9,402.2c-0.1,0-0.2-0.1-0.3-0.2c0-0.2,0-0.3,0-0.5c0-0.2,0.1-0.3,0.3-0.3c0,0,0,0,0,0c0.1,0,0.3,0.1,0.3,0.3c0,0,0,0,0,0
		c0,0.1,0,0.3,0,0.4C-186.6,402-186.7,402.2-186.9,402.2L-186.9,402.2z M-186.7,400.7c0,0-0.1,0-0.1,0c-0.1-0.1-0.2-0.2-0.1-0.4
		c0,0,0,0,0,0c0.1-0.2,0.2-0.3,0.3-0.5c0.1-0.1,0.3-0.1,0.4,0c0.1,0.1,0.1,0.3,0,0.4c-0.1,0.1-0.2,0.2-0.2,0.4
		C-186.5,400.7-186.6,400.7-186.7,400.7L-186.7,400.7z M-183.7,400c-0.1,0-0.1,0-0.2-0.1c-0.1-0.1-0.2-0.2-0.4-0.2
		c-0.1-0.1-0.2-0.2-0.1-0.4s0.2-0.2,0.4-0.1l0,0c0.2,0.1,0.3,0.2,0.5,0.3c0.1,0.1,0.1,0.3,0.1,0.4c0,0,0,0,0,0
		C-183.5,400-183.6,400-183.7,400L-183.7,400z M-185.6,399.7c-0.2,0-0.3-0.1-0.3-0.3c0-0.1,0.1-0.2,0.2-0.3c0.2-0.1,0.4-0.1,0.6-0.1
		c0.1,0,0.3,0.1,0.3,0.2c0,0.2-0.1,0.3-0.3,0.3C-185.2,399.6-185.3,399.7-185.6,399.7L-185.6,399.7z"/>
</g>
</svg>
