<?xml version="1.0" encoding="utf-8"?>
<!-- Generator: Adobe Illustrator 19.0.0, SVG Export Plug-In . SVG Version: 6.00 Build 0)  -->
<svg version="1.1" id="Layer_1" xmlns="http://www.w3.org/2000/svg" xmlns:xlink="http://www.w3.org/1999/xlink" x="0px" y="0px"
	 viewBox="-255 347 100 100" style="enable-background:new -255 347 100 100;" xml:space="preserve">
<style type="text/css">
	.st0{fill:#FFFFFF;}
</style>
<g id="Circle">
	<circle class="st0" cx="-205" cy="397" r="50"/>
	<path d="M-205,350c26,0,47,21,47,47s-21,47-47,47s-47-21-47-47S-231,350-205,350 M-205,347c-27.6,0-50,22.4-50,50s22.4,50,50,50
		s50-22.4,50-50S-177.4,347-205,347z"/>
</g>
<g id="Icons">
	<path d="M-209.9,389C-209.9,389-210,389-209.9,389c-0.2-0.1-0.3-0.2-0.2-0.4c0.1-0.1,0.2-0.3,0.2-0.4c0.1-0.1,0.2-0.2,0.4-0.1
		c0.1,0.1,0.2,0.2,0.1,0.4c-0.1,0.2-0.2,0.3-0.3,0.5C-209.7,389-209.8,389-209.9,389z M-209.3,387.6L-209.3,387.6
		c-0.2,0-0.3-0.2-0.3-0.3c0-0.1,0.1-0.3,0.1-0.5c0-0.1,0.2-0.2,0.3-0.2c0,0,0,0,0,0c0.2,0,0.3,0.2,0.2,0.3c0,0,0,0,0,0
		c0,0.2-0.1,0.3-0.1,0.5C-209.1,387.5-209.2,387.6-209.3,387.6L-209.3,387.6z M-209.1,386.1L-209.1,386.1c-0.2,0-0.3-0.1-0.3-0.3
		c0,0,0,0,0,0c0-0.2,0-0.3,0-0.5c0-0.2,0.1-0.3,0.3-0.3l0,0c0.1,0,0.3,0.1,0.3,0.3c0,0,0,0,0,0c0,0.2,0,0.3,0,0.5
		C-208.8,386-208.9,386.2-209.1,386.1C-209.1,386.2-209.1,386.2-209.1,386.1L-209.1,386.1z M-209.1,384.6c-0.1,0-0.3-0.1-0.3-0.3
		c0-0.2,0-0.3,0-0.5c0-0.2,0.1-0.3,0.2-0.3c0.1,0,0.3,0.1,0.3,0.2c0,0,0,0,0,0l0.1,0.5C-208.7,384.5-208.9,384.6-209.1,384.6
		C-209,384.6-209,384.6-209.1,384.6L-209.1,384.6z M-209.3,383.1c-0.1,0-0.2-0.1-0.3-0.2c0-0.2-0.1-0.3-0.1-0.5
		c0-0.1,0.1-0.3,0.2-0.3c0.1,0,0.3,0.1,0.3,0.2l0.1,0.5C-209,383-209.1,383.1-209.3,383.1C-209.2,383.1-209.2,383.1-209.3,383.1
		L-209.3,383.1z M-209.7,381.7c-0.1,0-0.2-0.1-0.3-0.2c-0.1-0.2-0.1-0.3-0.2-0.5c-0.1-0.1,0-0.3,0.1-0.4c0.1-0.1,0.3,0,0.4,0.1
		c0,0,0,0,0,0.1l0.2,0.5C-209.4,381.5-209.5,381.6-209.7,381.7C-209.6,381.7-209.6,381.7-209.7,381.7L-209.7,381.7z M-210.3,380.3
		c-0.1,0-0.2-0.1-0.3-0.2c-0.1-0.1-0.1-0.3-0.2-0.4c-0.1-0.1,0-0.3,0.1-0.4c0.1-0.1,0.3,0,0.4,0.1c0,0,0,0,0,0
		c0.1,0.1,0.2,0.3,0.2,0.5c0.1,0.1,0,0.3-0.1,0.4L-210.3,380.3z M-211,379c-0.1,0-0.2,0-0.2-0.1l-0.3-0.4c-0.1-0.1-0.1-0.3,0-0.4
		c0,0,0,0,0,0c0.1-0.1,0.3-0.1,0.4,0c0,0,0,0,0,0l0.3,0.4c0.1,0.1,0.1,0.3-0.1,0.4C-210.9,378.9-211,379-211,379z M-212,377.9
		c-0.1,0-0.1,0-0.2-0.1c-0.1-0.1-0.2-0.2-0.4-0.3c-0.1-0.1-0.1-0.3,0-0.4c0.1-0.1,0.2-0.1,0.3,0c0.1,0.1,0.3,0.2,0.4,0.4
		c0.1,0.1,0.1,0.3,0,0.4C-211.9,377.8-211.9,377.9-212,377.9L-212,377.9z"/>
	<g id="g1854">
		<path d="M-207.5,391.1c1.2-1.8,1.8-4,1.7-6.2c0.1-2.8-0.7-5.5-2.1-7.9c-1.2-2-3.3-3.3-5.6-3.4c-2.3,0.1-4.5,1.4-5.6,3.4
			c-1.5,2.4-2.2,5.1-2.2,7.9c-0.1,2.2,0.5,4.3,1.7,6.2c0.9,1.3,2.2,2.2,3.7,2.6l0,0l-0.7,24c0,0.7,0.3,1.4,0.8,1.9
			c0.6,0.6,1.4,1,2.3,1c0.9,0,1.7-0.4,2.3-1c0.5-0.5,0.8-1.2,0.8-1.9l-0.7-24h0.1C-209.8,393.2-208.4,392.3-207.5,391.1z
			 M-212.1,392.5c-0.2,0-0.3,0.1-0.4,0.2c0,0,0,0-0.1,0l0,0l0,0c-0.1,0.1-0.1,0.3-0.1,0.5l0.7,24.4c0,0.4-0.1,0.7-0.4,1
			c-0.7,0.7-1.8,0.7-2.5,0c-0.3-0.3-0.4-0.6-0.4-1l0.8-24.4c0-0.3-0.2-0.6-0.6-0.7c-1.4-0.3-2.6-1.1-3.4-2.2c-1-1.6-1.5-3.5-1.4-5.4
			c0-2.5,0.6-5,1.9-7.2c0.9-1.6,2.5-2.6,4.4-2.8c1.8,0.1,3.5,1.2,4.4,2.8c1.3,2.1,2,4.6,2,7.2c0.1,1.9-0.4,3.8-1.4,5.4
			C-209.5,391.5-210.7,392.3-212.1,392.5z"/>
		<path d="M-199.5,373.5L-199.5,373.5L-199.5,373.5c-0.4,0.1-0.7,0.3-0.7,0.7l-0.8,14.7c0,2.2,1.7,4,3.8,4.2h0.1v0.1l-0.8,24.4
			c0,0.7,0.3,1.4,0.8,1.9c1.3,1.3,3.3,1.3,4.6,0c0,0,0,0,0,0c0.5-0.5,0.8-1.2,0.8-1.9l-0.8-24.4h0.1c2.2-0.2,3.8-2,3.8-4.2
			l-0.8-14.7c0-0.4-0.3-0.7-0.7-0.7l0,0c-0.2,0-0.4,0.1-0.5,0.2c-0.1,0.1-0.2,0.3-0.2,0.5l0,0l0.8,14.7c0,0.7-0.2,1.4-0.7,2
			c-0.6,0.7-1.5,1-2.5,1l0,0c-0.4,0-0.7,0.3-0.7,0.7c0,0,0,0,0,0l0,0l0.8,25c0,0.4-0.1,0.7-0.4,1c-0.7,0.7-1.8,0.7-2.5,0
			c-0.3-0.3-0.4-0.6-0.4-1l0.8-25c0-0.2-0.1-0.3-0.2-0.5c-0.1-0.1-0.3-0.2-0.5-0.2l0,0c-0.9,0-1.8-0.3-2.4-1
			c-0.5-0.5-0.8-1.2-0.8-1.9l0.8-14.7c0-0.2,0-0.3-0.2-0.5C-199.1,373.7-199.3,373.6-199.5,373.5L-199.5,373.5L-199.5,373.5
			L-199.5,373.5z"/>
		<path d="M-193.9,374.2v13.7c0,0.1,0,0.2,0.1,0.3c0.1,0.1,0.3,0.2,0.5,0.2l0,0c0.3,0,0.6-0.2,0.6-0.5v-13.7c0-0.1,0-0.2-0.1-0.3
			c-0.1-0.1-0.3-0.2-0.5-0.2l0,0c-0.2,0-0.4,0.1-0.5,0.2C-193.8,373.9-193.9,374-193.9,374.2z"/>
		<path d="M-197,374.2v13.7c0,0.1,0,0.2,0.1,0.3c0.1,0.1,0.3,0.2,0.5,0.2l0,0c0.3,0,0.6-0.2,0.6-0.5v-13.7c0-0.1,0-0.2-0.1-0.3
			c-0.1-0.1-0.3-0.2-0.5-0.2l0,0c-0.2,0-0.4,0.1-0.5,0.2C-196.9,373.9-197,374-197,374.2z"/>
	</g>
</g>
</svg>
