<?xml version="1.0" encoding="utf-8"?>
<!-- Generator: Adobe Illustrator 23.0.1, SVG Export Plug-In . SVG Version: 6.00 Build 0)  -->
<svg version="1.1" id="Layer_1" xmlns="http://www.w3.org/2000/svg" xmlns:xlink="http://www.w3.org/1999/xlink" x="0px" y="0px"
	 viewBox="0 0 60.3 60.3" style="enable-background:new 0 0 60.3 60.3;" xml:space="preserve">
<style type="text/css">
	.st0{fill-rule:evenodd;clip-rule:evenodd;}
	.st1{fill-rule:evenodd;clip-rule:evenodd;fill:#FEFEFE;}
</style>
<title>Group 5</title>
<g id="Page-1">
	<g id="Interactive-Touch-Screen-Map" transform="translate(-1156.000000, -463.000000)">
		<g id="Group-5" transform="translate(1156.352113, 463.957746)">
			<path id="Fill-1" class="st0" d="M29.8,59.4C46.5,59.4,60,45.9,60,29.2S46.5-1,29.8-1S-0.4,12.6-0.4,29.2S13.2,59.4,29.8,59.4"/>
			<path id="Fill-3" class="st1" d="M32.1,17h-4.6l-8.9,24h3.6l2.2-6.3h10.4l2.2,6.3h3.8L32.1,17z M25.6,31.6l2.3-6.5
				c0.7-2.1,1-3.5,1.1-5.6h1.4c0,2.1,0.4,3.4,1.1,5.6l2.3,6.5H25.6z"/>
		</g>
	</g>
</g>
</svg>
