<?xml version="1.0" encoding="utf-8"?>
<!-- Generator: Adobe Illustrator 19.0.0, SVG Export Plug-In . SVG Version: 6.00 Build 0)  -->
<svg version="1.1" id="Layer_1" xmlns="http://www.w3.org/2000/svg" xmlns:xlink="http://www.w3.org/1999/xlink" x="0px" y="0px"
	 viewBox="-255 388 101 18" style="enable-background:new -255 388 101 18;" xml:space="preserve">
<style type="text/css">
	.st0{fill:#FFFFFF;}
</style>
<title>Group 2</title>
<g id="Page-1">
	<g id="Interactive-Touch-Screen-Map" transform="translate(-258.000000, -970.000000)">
		<g id="Group-2" transform="translate(258.000000, 970.000000)">
			<path id="Fill-15" class="st0" d="M-237,404.5c0,0.3-0.1,0.5-0.3,0.5h-17.3c-0.2,0-0.3-0.2-0.3-0.5c0-0.3,0.1-0.5,0.3-0.5h17.3
				C-237.1,404-237,404.2-237,404.5"/>
			<path id="Fill-16" class="st0" d="M-237,403c0,0.1-0.1,0.2-0.2,0.2h-16.6c-0.1,0-0.2-0.1-0.2-0.2c0-0.1,0.1-0.2,0.2-0.2h16.6
				C-237.1,402.8-237,402.9-237,403"/>
			<path id="Fill-17" class="st0" d="M-239.5,392.2h-13c-0.1,0-0.2-0.1-0.2-0.2c0-0.1,0.1-0.2,0.2-0.2l0,0c1-0.3,6.5-2.4,6.5-2.4
				s5.6,2,6.5,2.4l0,0c0.1,0,0.2,0.1,0.2,0.2C-239.3,392.1-239.4,392.2-239.5,392.2z M-240.8,393.4
				C-240.8,393.4-240.8,393.5-240.8,393.4C-240.8,393.5-240.8,393.5-240.8,393.4L-240.8,393.4c0.2,0.1,0.2,0.1,0.2,0.2
				c0,0,0,0,0,0.1l0,0.1c0,0,0,0,0,0l0,0.1v8.5h-2.2v-8.5l0-0.1c0,0,0,0,0,0v-0.1c0,0,0,0,0-0.1c0-0.1,0.1-0.1,0.1-0.2l0,0
				c0,0,0,0,0,0c0,0,0,0,0.1,0c0.1,0,0.1-0.1,0.1-0.2c0-0.1-0.1-0.2-0.2-0.2l0,0c-0.1,0-0.2-0.1-0.2-0.2c0-0.1,0.1-0.2,0.2-0.2
				l0.2,0h1.4l0.2,0h0c0.1,0,0.2,0.1,0.2,0.2c0,0.1-0.1,0.1-0.2,0.2l0,0c-0.1,0-0.2,0.1-0.2,0.2C-241,393.3-240.9,393.4-240.8,393.4
				z M-245.2,393.4C-245.2,393.4-245.2,393.4-245.2,393.4C-245.2,393.5-245.2,393.5-245.2,393.4L-245.2,393.4
				c0.2,0.1,0.2,0.1,0.2,0.2c0,0,0,0,0,0.1l0,0.1c0,0,0,0,0,0v8.6h-2.2v-8.5l0-0.1c0,0,0,0,0,0v-0.1c0,0,0,0,0-0.1
				c0-0.1,0.1-0.1,0.1-0.2l0,0c0,0,0,0,0,0c0,0,0,0,0.1,0c0.1,0,0.1-0.1,0.1-0.2c0-0.1-0.1-0.2-0.2-0.2l0,0c-0.1,0-0.2-0.1-0.2-0.2
				c0-0.1,0.1-0.2,0.2-0.2h1.8c0.1,0,0.2,0.1,0.2,0.2c0,0.1-0.1,0.1-0.2,0.2l0,0c-0.1,0-0.2,0.1-0.2,0.2
				C-245.3,393.3-245.3,393.4-245.2,393.4z M-249.6,393.4C-249.6,393.4-249.6,393.4-249.6,393.4
				C-249.6,393.5-249.6,393.5-249.6,393.4L-249.6,393.4c0.2,0.1,0.2,0.1,0.2,0.2c0,0,0,0,0,0.1l0,0.1c0,0,0,0,0,0v8.6h-2.2v-8.6
				c0,0,0,0,0,0l0-0.1c0,0,0,0,0-0.1c0-0.1,0.1-0.1,0.1-0.2l0,0c0,0,0,0,0,0c0,0,0,0,0.1,0c0.1,0,0.1-0.1,0.1-0.2
				c0-0.1-0.1-0.2-0.2-0.2l0,0c-0.1,0-0.2-0.1-0.2-0.2c0-0.1,0.1-0.2,0.2-0.2h1.8c0.1,0,0.2,0.1,0.2,0.2c0,0.1-0.1,0.1-0.2,0.2l0,0
				c-0.1,0-0.2,0.1-0.2,0.2C-249.7,393.3-249.7,393.4-249.6,393.4z M-237.2,392.2L-237.2,392.2c-1.3-0.4-8.8-3.2-8.8-3.2
				s-7.5,2.7-8.8,3.2l0,0c-0.1,0-0.2,0.1-0.2,0.3c0,0.1,0.1,0.3,0.3,0.3h0.5l0.1,0h0.2c0.1,0,0.2,0.1,0.2,0.2c0,0.1-0.1,0.1-0.2,0.2
				l0,0c-0.1,0-0.2,0.1-0.2,0.2c0,0.1,0,0.1,0.1,0.2c0,0,0,0,0.1,0c0,0,0,0,0,0l0,0c0.1,0,0.1,0.1,0.1,0.2c0,0,0,0,0,0.1v0.1
				c0,0,0,0,0,0l0,0.1v8.6c-0.4,0.1-0.7,0.2-0.7,0.3c0,0.1,0.1,0.2,0.2,0.2h16.2c0.1,0,0.2-0.1,0.2-0.2c0-0.1-0.3-0.3-0.6-0.3
				c0,0,0-7,0-8.5v-0.1c0,0,0,0,0,0v-0.1c0,0,0,0,0-0.1c0-0.1,0-0.1,0.1-0.2l0,0c0,0,0,0,0,0c0,0,0,0,0.1,0c0.1,0,0.1-0.1,0.1-0.2
				c0-0.1-0.1-0.2-0.2-0.2l0,0c-0.1,0-0.2-0.1-0.2-0.2c0-0.1,0.1-0.2,0.2-0.2h1c0.1,0,0.3-0.1,0.3-0.3
				C-237,392.3-237.1,392.2-237.2,392.2L-237.2,392.2z"/>
			<path id="Fill-19" class="st0" d="M-241.1,391.7L-241.1,391.7c-0.7-0.2-4.9-1.7-4.9-1.7s-4.2,1.5-4.9,1.7l0,0
				c-0.1,0-0.1,0.1-0.1,0.1c0,0.1,0.1,0.1,0.1,0.1h9.7c0.1,0,0.1-0.1,0.1-0.1C-241,391.8-241.1,391.7-241.1,391.7"/>
			<path id="Fill-20" class="st0" d="M-238,393C-238,393-238,393-238,393C-238,393-238,393-238,393L-238,393"/>
			<path id="Fill-21" class="st0" d="M-227.2,388.9c-0.1-0.3-0.2-0.6-0.3-0.6c-0.1-0.1-0.3-0.1-0.4-0.1c-0.1,0-0.1,0-0.1-0.1
				c0-0.1,0.1-0.1,0.2-0.1c0.5,0,0.9,0,1,0c0.1,0,0.5,0,1,0c0.1,0,0.2,0,0.2,0.1c0,0.1-0.1,0.1-0.2,0.1c-0.1,0-0.2,0-0.2,0
				c-0.1,0-0.1,0.1-0.1,0.2c0,0.1,0.1,0.4,0.2,0.8c0.2,0.6,1,3.4,1.1,3.9h0l1.7-4.7c0.1-0.3,0.2-0.3,0.2-0.3c0.1,0,0.1,0.1,0.3,0.4
				l1.8,4.6h0c0.2-0.6,0.9-3,1.2-4.1c0.1-0.2,0.1-0.4,0.1-0.5c0-0.1-0.1-0.3-0.4-0.3c-0.1,0-0.2,0-0.2-0.1c0-0.1,0.1-0.1,0.2-0.1
				c0.5,0,0.8,0,0.9,0c0.1,0,0.4,0,0.7,0c0.1,0,0.2,0,0.2,0.1c0,0.1,0,0.1-0.1,0.1c-0.1,0-0.2,0-0.3,0c-0.2,0.1-0.3,0.4-0.5,1
				c-0.4,1.1-1.3,4-1.8,5.4c-0.1,0.3-0.1,0.4-0.3,0.4c-0.1,0-0.1-0.1-0.3-0.4l-1.8-4.6h0c-0.2,0.5-1.3,3.7-1.7,4.5
				c-0.2,0.4-0.2,0.5-0.3,0.5c-0.1,0-0.1-0.1-0.2-0.3L-227.2,388.9"/>
			<path id="Fill-22" class="st0" d="M-213.2,390.7c0-1.4,0-1.7,0-2c0-0.3-0.1-0.5-0.3-0.5c-0.1,0-0.2,0-0.3,0c-0.1,0-0.1,0-0.1-0.1
				c0-0.1,0.1-0.1,0.2-0.1c0.4,0,0.9,0,1.2,0c0.2,0,0.8,0,1.1,0c0.1,0,0.2,0,0.2,0.1c0,0.1-0.1,0.1-0.1,0.1c-0.1,0-0.2,0-0.3,0
				c-0.3,0-0.3,0.2-0.3,0.5c0,0.3,0,0.6,0,2v1.6c0,0.9,0,1.6,0,2c0,0.3,0.1,0.4,0.4,0.5c0.1,0,0.3,0,0.5,0c0.1,0,0.1,0,0.1,0.1
				c0,0.1-0.1,0.1-0.2,0.1c-0.6,0-1.2,0-1.4,0c-0.2,0-0.8,0-1.2,0c-0.1,0-0.2,0-0.2-0.1c0,0,0-0.1,0.1-0.1c0.1,0,0.3,0,0.3,0
				c0.2,0,0.2-0.2,0.3-0.5c0-0.4,0-1.1,0-2V390.7"/>
			<path id="Fill-23" class="st0" d="M-204.4,393.7c0,0.7,0.1,0.9,0.3,1c0.2,0.1,0.3,0.1,0.5,0.1c0.1,0,0.2,0,0.2,0.1
				c0,0.1-0.1,0.1-0.2,0.1c-0.6,0-1,0-1.2,0c-0.1,0-0.5,0-1,0c-0.1,0-0.2,0-0.2-0.1c0-0.1,0.1-0.1,0.2-0.1c0.1,0,0.3,0,0.4,0
				c0.2-0.1,0.3-0.3,0.3-1.1l0.1-5.3c0-0.2,0-0.3,0.1-0.3c0.1,0,0.2,0.1,0.4,0.3c0.1,0.1,1.6,1.6,2.9,2.9c0.6,0.6,1.9,1.9,2.1,2h0
				l-0.1-4c0-0.5-0.1-0.7-0.3-0.8c-0.1-0.1-0.4-0.1-0.5-0.1c-0.1,0-0.2,0-0.2-0.1c0-0.1,0.1-0.1,0.2-0.1c0.5,0,1,0,1.2,0
				c0.1,0,0.5,0,0.9,0c0.1,0,0.2,0,0.2,0.1c0,0.1-0.1,0.1-0.2,0.1c-0.1,0-0.2,0-0.3,0c-0.3,0.1-0.3,0.3-0.4,0.8l-0.1,5.6
				c0,0.2,0,0.3-0.1,0.3c-0.1,0-0.2-0.1-0.3-0.2c-0.6-0.5-1.8-1.7-2.8-2.6c-1-1-2.1-2.1-2.3-2.2h0L-204.4,393.7"/>
			<path id="Fill-24" class="st0" d="M-192.1,391.7c0,1,0,1.7,0,1.8c0,0.2,0,0.6,0.1,0.7c0.1,0.2,0.4,0.4,1.1,0.4
				c0.9,0,1.5-0.2,2-0.7c0.5-0.5,0.7-1.3,0.7-2.3c0-1.2-0.5-1.9-0.8-2.3c-0.8-0.8-1.8-0.9-2.4-0.9c-0.2,0-0.5,0-0.6,0.1
				c-0.1,0-0.1,0.1-0.1,0.2c0,0.3,0,1.1,0,1.8V391.7z M-193.1,390.7c0-1.4,0-1.6,0-1.9c0-0.3-0.1-0.5-0.4-0.5c-0.1,0-0.2,0-0.3,0
				c-0.1,0-0.1,0-0.1-0.1c0-0.1,0.1-0.1,0.2-0.1c0.5,0,1,0,1.2,0c0.3,0,0.8,0,1.3,0c1.1,0,2.5,0,3.4,1c0.4,0.5,0.8,1.2,0.8,2.3
				c0,1.2-0.5,2-0.9,2.6c-0.4,0.4-1.3,1.1-2.9,1.1c-0.3,0-0.7,0-1-0.1c-0.3,0-0.6-0.1-0.8-0.1c-0.1,0-0.3,0-0.5,0
				c-0.2,0-0.4,0-0.6,0c-0.1,0-0.2,0-0.2-0.1c0,0,0-0.1,0.1-0.1c0.1,0,0.2,0,0.3,0c0.2,0,0.2-0.2,0.2-0.5c0-0.4,0-1.1,0-1.9V390.7
				L-193.1,390.7z"/>
			<path id="Fill-25" class="st0" d="M-181.8,394.8c-0.2-0.1-0.2-0.1-0.2-0.3c0-0.5,0-1,0-1.2c0-0.1,0-0.2,0.1-0.2
				c0.1,0,0.1,0.1,0.1,0.2c0,0.1,0,0.3,0.1,0.5c0.2,0.7,0.8,0.9,1.4,0.9c0.9,0,1.3-0.5,1.3-1c0-0.4-0.1-0.8-0.9-1.4l-0.4-0.3
				c-1.1-0.8-1.4-1.4-1.4-2.1c0-1,0.9-1.7,2.2-1.7c0.6,0,1,0.1,1.3,0.2c0.1,0,0.1,0,0.1,0.1c0,0.1,0,0.4,0,1.1c0,0.2,0,0.3-0.1,0.3
				c-0.1,0-0.1-0.1-0.1-0.2c0-0.1,0-0.4-0.2-0.6c-0.1-0.2-0.4-0.4-1-0.4c-0.7,0-1.1,0.4-1.1,0.9c0,0.4,0.2,0.7,1,1.3l0.3,0.2
				c1.2,0.8,1.6,1.4,1.6,2.3c0,0.5-0.2,1.1-0.9,1.6c-0.5,0.3-1,0.4-1.5,0.4C-181,395-181.4,394.9-181.8,394.8"/>
			<path id="Fill-26" class="st0" d="M-167.2,391.7c0-2-1.1-3.2-2.5-3.2c-1,0-2.1,0.6-2.1,2.8c0,1.9,1,3.3,2.6,3.3
				C-168.6,394.6-167.2,394.2-167.2,391.7z M-173,391.5c0-1.5,1-3.5,3.5-3.5c2.1,0,3.5,1.3,3.5,3.3c0,2-1.4,3.7-3.5,3.7
				C-172,395-173,393.1-173,391.5L-173,391.5z"/>
			<path id="Fill-27" class="st0" d="M-159.1,391.4c0,0.1,0,0.1,0.1,0.2c0.2,0.1,0.5,0.1,0.7,0.1c0.4,0,0.5,0,0.6-0.2
				c0.3-0.2,0.5-0.6,0.5-1.4c0-1.3-0.8-1.7-1.4-1.7c-0.2,0-0.4,0-0.5,0c-0.1,0-0.1,0.1-0.1,0.1V391.4z M-160.1,390.7
				c0-1.4,0-1.7,0-2c0-0.3-0.1-0.5-0.4-0.5c-0.1,0-0.2,0-0.3,0c-0.1,0-0.2,0-0.2-0.1c0-0.1,0.1-0.1,0.2-0.1c0.5,0,1,0,1.2,0
				c0.3,0,1,0,1.3,0c0.6,0,1.2,0.1,1.6,0.4c0.2,0.2,0.6,0.6,0.6,1.3c0,0.7-0.3,1.3-1.2,2.1c0.8,1,1.4,1.9,1.9,2.4
				c0.5,0.5,0.9,0.6,1,0.6c0.1,0,0.2,0,0.2,0c0.1,0,0.1,0,0.1,0.1c0,0.1-0.1,0.1-0.2,0.1h-0.8c-0.5,0-0.7,0-0.9-0.2
				c-0.4-0.2-0.7-0.6-1.2-1.4c-0.4-0.5-0.8-1.1-0.9-1.3c0-0.1-0.1-0.1-0.2-0.1l-0.8,0c0,0-0.1,0-0.1,0.1v0.1c0,0.9,0,1.6,0,2
				c0,0.3,0.1,0.5,0.3,0.5c0.1,0,0.3,0,0.4,0c0.1,0,0.1,0,0.1,0.1c0,0.1-0.1,0.1-0.2,0.1c-0.5,0-1.2,0-1.3,0c-0.2,0-0.7,0-1.1,0
				c-0.1,0-0.2,0-0.2-0.1c0,0,0-0.1,0.1-0.1c0.1,0,0.2,0,0.3,0c0.2,0,0.2-0.2,0.3-0.5c0-0.4,0-1.1,0-2V390.7L-160.1,390.7z"/>
			<path id="Fill-28" class="st0" d="M-227.4,402.9c0-1,0-1.2,0-1.4c0-0.2-0.1-0.3-0.2-0.4c0,0-0.1,0-0.2,0c-0.1,0-0.1,0-0.1-0.1
				c0,0,0-0.1,0.1-0.1c0.3,0,0.6,0,0.8,0c0.2,0,0.5,0,0.8,0c0.7,0,0.9,0.3,1,0.4c0.1,0.1,0.3,0.4,0.3,0.8c0,0.9-0.6,1.6-1.3,1.6
				c0,0-0.1,0-0.1,0c0,0-0.1,0-0.1-0.1c0-0.1,0-0.1,0.2-0.1c0.3,0,0.7-0.4,0.7-1.1c0-0.2,0-0.7-0.3-1c-0.2-0.2-0.4-0.3-0.5-0.3
				c-0.1,0-0.2,0-0.2,0c0,0,0,0.1,0,0.1v2.6c0,0.6,0,1.1,0,1.4c0,0.2,0,0.3,0.2,0.4c0.1,0,0.2,0,0.3,0c0.1,0,0.1,0,0.1,0.1
				c0,0,0,0.1-0.1,0.1c-0.4,0-0.7,0-0.8,0c-0.1,0-0.5,0-0.7,0c-0.1,0-0.1,0-0.1-0.1c0,0,0-0.1,0.1-0.1c0.1,0,0.1,0,0.2,0
				c0.1,0,0.1-0.2,0.2-0.4c0-0.3,0-0.8,0-1.4V402.9"/>
			<path id="Fill-29" class="st0" d="M-221.6,403.4c0,0.1,0,0.1,0.1,0.1c0.1,0,0.3,0.1,0.5,0.1c0.3,0,0.3,0,0.5-0.1
				c0.2-0.1,0.4-0.4,0.4-1c0-0.9-0.6-1.2-1-1.2c-0.2,0-0.3,0-0.3,0c0,0-0.1,0-0.1,0.1V403.4z M-222.4,402.9c0-1,0-1.2,0-1.4
				c0-0.2-0.1-0.3-0.3-0.4c-0.1,0-0.2,0-0.2,0c-0.1,0-0.1,0-0.1-0.1c0,0,0-0.1,0.1-0.1c0.3,0,0.7,0,0.9,0c0.2,0,0.7,0,0.9,0
				c0.4,0,0.8,0,1.2,0.3c0.2,0.1,0.4,0.5,0.4,0.9c0,0.5-0.2,0.9-0.8,1.5c0.6,0.7,1,1.3,1.4,1.7c0.4,0.4,0.6,0.4,0.7,0.4
				c0.1,0,0.1,0,0.2,0c0.1,0,0.1,0,0.1,0.1c0,0.1,0,0.1-0.1,0.1h-0.6c-0.4,0-0.5,0-0.7-0.1c-0.3-0.2-0.5-0.5-0.9-1
				c-0.3-0.4-0.5-0.8-0.6-0.9c0,0-0.1,0-0.1,0l-0.6,0c0,0-0.1,0-0.1,0.1v0.1c0,0.6,0,1.1,0,1.4c0,0.2,0.1,0.3,0.2,0.4
				c0.1,0,0.2,0,0.3,0c0,0,0.1,0,0.1,0.1c0,0,0,0.1-0.1,0.1c-0.4,0-0.8,0-0.9,0c-0.1,0-0.5,0-0.8,0c-0.1,0-0.1,0-0.1-0.1
				c0,0,0-0.1,0.1-0.1c0.1,0,0.2,0,0.2,0c0.1,0,0.2-0.2,0.2-0.4c0-0.3,0-0.8,0-1.4V402.9L-222.4,402.9z"/>
			<path id="Fill-30" class="st0" d="M-216.5,402.9c0-1,0-1.2,0-1.4c0-0.2-0.1-0.3-0.2-0.4c-0.1,0-0.1,0-0.2,0c-0.1,0-0.1,0-0.1-0.1
				c0,0,0-0.1,0.1-0.1c0.2,0,0.6,0,0.8,0c0.2,0,0.5,0,0.8,0c0.1,0,0.1,0,0.1,0.1c0,0.1,0,0.1-0.1,0.1s-0.1,0-0.2,0
				c-0.2,0-0.2,0.1-0.2,0.4c0,0.2,0,0.4,0,1.4v1.2c0,0.6,0,1.2,0,1.4c0,0.2,0.1,0.3,0.2,0.3c0.1,0,0.2,0,0.3,0c0.1,0,0.1,0,0.1,0.1
				c0,0,0,0.1-0.1,0.1c-0.4,0-0.8,0-1,0c-0.1,0-0.5,0-0.8,0c-0.1,0-0.1,0-0.1-0.1c0,0,0-0.1,0.1-0.1c0.1,0,0.2,0,0.2,0
				c0.1,0,0.2-0.1,0.2-0.3c0-0.3,0-0.8,0-1.4V402.9"/>
			<path id="Fill-31" class="st0" d="M-212.2,401.6c-0.1-0.4-0.2-0.4-0.5-0.5c-0.1,0-0.2,0-0.2,0c-0.1,0-0.1,0-0.1-0.1
				c0-0.1,0.1-0.1,0.2-0.1c0.3,0,0.7,0,0.9,0c0.1,0,0.4,0,0.7,0c0.1,0,0.1,0,0.1,0.1c0,0,0,0.1-0.1,0.1c-0.1,0-0.2,0-0.2,0
				c0,0-0.1,0.1-0.1,0.1c0,0.1,0.1,0.3,0.1,0.5l1,2.9h0c0.3-0.7,1-2.8,1.2-3.2c0-0.1,0.1-0.2,0.1-0.2c0-0.1,0-0.1-0.1-0.1
				c-0.1,0-0.2,0-0.2,0c-0.1,0-0.1,0-0.1-0.1c0-0.1,0.1-0.1,0.2-0.1c0.3,0,0.6,0,0.6,0c0.1,0,0.4,0,0.6,0c0.1,0,0.1,0,0.1,0.1
				c0,0,0,0.1-0.1,0.1c-0.1,0-0.2,0-0.3,0.1c-0.1,0.1-0.2,0.2-0.3,0.6c-0.2,0.6-0.4,1-0.7,1.8c-0.4,0.9-0.7,1.7-0.8,2
				c-0.2,0.4-0.2,0.5-0.3,0.5c-0.1,0-0.1-0.1-0.2-0.4L-212.2,401.6"/>
			<path id="Fill-32" class="st0" d="M-205.1,404C-205.1,404-205.1,404-205.1,404l-0.5-1.6c0,0,0-0.1,0-0.1c0,0,0,0,0,0.1l-0.6,1.6
				c0,0,0,0,0,0H-205.1z M-206.4,404.3C-206.4,404.3-206.4,404.3-206.4,404.3l-0.4,1c-0.1,0.2-0.1,0.3-0.1,0.4
				c0,0.1,0.1,0.2,0.2,0.2h0.1c0.1,0,0.1,0,0.1,0.1c0,0.1,0,0.1-0.1,0.1c-0.2,0-0.5,0-0.6,0c-0.1,0-0.4,0-0.7,0
				c-0.1,0-0.1,0-0.1-0.1c0,0,0-0.1,0.1-0.1c0.1,0,0.1,0,0.2,0c0.3,0,0.4-0.3,0.5-0.6l1.5-4c0.1-0.2,0.1-0.3,0.2-0.3
				c0.1,0,0.1,0.1,0.2,0.2c0.1,0.4,1.1,3,1.5,4c0.2,0.6,0.4,0.7,0.5,0.7c0.1,0,0.2,0,0.3,0c0,0,0.1,0,0.1,0.1c0,0.1-0.1,0.1-0.3,0.1
				c-0.2,0-0.7,0-1.1,0c-0.1,0-0.2,0-0.2-0.1c0,0,0-0.1,0.1-0.1c0,0,0.1-0.1,0.1-0.1l-0.5-1.4c0,0,0,0-0.1,0H-206.4L-206.4,404.3z"
				/>
			<path id="Fill-33" class="st0" d="M-201.3,401.5l-0.9,0c-0.3,0-0.5,0-0.6,0.2c-0.1,0.1-0.1,0.2-0.1,0.2c0,0.1,0,0.1-0.1,0.1
				c0,0-0.1,0-0.1-0.1c0-0.1,0.1-0.7,0.1-0.7c0-0.1,0-0.1,0.1-0.1c0,0,0.1,0.1,0.3,0.1c0.2,0,0.4,0,0.6,0h2.3c0.2,0,0.3,0,0.4,0
				c0.1,0,0.1,0,0.2,0c0,0,0,0,0,0.1c0,0.1,0,0.6,0,0.8c0,0.1,0,0.1-0.1,0.1c0,0-0.1,0-0.1-0.1l0-0.1c0-0.2-0.2-0.4-0.7-0.4l-0.7,0
				v2.7c0,0.6,0,1.1,0,1.4c0,0.2,0.1,0.3,0.2,0.4c0.1,0,0.2,0,0.3,0c0.1,0,0.1,0,0.1,0.1c0,0,0,0.1-0.1,0.1c-0.4,0-0.8,0-0.9,0
				c-0.1,0-0.5,0-0.7,0c-0.1,0-0.1,0-0.1-0.1c0,0,0-0.1,0.1-0.1c0.1,0,0.2,0,0.2,0c0.1,0,0.2-0.2,0.2-0.4c0-0.3,0-0.8,0-1.4V401.5"
				/>
			<path id="Fill-34" class="st0" d="M-196.4,402.9c0-1,0-1.2,0-1.4c0-0.2-0.1-0.3-0.3-0.4c0,0-0.1,0-0.2,0c-0.1,0-0.1,0-0.1-0.1
				c0,0,0-0.1,0.1-0.1c0.2,0,0.3,0,0.5,0c0.2,0,0.3,0,0.4,0c0.2,0,1.4,0,1.5,0c0.1,0,0.2,0,0.3,0c0,0,0.1,0,0.1,0c0,0,0,0,0,0.1
				c0,0,0,0.1,0,0.4c0,0.1,0,0.4,0,0.4c0,0,0,0.1-0.1,0.1c0,0-0.1,0-0.1-0.1c0,0,0-0.2,0-0.2c0-0.1-0.1-0.2-0.4-0.2
				c-0.1,0-0.7,0-0.8,0c0,0,0,0,0,0.1v1.6c0,0,0,0.1,0,0.1c0.1,0,0.8,0,1,0c0.1,0,0.2,0,0.3-0.1c0-0.1,0.1-0.1,0.1-0.1
				c0,0,0,0,0,0.1c0,0,0,0.1,0,0.5c0,0.1,0,0.4,0,0.4c0,0.1,0,0.1-0.1,0.1c0,0-0.1,0-0.1-0.1c0-0.1,0-0.1,0-0.2
				c0-0.1-0.1-0.2-0.3-0.3c-0.1,0-0.7,0-0.8,0c0,0,0,0,0,0.1v0.5c0,0.2,0,0.8,0,1c0,0.4,0.1,0.5,0.7,0.5c0.2,0,0.4,0,0.6-0.1
				c0.2-0.1,0.2-0.2,0.3-0.5c0-0.1,0-0.1,0.1-0.1c0,0,0,0.1,0,0.1c0,0.2,0,0.6-0.1,0.7c0,0.2-0.1,0.2-0.3,0.2c-0.4,0-0.8,0-1,0
				c-0.3,0-0.4,0-0.6,0c-0.1,0-0.2,0-0.3,0c-0.1,0-0.3,0-0.4,0c-0.1,0-0.1,0-0.1-0.1c0,0,0-0.1,0.1-0.1c0.1,0,0.2,0,0.2,0
				c0.1,0,0.1-0.2,0.2-0.4c0-0.3,0-0.8,0-1.4V402.9"/>
			<path id="Fill-35" class="st0" d="M-188.3,405.3c-0.6-0.5-0.7-1.3-0.7-1.9c0-0.4,0.1-1.2,0.7-1.7c0.4-0.4,1-0.7,1.8-0.7
				c0.4,0,0.6,0,0.8,0.1c0.2,0,0.4,0.1,0.6,0.1c0.1,0,0.1,0,0.1,0.1c0,0.1,0,0.1,0,0.4c0,0.2,0,0.6,0,0.7c0,0.1,0,0.1-0.1,0.1
				c0,0-0.1-0.1-0.1-0.1c0-0.2-0.1-0.4-0.2-0.6c-0.2-0.2-0.6-0.4-1.2-0.4c-0.5,0-0.8,0.1-1.1,0.4c-0.4,0.4-0.5,1-0.5,1.7
				c0,1.5,1,2.3,1.8,2.3c0.5,0,0.8-0.1,1.1-0.4c0.1-0.1,0.2-0.3,0.2-0.4c0-0.1,0-0.1,0.1-0.1c0,0,0.1,0,0.1,0.1
				c0,0.1-0.1,0.6-0.1,0.8c0,0.1-0.1,0.1-0.2,0.2c-0.2,0.1-0.7,0.1-1,0.1C-187.1,406-187.8,405.8-188.3,405.3"/>
			<path id="Fill-36" class="st0" d="M-180.1,404C-180.1,404-180.1,404-180.1,404l-0.5-1.6c0,0,0-0.1,0-0.1c0,0,0,0,0,0.1l-0.6,1.6
				c0,0,0,0,0,0H-180.1z M-181.4,404.3C-181.4,404.3-181.4,404.3-181.4,404.3l-0.4,1c-0.1,0.2-0.1,0.3-0.1,0.4
				c0,0.1,0.1,0.2,0.2,0.2h0.1c0.1,0,0.1,0,0.1,0.1c0,0.1,0,0.1-0.1,0.1c-0.2,0-0.5,0-0.6,0c-0.1,0-0.4,0-0.7,0
				c-0.1,0-0.1,0-0.1-0.1c0,0,0-0.1,0.1-0.1c0.1,0,0.1,0,0.2,0c0.3,0,0.4-0.3,0.5-0.6l1.5-4c0.1-0.2,0.1-0.3,0.2-0.3
				c0.1,0,0.1,0.1,0.2,0.2c0.1,0.4,1.1,3,1.5,4c0.2,0.6,0.4,0.7,0.5,0.7c0.1,0,0.2,0,0.3,0c0,0,0.1,0,0.1,0.1c0,0.1-0.1,0.1-0.3,0.1
				c-0.2,0-0.7,0-1.1,0c-0.1,0-0.2,0-0.2-0.1c0,0,0-0.1,0.1-0.1c0,0,0.1-0.1,0.1-0.1l-0.5-1.4c0,0,0,0-0.1,0H-181.4L-181.4,404.3z"
				/>
			<path id="Fill-37" class="st0" d="M-176.4,402.9c0-1,0-1.2,0-1.4c0-0.2-0.1-0.3-0.2-0.4c0,0-0.1,0-0.2,0c-0.1,0-0.1,0-0.1-0.1
				c0,0,0-0.1,0.1-0.1c0.3,0,0.6,0,0.8,0c0.2,0,0.5,0,0.8,0c0.7,0,0.9,0.3,1,0.4c0.1,0.1,0.3,0.4,0.3,0.8c0,0.9-0.6,1.6-1.3,1.6
				c0,0-0.1,0-0.1,0c0,0-0.1,0-0.1-0.1c0-0.1,0-0.1,0.2-0.1c0.3,0,0.7-0.4,0.7-1.1c0-0.2,0-0.7-0.3-1c-0.2-0.2-0.4-0.3-0.5-0.3
				c-0.1,0-0.2,0-0.2,0c0,0,0,0.1,0,0.1v2.6c0,0.6,0,1.1,0,1.4c0,0.2,0.1,0.3,0.2,0.4c0.1,0,0.2,0,0.3,0c0.1,0,0.1,0,0.1,0.1
				c0,0,0,0.1-0.1,0.1c-0.4,0-0.7,0-0.8,0c-0.1,0-0.5,0-0.7,0c-0.1,0-0.1,0-0.1-0.1c0,0,0-0.1,0.1-0.1c0.1,0,0.1,0,0.2,0
				c0.1,0,0.1-0.2,0.2-0.4c0-0.3,0-0.8,0-1.4V402.9"/>
			<path id="Fill-38" class="st0" d="M-171.5,402.9c0-1,0-1.2,0-1.4c0-0.2-0.1-0.3-0.2-0.4c-0.1,0-0.1,0-0.2,0c-0.1,0-0.1,0-0.1-0.1
				c0,0,0.1-0.1,0.1-0.1c0.2,0,0.6,0,0.8,0c0.2,0,0.5,0,0.8,0c0.1,0,0.1,0,0.1,0.1c0,0.1,0,0.1-0.1,0.1c-0.1,0-0.1,0-0.2,0
				c-0.2,0-0.2,0.1-0.2,0.4c0,0.2,0,0.4,0,1.4v1.2c0,0.6,0,1.2,0,1.4c0,0.2,0.1,0.3,0.2,0.3c0.1,0,0.2,0,0.3,0c0.1,0,0.1,0,0.1,0.1
				c0,0,0,0.1-0.1,0.1c-0.4,0-0.8,0-1,0c-0.1,0-0.5,0-0.8,0c-0.1,0-0.1,0-0.1-0.1c0,0,0-0.1,0.1-0.1c0.1,0,0.2,0,0.2,0
				c0.1,0,0.2-0.1,0.2-0.3c0-0.3,0-0.8,0-1.4V402.9"/>
			<path id="Fill-39" class="st0" d="M-166.3,401.5l-0.9,0c-0.3,0-0.5,0-0.6,0.2c-0.1,0.1-0.1,0.2-0.1,0.2c0,0.1,0,0.1-0.1,0.1
				c0,0-0.1,0-0.1-0.1c0-0.1,0.1-0.7,0.1-0.7c0-0.1,0-0.1,0.1-0.1c0,0,0.1,0.1,0.3,0.1c0.2,0,0.4,0,0.6,0h2.3c0.2,0,0.3,0,0.4,0
				c0.1,0,0.1,0,0.2,0c0,0,0,0,0,0.1c0,0.1,0,0.6,0,0.8c0,0.1,0,0.1-0.1,0.1c0,0-0.1,0-0.1-0.1l0-0.1c0-0.2-0.2-0.4-0.7-0.4l-0.7,0
				v2.7c0,0.6,0,1.1,0,1.4c0,0.2,0.1,0.3,0.2,0.4c0.1,0,0.2,0,0.3,0c0.1,0,0.1,0,0.1,0.1c0,0,0,0.1-0.1,0.1c-0.4,0-0.8,0-0.9,0
				c-0.1,0-0.5,0-0.7,0c-0.1,0-0.1,0-0.1-0.1c0,0,0-0.1,0.1-0.1c0.1,0,0.2,0,0.2,0c0.1,0,0.2-0.2,0.2-0.4c0-0.3,0-0.8,0-1.4V401.5"
				/>
			<path id="Fill-40" class="st0" d="M-161.1,404C-161.1,404-161.1,404-161.1,404l-0.5-1.6c0,0,0-0.1,0-0.1s0,0,0,0.1l-0.6,1.6
				c0,0,0,0,0,0H-161.1z M-162.4,404.3C-162.4,404.3-162.4,404.3-162.4,404.3l-0.4,1c-0.1,0.2-0.1,0.3-0.1,0.4
				c0,0.1,0.1,0.2,0.2,0.2h0.1c0.1,0,0.1,0,0.1,0.1c0,0.1,0,0.1-0.1,0.1c-0.2,0-0.5,0-0.6,0c-0.1,0-0.4,0-0.7,0
				c-0.1,0-0.1,0-0.1-0.1c0,0,0-0.1,0.1-0.1c0.1,0,0.1,0,0.2,0c0.3,0,0.4-0.3,0.5-0.6l1.5-4c0.1-0.2,0.1-0.3,0.2-0.3
				c0.1,0,0.1,0.1,0.2,0.2c0.1,0.4,1.1,3,1.5,4c0.2,0.6,0.4,0.7,0.5,0.7c0.1,0,0.2,0,0.3,0c0,0,0.1,0,0.1,0.1c0,0.1-0.1,0.1-0.3,0.1
				c-0.2,0-0.7,0-1.1,0c-0.1,0-0.2,0-0.2-0.1c0,0,0-0.1,0.1-0.1c0,0,0.1-0.1,0.1-0.1l-0.5-1.4c0,0,0,0-0.1,0H-162.4L-162.4,404.3z"
				/>
			<path id="Fill-41" class="st0" d="M-155.7,404.1c0,0.8,0,1.3,0.1,1.4c0.1,0.1,0.2,0.1,0.7,0.1c0.3,0,0.5,0,0.7-0.2
				c0.1-0.1,0.1-0.3,0.1-0.4c0-0.1,0-0.1,0.1-0.1c0,0,0,0,0,0.1c0,0.1,0,0.6-0.1,0.8c0,0.1-0.1,0.2-0.4,0.2c-0.4,0-0.7,0-1,0
				c-0.3,0-0.5,0-0.7,0c-0.1,0-0.2,0-0.3,0c-0.1,0-0.3,0-0.4,0c-0.1,0-0.1,0-0.1-0.1c0,0,0-0.1,0.1-0.1c0.1,0,0.2,0,0.2,0
				c0.1,0,0.1-0.2,0.2-0.4c0-0.3,0-0.8,0-1.4v-1.2c0-1,0-1.2,0-1.4c0-0.2-0.1-0.3-0.2-0.4c0,0-0.1,0-0.2,0c-0.1,0-0.1,0-0.1-0.1
				c0,0,0-0.1,0.1-0.1c0.3,0,0.6,0,0.8,0c0.1,0,0.6,0,0.8,0c0.1,0,0.1,0,0.1,0.1c0,0,0,0.1-0.1,0.1c-0.1,0-0.2,0-0.2,0
				c-0.2,0-0.2,0.1-0.2,0.4c0,0.2,0,0.4,0,1.4V404.1"/>
		</g>
	</g>
</g>
</svg>
