<?xml version="1.0" encoding="utf-8"?>
<!-- Generator: Adobe Illustrator 19.0.0, SVG Export Plug-In . SVG Version: 6.00 Build 0)  -->
<svg version="1.1" id="Layer_1" xmlns="http://www.w3.org/2000/svg" xmlns:xlink="http://www.w3.org/1999/xlink" x="0px" y="0px"
	 viewBox="-237 391 137 12" style="enable-background:new -237 391 137 12;" xml:space="preserve">
<style type="text/css">
	.st0{fill:#FFFFFF;}
</style>
<title>Group</title>
<g id="Page-1">
	<g id="Interactive-Touch-Screen-Map" transform="translate(-92.000000, -973.000000)">
		<g id="Group" transform="translate(92.000000, 973.000000)">
			<polyline id="Fill-1" class="st0" points="-198,392 -193,392 -193,393.3 -196.8,393.3 -196.8,396.3 -193.1,396.3 -193.1,397.6 
				-196.8,397.6 -196.8,401.7 -193,401.7 -193,403 -198,403 -198,392 			"/>
			<path id="Fill-2" class="st0" d="M-187,392h2.2c3.2,0,5.8,1.8,5.8,5.4c0,3.8-2.6,5.6-5.9,5.6h-2.1V392z M-185.7,401.7h0.5
				c2.7,0,4.9-1.1,4.9-4.2c0-3.2-2.3-4.2-4.9-4.2h-0.5V401.7L-185.7,401.7z"/>
			<polyline id="Fill-3" class="st0" points="-174,392 -169,392 -169,393.3 -172.8,393.3 -172.8,396.3 -169.1,396.3 -169.1,397.6 
				-172.8,397.6 -172.8,401.7 -169,401.7 -169,403 -174,403 -174,392 			"/>
			<polyline id="Fill-4" class="st0" points="-164,392 -156.3,399.9 -156.3,392.5 -155,392.5 -155,403 -162.7,395.1 -162.7,402.6 
				-164,402.6 -164,392 			"/>
			<path id="Fill-5" class="st0" d="M-144.2,394.2c-0.4-0.7-0.8-1-1.5-1c-0.8,0-1.6,0.6-1.6,1.5c0,0.8,0.7,1.3,1.3,1.5l0.7,0.3
				c1.3,0.6,2.3,1.4,2.3,3.2c0,1.9-1.3,3.3-3.1,3.3c-1.5,0-2.7-1.3-2.9-3l1.2-0.3c0,1.2,0.8,2,1.8,2s1.8-1,1.8-2.1s-0.8-1.6-1.6-2
				l-0.7-0.3c-1.1-0.5-2.1-1.2-2.1-2.7c0-1.6,1.4-2.6,2.8-2.6c1.1,0,1.9,0.6,2.5,1.6L-144.2,394.2"/>
			<polyline id="Fill-6" class="st0" points="-132.2,396.4 -132.2,392 -131,392 -131,403 -132.2,403 -132.2,397.7 -136.8,397.7 
				-136.8,403 -138,403 -138,392 -136.8,392 -136.8,396.4 -132.2,396.4 			"/>
			<path id="Fill-7" class="st0" d="M-123.4,399.4l-1.2,2.6h-1.4l5-11l5,11h-1.4l-1.2-2.6H-123.4z M-121,393.9l-1.9,4.3h3.7
				L-121,393.9L-121,393.9z"/>
			<g id="Group-11" transform="translate(0.000000, 1.000000)">
				<g id="Clip-9">
				</g>
				<polyline id="Fill-8" class="st0" points="-110,398.5 -107.1,391 -104.2,398.5 -101.4,391.2 -100,391.2 -104.2,401.8 
					-107.1,394.3 -110,401.8 -114.2,391.2 -112.8,391.2 -110,398.5 				"/>
				<path id="Fill-10" class="st0" d="M-237,391.2V402c0,0,2.7-2.6,7.9-2.7c4.1,0,7.3-0.3,8.1-8.1H-237"/>
			</g>
			<path id="Fill-12" class="st0" d="M-205,392v11c0,0-2.7-2.6-7.9-2.7c-4.2-0.1-7.3-0.4-8.1-8.3H-205"/>
		</g>
	</g>
</g>
</svg>
