<?xml version="1.0" encoding="utf-8"?>
<!-- Generator: Adobe Illustrator 19.0.0, SVG Export Plug-In . SVG Version: 6.00 Build 0)  -->
<svg version="1.1" id="Layer_1" xmlns="http://www.w3.org/2000/svg" xmlns:xlink="http://www.w3.org/1999/xlink" x="0px" y="0px"
	 viewBox="0 0 87.5 111.7" style="enable-background:new 0 0 87.5 111.7;" xml:space="preserve">
<style type="text/css">
	.st0{fill:#FFFFFF;}
</style>
<path class="st0" d="M48.4,97H16V61h32.4c13.9,0,22.2,6.5,22.2,17.9C70.6,90,61.9,97,48.4,97 M16,14.7h31.1
	c12.6,0,20.1,5.1,20.1,15.3c0,10.2-8,16.6-20.1,16.6H16L16,14.7L16,14.7z M59.9,56.3v-6.5c13.9-1,23.9-8.6,23.9-23.5
	C83.8,11.3,72.1,0,49,0H0v111.7h50.6c20.9,0,36.9-10.2,36.9-30C87.5,65.1,74.9,57,59.9,56.3"/>
</svg>
