<?xml version="1.0" encoding="utf-8"?>
<!-- Generator: Adobe Illustrator 23.0.1, SVG Export Plug-In . SVG Version: 6.00 Build 0)  -->
<svg version="1.1" id="Layer_1" xmlns="http://www.w3.org/2000/svg" xmlns:xlink="http://www.w3.org/1999/xlink" x="0px" y="0px"
	 viewBox="0 0 137 12" style="enable-background:new 0 0 137 12;" xml:space="preserve">
<style type="text/css">
	.st0{fill-rule:evenodd;clip-rule:evenodd;fill:#1C1B19;}
	.st1{filter:url(#Adobe_OpacityMaskFilter);}
	.st2{fill-rule:evenodd;clip-rule:evenodd;fill:#FFFFFF;}
	.st3{mask:url(#mask-2_1_);fill-rule:evenodd;clip-rule:evenodd;fill:#1C1B19;}
	.st4{filter:url(#Adobe_OpacityMaskFilter_1_);}
	.st5{mask:url(#mask-2_2_);fill-rule:evenodd;clip-rule:evenodd;fill:#A02C30;}
	.st6{fill-rule:evenodd;clip-rule:evenodd;fill:#A02C30;}
</style>
<title>Group</title>
<g id="Page-1">
	<g id="Interactive-Touch-Screen-Map" transform="translate(-92.000000, -973.000000)">
		<g id="Group" transform="translate(92.000000, 973.000000)">
			<polyline id="Fill-1" class="st0" points="39,1 44,1 44,2.3 40.2,2.3 40.2,5.3 43.9,5.3 43.9,6.6 40.2,6.6 40.2,10.7 44,10.7 
				44,12 39,12 39,1 			"/>
			<path id="Fill-2" class="st0" d="M50,1h2.2C55.4,1,58,2.8,58,6.4c0,3.8-2.6,5.6-5.9,5.6H50V1z M51.3,10.7h0.5
				c2.7,0,4.9-1.1,4.9-4.2c0-3.2-2.3-4.2-4.9-4.2h-0.5V10.7L51.3,10.7z"/>
			<polyline id="Fill-3" class="st0" points="63,1 68,1 68,2.3 64.2,2.3 64.2,5.3 67.9,5.3 67.9,6.6 64.2,6.6 64.2,10.7 68,10.7 
				68,12 63,12 63,1 			"/>
			<polyline id="Fill-4" class="st0" points="73,1 80.7,8.9 80.7,1.5 82,1.5 82,12 74.3,4.1 74.3,11.6 73,11.6 73,1 			"/>
			<path id="Fill-5" class="st0" d="M92.8,3.2c-0.4-0.7-0.8-1-1.5-1c-0.8,0-1.6,0.6-1.6,1.5c0,0.8,0.7,1.3,1.3,1.5l0.7,0.3
				C93,6.1,94,6.9,94,8.7c0,1.9-1.3,3.3-3.1,3.3c-1.5,0-2.7-1.3-2.9-3l1.2-0.3c0,1.2,0.8,2,1.8,2s1.8-1,1.8-2.1c0-1.1-0.8-1.6-1.6-2
				l-0.7-0.3c-1.1-0.5-2.1-1.2-2.1-2.7C88.4,2,89.8,1,91.2,1c1.1,0,1.9,0.6,2.5,1.6L92.8,3.2"/>
			<polyline id="Fill-6" class="st0" points="104.8,5.4 104.8,1 106,1 106,12 104.8,12 104.8,6.7 100.2,6.7 100.2,12 99,12 99,1 
				100.2,1 100.2,5.4 104.8,5.4 			"/>
			<path id="Fill-7" class="st0" d="M113.6,8.4l-1.2,2.6H111l5-11l5,11h-1.4l-1.2-2.6H113.6z M116,2.9l-1.9,4.3h3.7L116,2.9L116,2.9
				z"/>
			<g id="Group-11" transform="translate(0.000000, 1.000000)">
				<g id="Clip-9">
				</g>
				<defs>
					<filter id="Adobe_OpacityMaskFilter" filterUnits="userSpaceOnUse" x="122.8" y="0" width="14.2" height="10.8">
						<feColorMatrix  type="matrix" values="1 0 0 0 0  0 1 0 0 0  0 0 1 0 0  0 0 0 1 0"/>
					</filter>
				</defs>
				<mask maskUnits="userSpaceOnUse" x="122.8" y="0" width="14.2" height="10.8" id="mask-2_1_">
					<g class="st1">
						<polygon id="path-1_1_" class="st2" points="0,0 137,0 137,11 0,11 						"/>
					</g>
				</mask>
				<polyline id="Fill-8" class="st3" points="127,7.5 129.9,0 132.8,7.5 135.6,0.2 137,0.2 132.8,10.8 129.9,3.3 127,10.8 
					122.8,0.2 124.2,0.2 127,7.5 				"/>
				<defs>
					<filter id="Adobe_OpacityMaskFilter_1_" filterUnits="userSpaceOnUse" x="0" y="0.2" width="16" height="10.8">
						<feColorMatrix  type="matrix" values="1 0 0 0 0  0 1 0 0 0  0 0 1 0 0  0 0 0 1 0"/>
					</filter>
				</defs>
				<mask maskUnits="userSpaceOnUse" x="0" y="0.2" width="16" height="10.8" id="mask-2_2_">
					<g class="st4">
						<polygon id="path-1_2_" class="st2" points="0,0 137,0 137,11 0,11 						"/>
					</g>
				</mask>
				<path id="Fill-10" class="st5" d="M0,0.2V11c0,0,2.7-2.6,7.9-2.7C12,8.3,15.2,8,16,0.2H0"/>
			</g>
			<path id="Fill-12" class="st6" d="M32,1v11c0,0-2.7-2.6-7.9-2.7C19.9,9.2,16.8,8.9,16,1H32"/>
		</g>
	</g>
</g>
</svg>
