<?xml version="1.0" encoding="UTF-8"?>
<svg width="101px" height="18px" viewBox="0 0 101 18" version="1.1" xmlns="http://www.w3.org/2000/svg" xmlns:xlink="http://www.w3.org/1999/xlink">
    <title>Group 2</title>
    <g id="Page-1" stroke="none" stroke-width="1" fill="none" fill-rule="evenodd">
        <g id="Interactive-Touch-Screen-Map" transform="translate(-258.000000, -970.000000)" fill="#1C1B19">
            <g id="Group-2" transform="translate(258.000000, 970.000000)">
                <path d="M18,16.4998743 C18,16.7762132 17.8520789,17 17.6692551,17 L0.330412462,17 C0.148087275,17 0,16.7762132 0,16.4998743 C0,16.2240382 0.148087275,16 0.330412462,16 L17.6692551,16 C17.8520789,16 18,16.2240382 18,16.4998743" id="Fill-15"></path>
                <path d="M18,15 C18,15.1283309 17.9021367,15.2325565 17.7814386,15.2325565 L1.21888762,15.2325565 C1.09818953,15.2325565 1,15.1283309 1,15 C1,14.8714956 1.09818953,14.7674435 1.21888762,14.7674435 L17.7814386,14.7674435 C17.9021367,14.7674435 18,14.8714956 18,15" id="Fill-16"></path>
                <path d="M15.5181877,4.20345712 L2.4823205,4.20345712 C2.37898224,4.20345712 2.29597282,4.11818809 2.29597282,4.01306899 C2.29597282,3.91830646 2.36373561,3.8397692 2.45352131,3.82527001 L2.46199166,3.8213 C3.42083518,3.49955615 9.00110115,1.46811659 9.00110115,1.46811659 C9.00110115,1.46811659 14.579673,3.49955615 15.5385166,3.8213 L15.5469869,3.82527001 C15.6367726,3.8397692 15.7045354,3.91830646 15.7045354,4.01306899 C15.7045354,4.11818809 15.621526,4.20345712 15.5181877,4.20345712 Z M14.1510734,5.4238053 C14.1697081,5.43588795 14.1968133,5.45297628 14.2188362,5.45988065 C14.2222243,5.46108892 14.2273065,5.46229718 14.2306947,5.46350545 L14.2459413,5.46885634 C14.3306448,5.4847364 14.3696084,5.5548158 14.3814669,5.61885387 C14.3831609,5.62627608 14.3831609,5.66752971 14.3831609,5.67529713 L14.384855,5.79888544 C14.384855,5.80855156 14.384855,5.81839029 14.384855,5.82874686 L14.3814669,5.91263501 L14.3814669,14.4571436 L12.1876465,14.4571436 L12.1876465,5.94871036 L12.1893405,5.82874686 C12.1893405,5.81839029 12.1893405,5.80855156 12.1893405,5.79888544 L12.1893405,5.67529713 C12.1893405,5.66752971 12.1893405,5.62627608 12.1910346,5.61885387 C12.2028931,5.5548158 12.2418567,5.4847364 12.3265602,5.46885634 L12.3418068,5.46350545 C12.346889,5.46229718 12.3502772,5.46108892 12.3536653,5.45988065 C12.3756882,5.45297628 12.4027933,5.43588795 12.4214281,5.4238053 C12.490885,5.37858164 12.5281545,5.32472752 12.5281545,5.23462544 C12.5247664,5.11932238 12.4468391,5.02317897 12.3418068,4.99504365 L12.3265602,4.98986536 C12.2316923,4.97191399 12.1622354,4.9094294 12.1622354,4.83520738 C12.1622354,4.74700399 12.2604915,4.67554372 12.3824645,4.67554372 L12.5823647,4.6715737 L13.9918308,4.6715737 L14.1917311,4.67554372 L14.190037,4.67554372 C14.31201,4.67554372 14.4119601,4.74700399 14.4119601,4.83520738 C14.4119601,4.9094294 14.3408092,4.97191399 14.2459413,4.98986536 L14.2306947,4.99504365 C14.1256623,5.02317897 14.0477351,5.11932238 14.044347,5.23462544 C14.044347,5.32472752 14.0833106,5.37858164 14.1510734,5.4238053 Z M9.76004442,5.41845441 C9.77867919,5.43053706 9.80578431,5.447798 9.82780721,5.45452976 C9.83119535,5.45591064 9.83458349,5.4571189 9.8396657,5.45798195 L9.85491233,5.46350545 C9.93961582,5.47955812 9.97857943,5.54946491 9.99043792,5.61367559 C9.99213199,5.62092519 9.99213199,5.66235143 9.99213199,5.66994624 L9.99382606,5.79353455 C9.99382606,5.80302806 9.99382606,5.8130394 9.99382606,5.82356858 L9.99382606,14.4571436 L7.79831158,14.4571436 L7.79831158,5.94059772 L7.80000565,5.82356858 C7.80000565,5.8130394 7.80000565,5.80302806 7.80000565,5.79353455 L7.80000565,5.66994624 C7.80000565,5.66235143 7.80000565,5.62092519 7.80169972,5.61367559 C7.81355821,5.54946491 7.85252181,5.47955812 7.9372253,5.46350545 L7.95247193,5.45798195 C7.95755414,5.4571189 7.96094228,5.45591064 7.96433042,5.45452976 C7.98635333,5.447798 8.01345844,5.43053706 8.03209321,5.41845441 C8.10155007,5.37323075 8.13881961,5.31954924 8.13881961,5.22910194 C8.13543147,5.11397149 8.05750426,5.01782808 7.95247193,4.98986536 L7.9372253,4.98434187 C7.84235739,4.96673571 7.77290053,4.9039059 7.77290053,4.82985649 C7.77290053,4.7416531 7.87115658,4.67019283 7.99312961,4.67019283 L9.79900803,4.67019283 C9.92098105,4.67019283 10.0192371,4.7416531 10.0192371,4.82985649 C10.0192371,4.9039059 9.94978024,4.96673571 9.85491233,4.98434187 L9.8396657,4.98986536 C9.73463338,5.01782808 9.65670616,5.11397149 9.65331802,5.22910194 C9.65331802,5.31954924 9.69058756,5.37323075 9.76004442,5.41845441 Z M5.37070953,5.41845441 C5.3893443,5.43053706 5.41644942,5.447798 5.43847233,5.45452976 C5.44186047,5.45591064 5.4452486,5.4571189 5.45033081,5.45798195 L5.46557744,5.46350545 C5.55028093,5.47955812 5.58924454,5.54946491 5.60110303,5.61367559 C5.6027971,5.62092519 5.6027971,5.66235143 5.6027971,5.66994624 L5.60449117,5.79353455 C5.60449117,5.80302806 5.60449117,5.8130394 5.60449117,5.82356858 L5.60449117,14.4571436 L3.40897669,14.4571436 L3.40897669,5.82356858 C3.40897669,5.8130394 3.40897669,5.80302806 3.40897669,5.79353455 L3.41067076,5.66994624 C3.41067076,5.66235143 3.41067076,5.62092519 3.41236483,5.61367559 C3.42422332,5.54946491 3.46318692,5.47955812 3.54789041,5.46350545 L3.56313704,5.45798195 C3.56652518,5.4571189 3.57160739,5.45591064 3.57499553,5.45452976 C3.59701844,5.447798 3.62412355,5.43053706 3.64275832,5.41845441 C3.71221518,5.37323075 3.74948472,5.31954924 3.74948472,5.22910194 C3.74609658,5.11397149 3.66816937,5.01782808 3.56313704,4.98986536 L3.54789041,4.98434187 C3.4530225,4.96673571 3.38356564,4.9039059 3.38356564,4.82985649 C3.38356564,4.7416531 3.48182169,4.67019283 3.60379472,4.67019283 L5.40967314,4.67019283 C5.53164617,4.67019283 5.62990221,4.7416531 5.62990221,4.82985649 C5.62990221,4.9039059 5.56044535,4.96673571 5.46557744,4.98434187 L5.45033081,4.98986536 C5.34529849,5.01782808 5.26737127,5.11397149 5.26398313,5.22910194 C5.26398313,5.31954924 5.30125267,5.37323075 5.37070953,5.41845441 Z M17.7899353,4.16392958 L17.7763828,4.15875129 C16.4905838,3.72671007 9.00110115,1 9.00110115,1 C9.00110115,1 1.50992443,3.72671007 0.223786622,4.15875129 L0.211081099,4.16392958 C0.091649177,4.18343443 0,4.28889875 0,4.41611185 C0,4.55730631 0.112316829,4.6715737 0.250722333,4.6715737 L0.728111206,4.6715737 L0.822301488,4.67019283 L1.02203232,4.67019283 C1.14400535,4.67019283 1.24226139,4.7416531 1.24226139,4.82985649 C1.24226139,4.9039059 1.17111046,4.96673571 1.07624255,4.98434187 L1.06099592,4.98986536 C0.95630241,5.01782808 0.878375199,5.11397149 0.874987059,5.22910194 C0.875156466,5.31954924 0.913273037,5.37323075 0.982729899,5.41845441 C1.00102585,5.43053706 1.0288086,5.447798 1.04913744,5.45452976 C1.05421965,5.45591064 1.05760779,5.4571189 1.06099592,5.45798195 L1.07624255,5.46350545 C1.16264011,5.47955812 1.19990965,5.54946491 1.21176814,5.61367559 C1.21346221,5.62092519 1.21515628,5.66235143 1.21515628,5.66994624 L1.21515628,5.79353455 C1.21515628,5.80302806 1.21515628,5.8130394 1.21515628,5.82356858 L1.21685035,5.87966662 L1.21685035,14.4576614 C0.841444477,14.5216995 0.529396817,14.6656557 0.529396817,14.7844109 C0.529396817,14.9033388 0.624264727,15 0.741155544,15 L16.9716996,15 C17.0885904,15 17.1834583,14.9033388 17.1834583,14.7844109 C17.1834583,14.6656557 16.9039368,14.5216995 16.5752873,14.4576614 C16.5752873,14.4576614 16.5752873,7.50012329 16.5752873,5.94474035 L16.5752873,5.82494945 C16.5752873,5.81442028 16.5752873,5.80440894 16.5752873,5.79508803 L16.5752873,5.67132712 C16.5752873,5.66390492 16.5769814,5.62247867 16.5786754,5.61505647 C16.5905339,5.55084579 16.6278035,5.48076639 16.714201,5.46471372 L16.7294476,5.45953543 C16.7328358,5.45832717 16.7362239,5.45729151 16.7413061,5.45608325 C16.761635,5.44917887 16.7887401,5.43191794 16.8073749,5.42000789 C16.8768317,5.37478424 16.9157953,5.32093012 16.9157953,5.23048281 C16.9124072,5.11535237 16.83448,5.01938157 16.7294476,4.99107363 L16.714201,4.98589535 C16.6193331,4.96811659 16.5481822,4.90545939 16.5481822,4.83123736 C16.5481822,4.74320659 16.6464382,4.6715737 16.7684112,4.6715737 L17.7492777,4.6715737 C17.8881914,4.6715737 18,4.55730631 18,4.41611185 C18,4.28889875 17.9085202,4.18343443 17.7899353,4.16392958 L17.7899353,4.16392958 Z" id="Fill-17"></path>
                <path d="M13.8829459,3.7234864 L13.8764429,3.72052904 C13.161112,3.48525425 9.00081288,2 9.00081288,2 C9.00081288,2 4.83888799,3.48525425 4.12355715,3.72052904 L4.11705414,3.7234864 C4.05039831,3.73400148 4,3.79150579 4,3.86083956 C4,3.93789534 4.06177857,4 4.13818891,4 L13.8618111,4 C13.9382214,4 14,3.93789534 14,3.86083956 C14,3.79150579 13.9496017,3.73400148 13.8829459,3.7234864" id="Fill-19"></path>
                <path d="M17,4.99601134 C17,4.99618476 17,4.99618476 17,4.99618476 C17,4.99895948 17,5.00138736 17,5.00398866 L17,4.99601134" id="Fill-20"></path>
                <path d="M27.8193277,0.890951497 C27.7142857,0.555095435 27.6173239,0.336855633 27.4928895,0.245561426 C27.3959276,0.181922033 27.2197802,0.16409634 27.1405947,0.16409634 C27.051713,0.16409634 27,0.154600409 27,0.0819648722 C27,0.0184920748 27.0694893,0 27.1939237,0 C27.6512605,0 28.1360698,0.0271550288 28.2152553,0.0271550288 C28.2960569,0.0271550288 28.6839043,0 29.1945701,0 C29.3190045,0 29.3804137,0.0271550288 29.3804137,0.0819648722 C29.3804137,0.154600409 29.3093083,0.16409634 29.2220427,0.16409634 C29.1509373,0.16409634 29.0620556,0.16409634 29.0006464,0.199747727 C28.9214609,0.236731877 28.9036846,0.299871484 28.9036846,0.400328431 C28.9036846,0.518277881 28.9925663,0.82781189 29.0976083,1.23630349 C29.2478992,1.83654624 30.0688429,4.59136561 30.2255979,5.09981437 L30.2530705,5.09981437 L31.9628313,0.364010662 C32.051713,0.109619687 32.1131222,0.0368175544 32.1842275,0.0368175544 C32.2811894,0.0368175544 32.3248222,0.172759294 32.4411765,0.463967823 L34.2737557,5.03667476 L34.3012282,5.03667476 C34.4595992,4.42710267 35.1641888,2.02729782 35.4728507,0.963753629 C35.5342599,0.755009758 35.5617324,0.563758389 35.5617324,0.436646199 C35.5617324,0.291041934 35.4825469,0.16409634 35.1383323,0.16409634 C35.0494505,0.16409634 34.9880414,0.136941311 34.9880414,0.0819648722 C34.9880414,0.0184920748 35.0591467,0 35.1916613,0 C35.6586942,0 36.0287654,0.0271550288 36.1079509,0.0271550288 C36.1709761,0.0271550288 36.5491273,0 36.8400129,0 C36.9369748,0 37,0.0184920748 37,0.0728021324 C37,0.136941311 36.9547511,0.16409634 36.8755656,0.16409634 C36.7866839,0.16409634 36.6638655,0.172759294 36.5669037,0.209576848 C36.3552036,0.291041934 36.2582418,0.655052597 36.0723982,1.17316388 C35.6667744,2.31833976 34.7407886,5.20943405 34.3093083,6.57284973 C34.2123465,6.8908801 34.1687136,7 34.0539754,7 C33.9650937,7 33.9133807,6.8908801 33.7808662,6.55452425 L31.946671,2.0001428 L31.9288946,2.0001428 C31.7608274,2.46394402 30.5875889,5.68206483 30.2078216,6.51803989 C30.0413704,6.8908801 29.9977376,7 29.8910795,7 C29.8038138,7 29.7682612,6.89987624 29.6890756,6.66364415 L27.8193277,0.890951497" id="Fill-21"></path>
                <path d="M41.8167896,2.6857032 C41.8167896,1.27803365 41.8167896,1.01910118 41.7980715,0.722499636 C41.7793534,0.40774228 41.6874645,0.25010908 41.4832672,0.203446938 C41.3811685,0.175958695 41.2603517,0.167135308 41.1497448,0.167135308 C41.0561543,0.167135308 41,0.14813109 41,0.0741503854 C41,0.0188345373 41.0748724,0 41.2229155,0 C41.575156,0 42.1605218,0.0276579241 42.4310834,0.0276579241 C42.6625071,0.0276579241 43.2104368,0 43.5626773,0 C43.683494,0 43.7583664,0.0188345373 43.7583664,0.0741503854 C43.7583664,0.14813109 43.7022121,0.167135308 43.6103233,0.167135308 C43.5167328,0.167135308 43.4418605,0.175958695 43.3312535,0.194793232 C43.0811117,0.241116013 43.0062394,0.398409851 42.9875213,0.722499636 C42.9688032,1.01910118 42.9688032,1.27803365 42.9688032,2.6857032 L42.9688032,4.31446648 C42.9688032,5.21292481 42.9688032,5.94441751 43.0062394,6.34265768 C43.0334657,6.59293644 43.0981282,6.75888399 43.377198,6.79638338 C43.506523,6.81470888 43.7107204,6.83303437 43.8502552,6.83303437 C43.9523539,6.83303437 44,6.8606923 44,6.90718476 C44,6.97234208 43.9251276,7 43.8230289,7 C43.2104368,7 42.6250709,6.97234208 42.3749291,6.97234208 C42.1605218,6.97234208 41.575156,7 41.2041974,7 C41.0850822,7 41.0187181,6.97234208 41.0187181,6.90718476 C41.0187181,6.8606923 41.0561543,6.83303437 41.1667612,6.83303437 C41.3062961,6.83303437 41.4186047,6.81470888 41.5019853,6.79638338 C41.6874645,6.75888399 41.7436188,6.60175983 41.7708452,6.33349493 C41.8167896,5.94441751 41.8167896,5.21292481 41.8167896,4.31446648 L41.8167896,2.6857032" id="Fill-22"></path>
                <path d="M50.6474177,5.68050335 C50.6648507,6.37604184 50.788625,6.60777905 50.9786446,6.6705344 C51.1407714,6.72381108 51.3220745,6.73247263 51.4737416,6.73247263 C51.5783395,6.73247263 51.6358684,6.75044942 51.6358684,6.80388952 C51.6358684,6.87530642 51.5504467,6.89328322 51.4162127,6.89328322 C50.7990848,6.89328322 50.4173022,6.86664488 50.2377424,6.86664488 C50.1523208,6.86664488 49.7042929,6.89328322 49.2091959,6.89328322 C49.087165,6.89328322 49,6.88429482 49,6.80388952 C49,6.75044942 49.0575289,6.73247263 49.1534103,6.73247263 C49.2771846,6.73247263 49.4462846,6.72381108 49.5805186,6.68818434 C49.8280671,6.61693087 49.8664197,6.35839189 49.8751362,5.58244811 L49.9605579,0.302990685 C49.9605579,0.124693577 49.9901939,0 50.0843321,0 C50.1889301,0 50.276095,0.116195457 50.4364785,0.276352345 C50.5515363,0.392220951 51.9967313,1.84588985 53.3861408,3.13874816 C54.0329048,3.74521981 55.3177163,5.02941657 55.4780998,5.17208694 L55.5269122,5.17208694 L55.4310307,1.16816473 C55.4223142,0.624448439 55.3368926,0.454976303 55.1085204,0.365582612 C54.9655698,0.312305932 54.7371976,0.312305932 54.6029636,0.312305932 C54.4896492,0.312305932 54.4512966,0.285667593 54.4512966,0.231737212 C54.4512966,0.16081059 54.5558945,0.151331917 54.6988451,0.151331917 C55.1921987,0.151331917 55.6506864,0.177970257 55.8494225,0.177970257 C55.9540205,0.177970257 56.3148834,0.151331917 56.7820876,0.151331917 C56.9058618,0.151331917 57,0.16081059 57,0.231737212 C57,0.285667593 56.9442144,0.312305932 56.8291567,0.312305932 C56.7350185,0.312305932 56.6583134,0.312305932 56.5432556,0.338944272 C56.2782741,0.410197745 56.201569,0.597319824 56.1911092,1.09674783 L56.0882545,6.72381108 C56.0882545,6.91992156 56.0499019,7 55.9644803,7 C55.8598823,7 55.7448246,6.90194476 55.6402266,6.80388952 C55.0405317,6.26883478 53.8237089,5.10067004 52.8335149,4.18205589 C51.7979952,3.21931688 50.7415559,2.10475568 50.5707126,1.93528354 L50.5410765,1.93528354 L50.6474177,5.68050335" id="Fill-23"></path>
                <path d="M62.9350358,3.66031046 C62.9350358,4.63022231 62.9428763,5.33451514 62.9522849,5.50840839 C62.9601254,5.73747125 62.9773746,6.10320046 63.046371,6.20381372 C63.1577061,6.37770698 63.4901434,6.57021368 64.1675627,6.57021368 C65.0394265,6.57021368 65.6211918,6.38709755 66.1339606,5.91136451 C66.6827957,5.40762744 66.8537186,4.57538808 66.8537186,3.63280951 C66.8537186,2.47106171 66.4005376,1.7201514 66.0320341,1.34519931 C65.2448477,0.540125527 64.2694892,0.430289383 63.6014785,0.430289383 C63.4305556,0.430289383 63.1137993,0.457622652 63.046371,0.494346493 C62.9679659,0.530734956 62.9428763,0.576681679 62.9428763,0.677294941 C62.9350358,0.988525297 62.9350358,1.78471158 62.9350358,2.50745017 L62.9350358,3.66031046 Z M61.8655914,2.65417785 C61.8655914,1.26303181 61.8655914,1.00713875 61.8467742,0.714018781 C61.8310932,0.402956113 61.7620968,0.256396129 61.4798387,0.192506708 C61.4108423,0.173893254 61.265009,0.165173438 61.1458333,0.165173438 C61.0517473,0.165173438 61,0.146392296 61,0.0825028747 C61,0.0186134534 61.0611559,0 61.1897401,0 C61.6429211,0 62.1823477,0.0273332695 62.4206989,0.0273332695 C62.6857079,0.0273332695 63.2251344,0 63.7394713,0 C64.8089158,0 66.2374552,0 67.1704749,1.04335952 C67.5985663,1.51892488 68,2.27889038 68,3.36769356 C68,4.52072154 67.546819,5.39890763 67.0669803,5.92058739 C66.6733871,6.35037371 65.7827061,7 64.2004928,7 C63.8931452,7 63.5418907,6.97249904 63.2172939,6.94516577 C62.891129,6.9178325 62.5916219,6.89049923 62.3783602,6.89049923 C62.2842742,6.89049923 62.0961022,6.89049923 61.890681,6.89938674 C61.6931004,6.89938674 61.4704301,6.9178325 61.3010753,6.9178325 C61.1897401,6.9178325 61.1301523,6.89049923 61.1301523,6.82610675 C61.1301523,6.78016002 61.1646505,6.75282675 61.265009,6.75282675 C61.3935932,6.75282675 61.4970878,6.73471637 61.5739247,6.71660598 C61.7448477,6.67954676 61.7887545,6.47832024 61.8216846,6.21320429 C61.8655914,5.82869394 61.8655914,5.10595535 61.8655914,4.26382235 L61.8655914,2.65417785 L61.8655914,2.65417785 Z" id="Fill-24"></path>
                <path d="M73.1807018,6.76797569 C73.0280702,6.70530622 73,6.66063581 73,6.46428237 C73,5.97339878 73.0368421,5.43768116 73.0473684,5.29467041 C73.0561404,5.16033193 73.0859649,5.06215521 73.1614035,5.06215521 C73.2473684,5.06215521 73.2578947,5.14266012 73.2578947,5.21432913 C73.2578947,5.33001403 73.2964912,5.51769518 73.3438596,5.66921459 C73.554386,6.33043478 74.1192982,6.57096774 74.7122807,6.57096774 C75.5736842,6.57096774 75.9947368,6.02674147 75.9947368,5.55352969 C75.9947368,5.11615241 75.8526316,4.7056101 75.0578947,4.12522207 L74.6175439,3.80352969 C73.5649123,3.03562412 73.2,2.41040206 73.2,1.68733053 C73.2,0.705072464 74.0807018,0 75.4122807,0 C76.0333333,0 76.4368421,0.0895044413 76.6859649,0.151355774 C76.7719298,0.169518467 76.8192982,0.196189808 76.8192982,0.259186536 C76.8192982,0.374871435 76.7807018,0.633730715 76.7807018,1.33045816 C76.7807018,1.52681159 76.7526316,1.59831697 76.6754386,1.59831697 C76.6087719,1.59831697 76.5789474,1.54497429 76.5789474,1.43730715 C76.5789474,1.3571295 76.5315789,1.08010753 76.3315789,0.848083216 C76.1877193,0.678401122 75.9087719,0.410542309 75.2877193,0.410542309 C74.5789474,0.410542309 74.1473684,0.794740533 74.1473684,1.33045816 C74.1473684,1.7411641 74.3684211,2.05336606 75.1631579,2.61624591 L75.4298246,2.80359981 C76.5894737,3.61617578 77,4.23190743 77,5.08015428 C77,5.59787284 76.7894737,6.21442263 76.1017544,6.63396447 C75.622807,6.91982235 75.0859649,7 74.5789474,7 C74.022807,7 73.5929825,6.93749416 73.1807018,6.76797569" id="Fill-25"></path>
                <path d="M87.8003589,3.66951847 C87.8003589,1.66982235 86.6949305,0.428705002 85.291162,0.428705002 C84.3050695,0.428705002 83.1823688,0.999766246 83.1823688,3.22346891 C83.1823688,5.08015428 84.166891,6.55378682 85.812472,6.55378682 C86.4122925,6.55378682 87.8003589,6.24976625 87.8003589,3.66951847 Z M82,3.49983637 C82,1.97286115 82.9688201,0 85.5392553,0 C87.6716016,0 89,1.2942964 89,3.33931744 C89,5.38384759 87.6292059,7 85.4528937,7 C82.9939435,7 82,5.08015428 82,3.49983637 L82,3.49983637 Z" id="Fill-26"></path>
                <path d="M95.9430894,3.41702623 C95.9430894,3.51883454 95.9609756,3.55531585 96.0227642,3.58297377 C96.2097561,3.64830077 96.4747967,3.67595869 96.697561,3.67595869 C97.0520325,3.67595869 97.1674797,3.63913802 97.3268293,3.51883454 C97.5934959,3.31504824 97.8504065,2.88915014 97.8504065,2.12999952 C97.8504065,0.814805837 97.0162602,0.435400204 96.4926829,0.435400204 C96.2715447,0.435400204 96.1121951,0.444732632 96.0227642,0.472560237 C95.9609756,0.491225093 95.9430894,0.527876085 95.9430894,0.60185679 L95.9430894,3.41702623 Z M94.895935,2.6857032 C94.895935,1.27803365 94.895935,1.01910118 94.8780488,0.722499636 C94.8601626,0.40774228 94.7902439,0.259441509 94.495935,0.194793232 C94.4260163,0.175958695 94.2747967,0.167135308 94.1512195,0.167135308 C94.0536585,0.167135308 94,0.14813109 94,0.0834828138 C94,0.0188345373 94.0617886,0 94.195122,0 C94.6650407,0 95.2243902,0.0276579241 95.4113821,0.0276579241 C95.7121951,0.0276579241 96.3869919,0 96.6617886,0 C97.2211382,0 97.8146341,0.0556552092 98.2943089,0.398409851 C98.5430894,0.574198866 98.897561,1.0467591 98.897561,1.66660203 C98.897561,2.35194163 98.6227642,2.9817957 97.7268293,3.74077665 C98.5154472,4.77803365 99.1284553,5.60200223 99.6520325,6.17569205 C100.149593,6.71307025 100.512195,6.77771852 100.645528,6.80537645 C100.743089,6.82404131 100.822764,6.83303437 100.894309,6.83303437 C100.965854,6.83303437 101,6.8606923 101,6.90718476 C101,6.98133514 100.938211,7 100.830894,7 L99.9886179,7 C99.4926829,7 99.2699187,6.95367722 99.0390244,6.82404131 C98.6585366,6.61109226 98.3203252,6.17569205 97.8243902,5.46303389 C97.4682927,4.95399234 97.0617886,4.32447763 96.9447154,4.18500024 C96.902439,4.12968439 96.8471545,4.12086101 96.7869919,4.12086101 L96.0146341,4.10202647 C95.9691057,4.10202647 95.9430894,4.12086101 95.9430894,4.17617686 L95.9430894,4.30547341 C95.9430894,5.16660203 95.9430894,5.89792505 95.9869919,6.28700247 C96.0146341,6.55526737 96.0666667,6.75888399 96.3333333,6.79638338 C96.4666667,6.81470888 96.6617886,6.83303437 96.7674797,6.83303437 C96.8390244,6.83303437 96.8747967,6.8606923 96.8747967,6.90718476 C96.8747967,6.97234208 96.8130081,7 96.697561,7 C96.1821138,7 95.5268293,6.97234208 95.3934959,6.97234208 C95.2243902,6.97234208 94.6650407,7 94.3105691,7 C94.195122,7 94.1333333,6.97234208 94.1333333,6.90718476 C94.1333333,6.8606923 94.1674797,6.83303437 94.2747967,6.83303437 C94.4081301,6.83303437 94.5154472,6.81470888 94.595122,6.79638338 C94.7707317,6.75888399 94.8162602,6.55526737 94.8520325,6.28700247 C94.895935,5.89792505 94.895935,5.16660203 94.895935,4.31446648 L94.895935,2.6857032 L94.895935,2.6857032 Z" id="Fill-27"></path>
                <path d="M27.5533694,14.918013 C27.5533694,13.9127464 27.5533694,13.7275283 27.5430398,13.5159775 C27.5312346,13.2910825 27.4869651,13.1852181 27.3069356,13.139136 C27.262666,13.1257918 27.1697,13.1192086 27.0929661,13.1192086 C27.0324643,13.1192086 27,13.1056864 27,13.0594264 C27,13.0133442 27.0383669,13 27.1195278,13 C27.4102312,13 27.7570093,13.0199274 27.9104771,13.0199274 C28.1347762,13.0199274 28.453517,13 28.7058534,13 C29.3905558,13 29.6384653,13.2779162 29.7255288,13.3770194 C29.8465322,13.5159775 30,13.8134652 30,14.1639741 C30,15.103409 29.4289228,15.764394 28.6512543,15.764394 C28.6232169,15.764394 28.5627152,15.764394 28.5346778,15.7578108 C28.5081161,15.7512277 28.4697491,15.7446445 28.4697491,15.6983845 C28.4697491,15.6455412 28.5081161,15.6256138 28.6232169,15.6256138 C28.9301525,15.6256138 29.3580915,15.2089175 29.3580915,14.5344104 C29.3580915,14.3162764 29.3418593,13.8732475 29.0349238,13.5424881 C28.8371864,13.3241762 28.6114117,13.2844993 28.4859813,13.2844993 C28.4033448,13.2844993 28.3207083,13.2910825 28.2720118,13.310832 C28.2439744,13.3241762 28.2277423,13.3636752 28.2277423,13.4366237 L28.2277423,16.0823429 C28.2277423,16.6906626 28.2277423,17.2132233 28.2557796,17.4975447 C28.2720118,17.6827628 28.3044761,17.8281261 28.4697491,17.8546367 C28.546483,17.867803 28.6674865,17.8809693 28.7486473,17.8809693 C28.809149,17.8809693 28.8371864,17.9007188 28.8371864,17.9339905 C28.8371864,17.9802505 28.7929169,18 28.7324152,18 C28.3708805,18 28.025578,17.9802505 27.8824397,17.9802505 C27.7570093,17.9802505 27.4102312,18 27.1918347,18 C27.1195278,18 27.0811608,17.9802505 27.0811608,17.9339905 C27.0811608,17.9007188 27.1032956,17.8809693 27.1697,17.8809693 C27.2523364,17.8809693 27.3172651,17.867803 27.3674373,17.8546367 C27.4766355,17.8281261 27.5046729,17.6827628 27.525332,17.4909615 C27.5533694,17.2132233 27.5533694,16.6906626 27.5533694,16.0823429 L27.5533694,14.918013" id="Fill-28"></path>
                <path d="M33.3876577,15.4405736 C33.3876577,15.5133442 33.4012956,15.5398548 33.4456188,15.5596043 C33.5785885,15.6058644 33.7678145,15.6256138 33.9263553,15.6256138 C34.1803614,15.6256138 34.2621889,15.5992812 34.3764064,15.5133442 C34.5656325,15.3676251 34.7497443,15.0635542 34.7497443,14.5210661 C34.7497443,13.582165 34.1547903,13.310832 33.7797477,13.310832 C33.6229117,13.310832 33.5086942,13.3175931 33.4456188,13.3373425 C33.4012956,13.3505089 33.3876577,13.3770194 33.3876577,13.4300406 L33.3876577,15.4405736 Z M32.6392772,14.918013 C32.6392772,13.9127464 32.6392772,13.7275283 32.627344,13.5159775 C32.6154108,13.2910825 32.5642687,13.1852181 32.3545857,13.139136 C32.3034436,13.1257918 32.196045,13.1192086 32.1073986,13.1192086 C32.0375043,13.1192086 32,13.1056864 32,13.0594264 C32,13.0133442 32.0443232,13 32.1397886,13 C32.4756222,13 32.8745312,13.0199274 33.0075009,13.0199274 C33.222298,13.0199274 33.7047392,13 33.9007842,13 C34.2996931,13 34.7241732,13.0396769 35.0668258,13.2844993 C35.2441186,13.4102911 35.4981248,13.7474557 35.4981248,14.1904847 C35.4981248,14.6801295 35.3020798,15.1297417 34.6610979,15.6720518 C35.2253665,16.4127464 35.6617797,17.0014946 36.0368224,17.4114298 C36.3914081,17.7952103 36.6505285,17.8412924 36.7459939,17.8612198 C36.8158882,17.8743862 36.8738493,17.8809693 36.9232867,17.8809693 C36.9744289,17.8809693 37,17.9007188 37,17.9339905 C37,17.9868337 36.9556768,18 36.8789635,18 L36.2771906,18 C35.9226048,18 35.7640641,17.9669063 35.5987044,17.8743862 C35.3276509,17.7222618 35.0855779,17.4114298 34.7309922,16.9020354 C34.476986,16.5385382 34.1854756,16.0889261 34.1036481,15.9894669 C34.0729628,15.9497901 34.0337538,15.9432069 33.9894306,15.9432069 L33.4387999,15.9298626 C33.4064098,15.9298626 33.3876577,15.9432069 33.3876577,15.9828838 L33.3876577,16.0754039 C33.3876577,16.6906626 33.3876577,17.2132233 33.4200477,17.4909615 C33.4387999,17.6827628 33.4763041,17.8281261 33.6672349,17.8546367 C33.7609956,17.867803 33.9007842,17.8809693 33.9774974,17.8809693 C34.0269349,17.8809693 34.052506,17.9007188 34.052506,17.9339905 C34.052506,17.9802505 34.0081827,18 33.9263553,18 C33.5581316,18 33.0893283,17.9802505 32.9955677,17.9802505 C32.8745312,17.9802505 32.4756222,18 32.2216161,18 C32.1397886,18 32.0954654,17.9802505 32.0954654,17.9339905 C32.0954654,17.9007188 32.1210365,17.8809693 32.196045,17.8809693 C32.2915104,17.8809693 32.3682237,17.867803 32.4244801,17.8546367 C32.5506308,17.8281261 32.5830208,17.6827628 32.6085919,17.4909615 C32.6392772,17.2132233 32.6392772,16.6906626 32.6392772,16.0823429 L32.6392772,14.918013 L32.6392772,14.918013 Z" id="Fill-29"></path>
                <path d="M38.5445462,14.918013 C38.5445462,13.9127464 38.5445462,13.7275283 38.5328893,13.5159775 C38.5212323,13.2910825 38.4579517,13.178635 38.3230641,13.1457192 C38.2547877,13.1257918 38.173189,13.1192086 38.0999167,13.1192086 C38.0383014,13.1192086 38,13.1056864 38,13.0528432 C38,13.0133442 38.0499584,13 38.1498751,13 C38.3846794,13 38.7743547,13.0199274 38.9542048,13.0199274 C39.1090758,13.0199274 39.4737719,13 39.7085762,13 C39.7901749,13 39.8384679,13.0133442 39.8384679,13.0528432 C39.8384679,13.1056864 39.8018318,13.1192086 39.7402165,13.1192086 C39.6786012,13.1192086 39.6286428,13.1257918 39.5537052,13.139136 C39.3871774,13.1720518 39.337219,13.2844993 39.325562,13.5159775 C39.3122398,13.7275283 39.3122398,13.9127464 39.3122398,14.918013 L39.3122398,16.0823429 C39.3122398,16.7235784 39.3122398,17.246317 39.337219,17.5304605 C39.3555371,17.7090954 39.3988343,17.8281261 39.5853455,17.8546367 C39.67194,17.867803 39.8084929,17.8809693 39.9000833,17.8809693 C39.9683597,17.8809693 40,17.9007188 40,17.9339905 C40,17.9802505 39.9500416,18 39.8817652,18 C39.4737719,18 39.0840966,17.9802505 38.9159034,17.9802505 C38.7743547,17.9802505 38.3846794,18 38.1365529,18 C38.0566195,18 38.0133222,17.9802505 38.0133222,17.9339905 C38.0133222,17.9007188 38.0383014,17.8809693 38.1115737,17.8809693 C38.2048293,17.8809693 38.2797669,17.867803 38.3347211,17.8546367 C38.4579517,17.8281261 38.4962531,17.7156786 38.5145712,17.5238773 C38.5445462,17.246317 38.5445462,16.7235784 38.5445462,16.0823429 L38.5445462,14.918013" id="Fill-30"></path>
                <path d="M42.7593308,13.6363763 C42.6225869,13.2793208 42.5212355,13.2078748 42.3056628,13.1430668 C42.2155727,13.1170387 42.1206564,13.1170387 42.0723938,13.1170387 C42.0176963,13.1170387 42,13.0972994 42,13.0583447 C42,13.0064633 42.0659588,13 42.1560489,13 C42.472973,13 42.8140283,13.0195647 43.023166,13.0195647 C43.1727799,13.0195647 43.4591377,13 43.7583655,13 C43.8307593,13 43.8967181,13.0131014 43.8967181,13.0583447 C43.8967181,13.1037627 43.8597169,13.1170387 43.8066281,13.1170387 C43.710103,13.1170387 43.6216216,13.1235021 43.5733591,13.1624568 C43.5315315,13.1949481 43.5138353,13.2401915 43.5138353,13.2987108 C43.5138353,13.3830835 43.5669241,13.565105 43.6505792,13.7986584 L44.6801802,16.746812 L44.7027027,16.746812 C44.960103,16.032701 45.73713,13.9417252 45.8819176,13.5130489 C45.9108752,13.4286762 45.9350064,13.3312022 45.9350064,13.2728575 C45.9350064,13.2208015 45.9108752,13.1689201 45.8577864,13.1495301 C45.7853925,13.1235021 45.6953024,13.1170387 45.6180824,13.1170387 C45.5649936,13.1170387 45.516731,13.1105754 45.516731,13.064808 C45.516731,13.0131014 45.5698198,13 45.6840412,13 C45.983269,13 46.2342342,13.0195647 46.3114543,13.0195647 C46.4144144,13.0195647 46.6943372,13 46.8745174,13 C46.9517375,13 47,13.0131014 47,13.0583447 C47,13.1037627 46.9646075,13.1170387 46.9034749,13.1170387 C46.8439511,13.1170387 46.7184685,13.1170387 46.6106821,13.1949481 C46.533462,13.2534675 46.4433719,13.3635188 46.2824968,13.7790937 C46.0492278,14.3896167 45.8867439,14.7402089 45.5649936,15.539042 C45.1821107,16.4870559 44.9005792,17.1948782 44.7686615,17.5192677 C44.6142214,17.8960626 44.5772201,18 44.493565,18 C44.4163449,18 44.3809524,17.9089893 44.266731,17.6039898 L42.7593308,13.6363763" id="Fill-31"></path>
                <path d="M49.8685845,16.001314 C49.8980059,16.001314 49.904544,15.9819496 49.8980059,15.962758 L49.3520758,14.3753933 C49.3455378,14.3498046 49.3389997,14.3173 49.3210199,14.3173 C49.3030402,14.3173 49.2915986,14.3498046 49.2850605,14.3753933 L48.7260543,15.9563609 C48.7195162,15.9819496 48.7260543,16.001314 48.7505721,16.001314 L49.8685845,16.001314 Z M48.627983,16.322729 C48.5985616,16.322729 48.5854855,16.3355234 48.5740438,16.3740793 L48.2455051,17.2931982 C48.1850278,17.4538193 48.1539719,17.6078703 48.1539719,17.685328 C48.1539719,17.8009959 48.2095456,17.8843321 48.3975155,17.8843321 L48.4890487,17.8843321 C48.5626022,17.8843321 48.5805819,17.8971265 48.5805819,17.9358553 C48.5805819,17.9872056 48.5429879,18 48.4759725,18 C48.2830991,18 48.0215757,17.9808085 47.8319712,17.9808085 C47.7665904,17.9808085 47.4315136,18 47.116051,18 C47.037594,18 47,17.9872056 47,17.9358553 C47,17.8971265 47.0245178,17.8843321 47.0735534,17.8843321 C47.1274926,17.8843321 47.2124877,17.8779349 47.2615234,17.8715377 C47.5410265,17.8329818 47.6570775,17.6142674 47.778032,17.2931982 L49.3030402,13.2570974 C49.3765937,13.0705419 49.4125531,13 49.4730304,13 C49.5286041,13 49.5645636,13.0577475 49.6250409,13.2054013 C49.7705132,13.559148 50.7430533,16.1812995 51.1320693,17.1581659 C51.3625368,17.7365054 51.5390651,17.8265846 51.6665577,17.8587434 C51.7580909,17.8779349 51.8496241,17.8843321 51.921543,17.8843321 C51.9705786,17.8843321 52,17.8907293 52,17.9358553 C52,17.9872056 51.9460608,18 51.7204969,18 C51.5031056,18 51.0585159,18 50.5730631,17.9872056 C50.4635502,17.9808085 50.3899967,17.9808085 50.3899967,17.9358553 C50.3899967,17.8971265 50.4145145,17.8843321 50.4749918,17.8779349 C50.5174894,17.8651406 50.5599869,17.8073931 50.5305655,17.7301082 L50.0434783,16.3676821 C50.0320366,16.3355234 50.0140569,16.322729 49.983001,16.322729 L48.627983,16.322729 L48.627983,16.322729 Z" id="Fill-32"></path>
                <path d="M53.6744926,13.4543708 L52.7926781,13.4807491 C52.4504576,13.4936762 52.3072025,13.5261687 52.2196578,13.6688911 C52.160764,13.7663685 52.1305213,13.8441059 52.1193792,13.8963385 C52.1066454,13.9482216 52.0891365,13.9740759 52.0541186,13.9740759 C52.0127338,13.9740759 52,13.9415834 52,13.8699602 C52,13.7663685 52.1130123,13.1752149 52.1241544,13.1233317 C52.1416634,13.038956 52.160764,13 52.1957819,13 C52.2435336,13 52.3024274,13.064985 52.4504576,13.0779121 C52.6223637,13.0973028 52.8467967,13.1104046 53.0425786,13.1104046 L55.3840032,13.1104046 C55.5734182,13.1104046 55.7039395,13.0908392 55.793076,13.0779121 C55.8822125,13.0583467 55.9283725,13.0454196 55.9522483,13.0454196 C55.9936331,13.0454196 56,13.0843757 56,13.1816784 C56,13.3181119 55.982491,13.7663685 55.982491,13.9351198 C55.9761242,13.9999301 55.9649821,14.0390609 55.9283725,14.0390609 C55.8822125,14.0390609 55.8694787,14.0065684 55.8647035,13.9092656 L55.8583366,13.8376424 C55.8456029,13.6688911 55.6864306,13.4872126 55.1595702,13.4739361 L54.4146439,13.4543708 L54.4146439,16.1171826 C54.4146439,16.7144504 54.4146439,17.2275173 54.4432949,17.5066732 C54.4623955,17.6885263 54.4974135,17.8312487 54.6740947,17.8572776 C54.7568643,17.8702047 54.8873856,17.8831319 54.9765221,17.8831319 C55.0417827,17.8831319 55.0720255,17.9025225 55.0720255,17.9351897 C55.0720255,17.9806093 55.0242738,18 54.9590131,18 C54.5674493,18 54.1949861,17.9806093 54.0294469,17.9806093 C53.8941504,17.9806093 53.5200955,18 53.2845205,18 C53.2081178,18 53.166733,17.9806093 53.166733,17.9351897 C53.166733,17.9025225 53.1890171,17.8831319 53.2606446,17.8831319 C53.3497811,17.8831319 53.419817,17.8702047 53.4739355,17.8572776 C53.591723,17.8312487 53.6267409,17.6885263 53.6458416,17.5002096 C53.6744926,17.2275173 53.6744926,16.7144504 53.6744926,16.1171826 L53.6744926,13.4543708" id="Fill-33"></path>
                <path d="M58.5993607,14.9426517 C58.5993607,13.9517713 58.5993607,13.7692038 58.5881726,13.5606805 C58.5769845,13.3390039 58.5290357,13.2346545 58.3324454,13.1892318 C58.2844965,13.1760786 58.1838039,13.1695896 58.1006926,13.1695896 C58.0351625,13.1695896 58,13.156261 58,13.1106629 C58,13.0652403 58.0415557,13.052087 58.1310602,13.052087 C58.2908897,13.052087 58.4635056,13.0585759 58.612147,13.0585759 C58.7671817,13.0652403 58.9030368,13.0717292 58.9861481,13.0717292 C59.1763452,13.0717292 60.3590836,13.0717292 60.4709643,13.0652403 C60.5844433,13.052087 60.680341,13.0391091 60.7266915,13.0261312 C60.7570591,13.0194669 60.7922216,13 60.8225892,13 C60.8513586,13 60.8577517,13.0261312 60.8577517,13.0585759 C60.8577517,13.104174 60.8273841,13.1825675 60.8098029,13.4824623 C60.805008,13.5477026 60.7922216,13.8342687 60.7810336,13.9128376 C60.7746404,13.9452824 60.7634523,13.9843914 60.7218966,13.9843914 C60.680341,13.9843914 60.6675546,13.9517713 60.6675546,13.8931954 C60.6675546,13.847422 60.6611614,13.736759 60.6323921,13.6583655 C60.5908364,13.5410382 60.5316995,13.4629954 60.2344166,13.423711 C60.133724,13.4105577 59.5087906,13.3975798 59.3905168,13.3975798 C59.3601492,13.3975798 59.3489611,13.4170467 59.3489611,13.4629954 L59.3489611,15.1122413 C59.3489611,15.1578394 59.3553543,15.1839705 59.3905168,15.1839705 C59.521577,15.1839705 60.204049,15.1839705 60.3415024,15.1708173 C60.4837507,15.1578394 60.5732552,15.1383725 60.6259989,15.0731322 C60.6675546,15.0210452 60.691529,14.9884251 60.7218966,14.9884251 C60.7442728,14.9884251 60.7634523,15.0015784 60.7634523,15.0405121 C60.7634523,15.0796212 60.7394779,15.1839705 60.7155035,15.5163101 C60.7091103,15.6466152 60.691529,15.9075763 60.691529,15.9531743 C60.691529,16.0052613 60.691529,16.0768152 60.6387853,16.0768152 C60.5956313,16.0768152 60.5844433,16.0508593 60.5844433,16.0182392 C60.5780501,15.9531743 60.5780501,15.8684672 60.5604688,15.7835847 C60.5316995,15.6531042 60.4485882,15.5555945 60.2280234,15.5294633 C60.1145445,15.5163101 59.5263719,15.5098211 59.3841236,15.5098211 C59.3553543,15.5098211 59.3489611,15.5359523 59.3489611,15.5750614 L59.3489611,16.0903192 C59.3489611,16.311645 59.3425679,16.9112592 59.3489611,17.1004911 C59.3601492,17.5503332 59.4560469,17.6481936 60.0618007,17.6481936 C60.2168354,17.6481936 60.4661694,17.6481936 60.6196058,17.5698001 C60.7746404,17.4917573 60.8465637,17.3549632 60.8881193,17.0875132 C60.8993074,17.0157839 60.9120938,16.9896528 60.9536494,16.9896528 C61,16.9896528 61,17.0417397 61,17.10698 C61,17.2571028 60.9536494,17.7002806 60.9232818,17.8305858 C60.8817262,18 60.8273841,18 60.6020245,18 C60.1561002,18 59.8300479,17.9870221 59.5743207,17.9805331 C59.3185935,17.9675552 59.1347896,17.9610663 58.9557805,17.9610663 C58.8918487,17.9610663 58.7607885,17.9610663 58.6185402,17.9675552 C58.4810868,17.9675552 58.3276505,17.9805331 58.2077784,17.9805331 C58.1310602,17.9805331 58.0895045,17.9610663 58.0895045,17.9154683 C58.0895045,17.8826727 58.113479,17.8632059 58.1838039,17.8632059 C58.2733085,17.8632059 58.3452318,17.850228 58.3979755,17.8372501 C58.5162493,17.8111189 58.5466169,17.6678358 58.5705914,17.4787794 C58.5993607,17.2050158 58.5993607,16.6899334 58.5993607,16.0903192 L58.5993607,14.9426517" id="Fill-34"></path>
                <path d="M66.7136223,17.3049789 C66.1501548,16.7563051 66,16.0418969 66,15.4235666 C66,14.9898432 66.120743,14.2371753 66.6733746,13.6759771 C67.0882353,13.2551213 67.6346749,13 68.4922601,13 C68.8482972,13 69.0619195,13.025392 69.3266254,13.0638232 C69.5448916,13.0955633 69.7291022,13.1528669 69.9009288,13.1720825 C69.9643963,13.1784305 69.9876161,13.2105137 69.9876161,13.2487733 C69.9876161,13.2997289 69.9705882,13.3762482 69.9597523,13.5994578 C69.9473684,13.8099715 69.9535604,14.1606561 69.9427245,14.2884741 C69.9365325,14.3838658 69.9241486,14.434993 69.873065,14.434993 C69.8266254,14.434993 69.8157895,14.3838658 69.8157895,14.2948221 C69.8095975,14.0968329 69.7352941,13.8736232 69.5913313,13.7078887 C69.4009288,13.4848506 68.9520124,13.3124249 68.4226006,13.3124249 C67.9226006,13.3124249 67.5944272,13.4527674 67.3405573,13.7078887 C66.9210526,14.1350925 66.8111455,14.7410699 66.8111455,15.3595718 C66.8111455,16.8776035 67.8529412,17.6300999 68.623839,17.6300999 C69.1362229,17.6300999 69.4473684,17.5664482 69.6780186,17.2728957 C69.7755418,17.1519404 69.8498452,16.9668188 69.873065,16.8518684 C69.8900929,16.7499571 69.9009288,16.7243935 69.9473684,16.7243935 C69.9876161,16.7243935 70,16.7691727 70,16.8199568 C70,16.8968191 69.9303406,17.4514978 69.873065,17.6683595 C69.8436533,17.7767903 69.8204334,17.8085304 69.7229102,17.8533095 C69.4922601,17.9552208 69.0557276,18 68.6873065,18 C67.8993808,18 67.2368421,17.8085304 66.7136223,17.3049789" id="Fill-35"></path>
                <path d="M74.8676471,16.001314 C74.8986928,16.001314 74.9035948,15.9819496 74.8986928,15.962758 L74.3513072,14.3753933 C74.3447712,14.3498046 74.3398693,14.3173 74.3202614,14.3173 C74.3022876,14.3173 74.2908497,14.3498046 74.2843137,14.3753933 L73.7254902,15.9563609 C73.7189542,15.9819496 73.7254902,16.001314 73.75,16.001314 L74.8676471,16.001314 Z M73.629085,16.322729 C73.5980392,16.322729 73.5866013,16.3355234 73.5735294,16.3740793 L73.246732,17.2931982 C73.1846405,17.4538193 73.1552288,17.6078703 73.1552288,17.685328 C73.1552288,17.8009959 73.2091503,17.8843321 73.3970588,17.8843321 L73.4885621,17.8843321 C73.5620915,17.8843321 73.5800654,17.8971265 73.5800654,17.9358553 C73.5800654,17.9872056 73.5441176,18 73.4771242,18 C73.2826797,18 73.0212418,17.9808085 72.8333333,17.9808085 C72.7663399,17.9808085 72.4313725,18 72.1160131,18 C72.0375817,18 72,17.9872056 72,17.9358553 C72,17.8971265 72.0245098,17.8843321 72.0735294,17.8843321 C72.127451,17.8843321 72.2140523,17.8779349 72.2614379,17.8715377 C72.5408497,17.8329818 72.6568627,17.6142674 72.7777778,17.2931982 L74.3022876,13.2570974 C74.375817,13.0705419 74.4117647,13 74.4722222,13 C74.5277778,13 74.5637255,13.0577475 74.624183,13.2054013 C74.7696078,13.559148 75.7418301,16.1812995 76.130719,17.1581659 C76.3611111,17.7365054 76.5375817,17.8265846 76.6650327,17.8587434 C76.7565359,17.8779349 76.8480392,17.8843321 76.9199346,17.8843321 C76.9689542,17.8843321 77,17.8907293 77,17.9358553 C77,17.9872056 76.9444444,18 76.7205882,18 C76.501634,18 76.0571895,18 75.5718954,17.9872056 C75.4624183,17.9808085 75.3905229,17.9808085 75.3905229,17.9358553 C75.3905229,17.8971265 75.4150327,17.8843321 75.4754902,17.8779349 C75.5179739,17.8651406 75.5604575,17.8073931 75.5294118,17.7301082 L75.0441176,16.3676821 C75.0310458,16.3355234 75.0130719,16.322729 74.9836601,16.322729 L73.629085,16.322729 L73.629085,16.322729 Z" id="Fill-36"></path>
                <path d="M78.5548451,14.918013 C78.5548451,13.9127464 78.5548451,13.7275283 78.5430398,13.5159775 C78.5327103,13.2910825 78.4884407,13.1852181 78.3069356,13.139136 C78.262666,13.1257918 78.1697,13.1192086 78.0929661,13.1192086 C78.0324643,13.1192086 78,13.1056864 78,13.0594264 C78,13.0133442 78.0383669,13 78.1210034,13 C78.4117068,13 78.7570093,13.0199274 78.9104771,13.0199274 C79.1362518,13.0199274 79.453517,13 79.7058534,13 C80.3920315,13 80.6384653,13.2779162 80.7270044,13.3770194 C80.8465322,13.5159775 81,13.8134652 81,14.1639741 C81,15.103409 80.4303984,15.764394 79.6512543,15.764394 C79.6232169,15.764394 79.5641909,15.764394 79.5361535,15.7578108 C79.5081161,15.7512277 79.4697491,15.7446445 79.4697491,15.6983845 C79.4697491,15.6455412 79.5081161,15.6256138 79.6232169,15.6256138 C79.9301525,15.6256138 80.3580915,15.2089175 80.3580915,14.5344104 C80.3580915,14.3162764 80.3418593,13.8732475 80.0349238,13.5424881 C79.8371864,13.3241762 79.6128874,13.2844993 79.487457,13.2844993 C79.4048205,13.2844993 79.322184,13.2910825 79.2734875,13.310832 C79.2454501,13.3241762 79.2292179,13.3636752 79.2292179,13.4366237 L79.2292179,16.0823429 C79.2292179,16.6906626 79.2292179,17.2132233 79.2557796,17.4975447 C79.2734875,17.6827628 79.3059518,17.8281261 79.4697491,17.8546367 C79.546483,17.867803 79.6674865,17.8809693 79.750123,17.8809693 C79.8106247,17.8809693 79.8371864,17.9007188 79.8371864,17.9339905 C79.8371864,17.9802505 79.7943925,18 79.7338908,18 C79.3708805,18 79.025578,17.9802505 78.8839154,17.9802505 C78.7570093,17.9802505 78.4117068,18 78.1918347,18 C78.1210034,18 78.0826365,17.9802505 78.0826365,17.9339905 C78.0826365,17.9007188 78.1047713,17.8809693 78.1697,17.8809693 C78.2523364,17.8809693 78.3187408,17.867803 78.3674373,17.8546367 C78.4766355,17.8281261 78.5046729,17.6827628 78.5268077,17.4909615 C78.5548451,17.2132233 78.5548451,16.6906626 78.5548451,16.0823429 L78.5548451,14.918013" id="Fill-37"></path>
                <path d="M83.545,14.918013 C83.545,13.9127464 83.545,13.7275283 83.5333333,13.5159775 C83.52,13.2910825 83.4583333,13.178635 83.3216667,13.1457192 C83.2533333,13.1257918 83.1733333,13.1192086 83.0983333,13.1192086 C83.0366667,13.1192086 83,13.1056864 83,13.0528432 C83,13.0133442 83.05,13 83.1483333,13 C83.3833333,13 83.7733333,13.0199274 83.9533333,13.0199274 C84.1083333,13.0199274 84.475,13 84.71,13 C84.79,13 84.84,13.0133442 84.84,13.0528432 C84.84,13.1056864 84.8033333,13.1192086 84.74,13.1192086 C84.6783333,13.1192086 84.63,13.1257918 84.555,13.139136 C84.3883333,13.1720518 84.3383333,13.2844993 84.325,13.5159775 C84.3133333,13.7275283 84.3133333,13.9127464 84.3133333,14.918013 L84.3133333,16.0823429 C84.3133333,16.7235784 84.3133333,17.246317 84.3383333,17.5304605 C84.3566667,17.7090954 84.4,17.8281261 84.5866667,17.8546367 C84.6733333,17.867803 84.8083333,17.8809693 84.9016667,17.8809693 C84.97,17.8809693 85,17.9007188 85,17.9339905 C85,17.9802505 84.9516667,18 84.8833333,18 C84.475,18 84.0833333,17.9802505 83.9166667,17.9802505 C83.7733333,17.9802505 83.3833333,18 83.1366667,18 C83.055,18 83.0116667,17.9802505 83.0116667,17.9339905 C83.0116667,17.9007188 83.0366667,17.8809693 83.1116667,17.8809693 C83.2033333,17.8809693 83.2783333,17.867803 83.335,17.8546367 C83.4583333,17.8281261 83.495,17.7156786 83.5133333,17.5238773 C83.545,17.246317 83.545,16.7235784 83.545,16.0823429 L83.545,14.918013" id="Fill-38"></path>
                <path d="M88.6744926,13.4543708 L87.7926781,13.4807491 C87.4504576,13.4936762 87.3072025,13.5261687 87.2196578,13.6688911 C87.160764,13.7663685 87.1305213,13.8441059 87.1193792,13.8963385 C87.1066454,13.9482216 87.0891365,13.9740759 87.0541186,13.9740759 C87.0127338,13.9740759 87,13.9415834 87,13.8699602 C87,13.7663685 87.1130123,13.1752149 87.1241544,13.1233317 C87.1432551,13.038956 87.160764,13 87.1957819,13 C87.2435336,13 87.3024274,13.064985 87.4504576,13.0779121 C87.6223637,13.0973028 87.8467967,13.1104046 88.0409869,13.1104046 L90.3840032,13.1104046 C90.5734182,13.1104046 90.7039395,13.0908392 90.793076,13.0779121 C90.8822125,13.0583467 90.9299642,13.0454196 90.9522483,13.0454196 C90.9936331,13.0454196 91,13.0843757 91,13.1816784 C91,13.3181119 90.982491,13.7663685 90.982491,13.9351198 C90.9761242,13.9999301 90.9649821,14.0390609 90.9299642,14.0390609 C90.8822125,14.0390609 90.8694787,14.0065684 90.8631118,13.9092656 L90.8583366,13.8376424 C90.8456029,13.6688911 90.6864306,13.4872126 90.1595702,13.4739361 L89.4146439,13.4543708 L89.4146439,16.1171826 C89.4146439,16.7144504 89.4146439,17.2275173 89.4448866,17.5066732 C89.4623955,17.6885263 89.4974135,17.8312487 89.6756864,17.8572776 C89.7568643,17.8702047 89.8873856,17.8831319 89.9765221,17.8831319 C90.0417827,17.8831319 90.0704337,17.9025225 90.0704337,17.9351897 C90.0704337,17.9806093 90.0242738,18 89.9590131,18 C89.5674493,18 89.1949861,17.9806093 89.0294469,17.9806093 C88.8941504,17.9806093 88.5216872,18 88.2845205,18 C88.2081178,18 88.166733,17.9806093 88.166733,17.9351897 C88.166733,17.9025225 88.1890171,17.8831319 88.2606446,17.8831319 C88.3497811,17.8831319 88.419817,17.8702047 88.4739355,17.8572776 C88.591723,17.8312487 88.6283327,17.6885263 88.6458416,17.5002096 C88.6744926,17.2275173 88.6744926,16.7144504 88.6744926,16.1171826 L88.6744926,13.4543708" id="Fill-39"></path>
                <path d="M93.8685845,16.001314 C93.8980059,16.001314 93.904544,15.9819496 93.8980059,15.962758 L93.3520758,14.3753933 C93.3455378,14.3498046 93.3389997,14.3173 93.3210199,14.3173 C93.3030402,14.3173 93.2915986,14.3498046 93.2850605,14.3753933 L92.7260543,15.9563609 C92.7195162,15.9819496 92.7260543,16.001314 92.7489376,16.001314 L93.8685845,16.001314 Z M92.627983,16.322729 C92.5985616,16.322729 92.5854855,16.3355234 92.5740438,16.3740793 L92.2455051,17.2931982 C92.1850278,17.4538193 92.1539719,17.6078703 92.1539719,17.685328 C92.1539719,17.8009959 92.2095456,17.8843321 92.3975155,17.8843321 L92.4890487,17.8843321 C92.5609676,17.8843321 92.5805819,17.8971265 92.5805819,17.9358553 C92.5805819,17.9872056 92.5429879,18 92.4759725,18 C92.2814645,18 92.0215757,17.9808085 91.8319712,17.9808085 C91.7665904,17.9808085 91.4315136,18 91.116051,18 C91.0359595,18 91,17.9872056 91,17.9358553 C91,17.8971265 91.0245178,17.8843321 91.0735534,17.8843321 C91.1274926,17.8843321 91.2124877,17.8779349 91.2615234,17.8715377 C91.5410265,17.8329818 91.655443,17.6142674 91.778032,17.2931982 L93.3030402,13.2570974 C93.3749591,13.0705419 93.4125531,13 93.4730304,13 C93.5269696,13 93.5645636,13.0577475 93.6250409,13.2054013 C93.7705132,13.559148 94.7430533,16.1812995 95.1320693,17.1581659 C95.3625368,17.7365054 95.5390651,17.8265846 95.6665577,17.8587434 C95.7580909,17.8779349 95.8479895,17.8843321 95.921543,17.8843321 C95.9705786,17.8843321 96,17.8907293 96,17.9358553 C96,17.9872056 95.9460608,18 95.7204969,18 C95.5014711,18 95.0585159,18 94.5730631,17.9872056 C94.4635502,17.9808085 94.3899967,17.9808085 94.3899967,17.9358553 C94.3899967,17.8971265 94.4145145,17.8843321 94.4749918,17.8779349 C94.5174894,17.8651406 94.5599869,17.8073931 94.5305655,17.7301082 L94.0434783,16.3676821 C94.0320366,16.3355234 94.0140569,16.322729 93.983001,16.322729 L92.627983,16.322729 L92.627983,16.322729 Z" id="Fill-40"></path>
                <path d="M99.2597536,16.0702159 C99.2597536,16.9132669 99.2597536,17.3678446 99.3798768,17.486407 C99.4768994,17.5849431 99.6262834,17.6313756 100.072895,17.6313756 C100.376283,17.6313756 100.599589,17.6248183 100.742813,17.446709 C100.810575,17.3612873 100.879877,17.1766207 100.890657,17.0516783 C100.896817,16.9923085 100.907598,16.9527877 100.953799,16.9527877 C100.99384,16.9527877 101,16.9857512 101,17.0647928 C101,17.1370999 100.959959,17.6313756 100.913758,17.8222451 C100.879877,17.9672137 100.850616,18 100.553388,18 C100.140657,18 99.8434292,17.9868855 99.5862423,17.9803282 C99.3275154,17.9672137 99.1226899,17.9606564 98.8870637,17.9606564 C98.823922,17.9606564 98.6976386,17.9606564 98.5605749,17.9672137 C98.4296715,17.9672137 98.2802875,17.9803282 98.1663244,17.9803282 C98.0924025,17.9803282 98.0523614,17.9606564 98.0523614,17.9145784 C98.0523614,17.8814376 98.073922,17.8617659 98.1432238,17.8617659 C98.2294661,17.8617659 98.2972279,17.8486513 98.3495893,17.8355368 C98.4635524,17.8091305 98.4928131,17.6643391 98.5143737,17.4732925 C98.5436345,17.1966469 98.5436345,16.6761422 98.5436345,16.0702159 L98.5436345,14.9104668 C98.5436345,13.9091554 98.5436345,13.7246659 98.5328542,13.5139475 C98.5205339,13.2899373 98.4743326,13.1844894 98.2864476,13.1385886 C98.2402464,13.1252968 98.1724846,13.1187396 98.0970226,13.1187396 C98.0338809,13.1187396 98,13.1052706 98,13.0591926 C98,13.0132917 98.0400411,13 98.1262834,13 C98.3942505,13 98.7561602,13.019849 98.9101643,13.019849 C99.0472279,13.019849 99.4645791,13 99.687885,13 C99.7695072,13 99.8095483,13.0132917 99.8095483,13.0591926 C99.8095483,13.1052706 99.7741273,13.1187396 99.7063655,13.1187396 C99.6432238,13.1187396 99.5508214,13.1252968 99.4830595,13.1385886 C99.3275154,13.1713749 99.2828542,13.28338 99.2705339,13.5139475 C99.2597536,13.7246659 99.2597536,13.9091554 99.2597536,14.9104668 L99.2597536,16.0702159" id="Fill-41"></path>
            </g>
        </g>
    </g>
</svg>